<?xml version="1.0" encoding="UTF-8"?>
<svg width="180px" height="149px" viewBox="0 0 180 149" version="1.1" xmlns="http://www.w3.org/2000/svg" xmlns:xlink="http://www.w3.org/1999/xlink">
    <!-- Generator: Sketch 53.2 (72643) - https://sketchapp.com -->
    <title>Group 46</title>
    <desc>Created with Sketch.</desc>
    <g id="Page-2" stroke="none" stroke-width="1" fill="none" fill-rule="evenodd">
        <g id="HOME-" transform="translate(-125.000000, -2910.000000)">
            <g id="Group-46" transform="translate(125.000000, 2910.000000)">
                <g id="Group-45">
                    <g id="Group-36" transform="translate(0.000000, 18.000000)" fill="#F4F6F9">
                        <g id="sol_3">
                            <path d="M172.09839,100.197792 C142.335504,111.071908 114.605159,116.869367 88.907356,117.590167 C56.5849739,118.496781 114.805386,117.69207 150.253384,114.517287 C108.848904,134.037345 36.2094929,141.010144 12.0716305,108.331363 C-10.7321472,77.4587171 -1.2280102,43.5055647 40.5840415,6.47190543 C60.3332657,3.81763962 78.6766452,3.87776671 95.61418,6.65228671 C112.289858,9.38391215 94.1121903,4.87495508 71.9735437,1.24766864e-11 C156.751335,2.0990883 164.624847,42.2491311 178.956994,79.1893434 C181.721101,86.3136576 178.840758,93.5184366 172.09839,100.197792 Z" id="Combined-Shape-Copy-6" transform="translate(90.000000, 65.500000) scale(-1, -1) translate(-90.000000, -65.500000) "></path>
                        </g>
                    </g>
                    <g id="190308-No-App" transform="translate(36.000000, 0.000000)">
                        <g id="Group" transform="translate(22.000000, 65.000000)">
                            <g id="Layer1_0_MEMBER_0_MEMBER_0_FILL-link" fill="#FBE8BD" fill-rule="nonzero">
                                <g id="Layer1_0_MEMBER_0_MEMBER_0_FILL">
                                    <path d="M8.99640921,0.836141433 C3.39116983,0.836141433 0.588550136,3.62327954 0.588550136,9.19755577 L0.588550136,72.2426198 C0.588550136,77.8168961 3.39116983,80.6040342 8.99640921,80.6040342 L59.2754065,80.6040342 C64.8806459,80.6040342 67.6832656,77.8168961 67.6832656,72.2426198 L67.6832656,9.19755577 C67.6832656,3.62327954 64.8806459,0.836141433 59.2754065,0.836141433 L8.99640921,0.836141433 Z" id="Path"></path>
                                </g>
                            </g>
                            <g id="Layer1_0_MEMBER_0_MEMBER_0_1_STROKES-link" stroke="#2A3A4E" stroke-linecap="round" stroke-linejoin="round" stroke-width="0.75">
                                <path d="M8.99640921,0.836141433 L59.2754065,0.836141433 C64.8806459,0.836141433 67.6832656,3.62327954 67.6832656,9.19755577 L67.6832656,72.2426198 C67.6832656,77.8168961 64.8806459,80.6040342 59.2754065,80.6040342 L8.99640921,80.6040342 C3.39116983,80.6040342 0.588550136,77.8168961 0.588550136,72.2426198 L0.588550136,9.19755577 C0.588550136,3.62327954 3.39116983,0.836141433 8.99640921,0.836141433 Z" id="Layer1_0_MEMBER_0_MEMBER_0_1_STROKES"></path>
                            </g>
                        </g>
                        <g id="Group" transform="translate(38.000000, 75.000000)" fill="#666666" fill-rule="nonzero">
                            <g id="Layer1_0_MEMBER_0_MEMBER_0_MEMBER_0_MEMBER_0_FILL-link">
                                <g id="Layer1_0_MEMBER_0_MEMBER_0_MEMBER_0_MEMBER_0_FILL">
                                    <path d="M8.47138047,9 L8.47138047,0 L5.60606061,0 L5.60606061,2.97391304 L2.96498316,2.97391304 L2.96498316,0 L0.105892256,0 L0.0996632997,9 L2.98989899,9 L2.98989899,6 L5.60606061,6 L5.60606061,9 L8.47138047,9 L8.47138047,9 Z M17.6653199,3 L17.6653199,0 L9.72962963,0 L9.72962963,3 L12.2648148,3 L12.2648148,9 L15.1301347,9 L15.1301347,3 L17.6653199,3 L17.6653199,3 Z M28.6220539,9 L28.6220539,0 L25.619697,0 L23.769697,3.16956522 L21.9321549,0 L18.929798,0 L18.929798,9 L21.7452862,9 L21.7452862,4.53913043 L23.7510101,7.77391304 L25.756734,4.53913043 L25.756734,9 L28.6220539,9 L28.6220539,9 Z M36.9688552,9 L36.9688552,6.0326087 L32.9075758,6.0326087 L32.9075758,0 L30.0422559,0 L30.0422559,9 L36.9688552,9 Z" id="Shape"></path>
                                </g>
                            </g>
                        </g>
                        <g id="Group" transform="translate(34.000000, 86.000000)" fill="#D25836" fill-rule="nonzero">
                            <g id="Layer1_0_MEMBER_0_MEMBER_0_MEMBER_0_MEMBER_1_FILL-link">
                                <g id="Layer1_0_MEMBER_0_MEMBER_0_MEMBER_0_MEMBER_1_FILL">
                                    <polygon id="Path" points="4.09090909 45.9581086 22.4504132 51.037037 40.8842975 45.9395271 44.9752066 0.0805195973 0 0.0805195973"></polygon>
                                </g>
                            </g>
                        </g>
                        <g id="Group" transform="translate(57.000000, 90.000000)" fill="#DF6D3C" fill-rule="nonzero">
                            <g id="Layer1_0_MEMBER_0_MEMBER_0_MEMBER_0_MEMBER_2_FILL-link">
                                <g id="Layer1_0_MEMBER_0_MEMBER_0_MEMBER_0_MEMBER_2_FILL">
                                    <polygon id="Path" points="0.0543624161 42.9385714 14.5510067 38.8228571 17.9637584 0 0.0543624161 0"></polygon>
                                </g>
                            </g>
                        </g>
                        <g id="Group" transform="translate(43.000000, 96.000000)" fill="#EBEBEB" fill-rule="nonzero">
                            <g id="Layer1_0_MEMBER_0_MEMBER_0_MEMBER_0_MEMBER_3_FILL-link">
                                <g id="Layer1_0_MEMBER_0_MEMBER_0_MEMBER_0_MEMBER_3_FILL">
                                    <path d="M7.7426087,24.3844961 L7.35913043,19.8821705 L1.80173913,19.8821705 L2.58695652,28.7255814 L13.9330435,31.9503876 L13.9330435,26.0713178 L7.7426087,24.3844961 L7.7426087,24.3844961 Z M6.62869565,11.4418605 L6.1173913,5.6744186 L13.9330435,5.6744186 L13.9330435,0.0434108527 L0.0547826087,0.0434108527 L1.55826087,17.0542636 L13.9330435,17.0542636 L13.9330435,11.4418605 L6.62869565,11.4418605 Z" id="Shape"></path>
                                </g>
                            </g>
                        </g>
                        <g id="Group" transform="translate(56.000000, 96.000000)" fill="#FFFFFF" fill-rule="nonzero">
                            <g id="Layer1_0_MEMBER_0_MEMBER_0_MEMBER_0_MEMBER_4_FILL-link">
                                <g id="Layer1_0_MEMBER_0_MEMBER_0_MEMBER_0_MEMBER_4_FILL">
                                    <path d="M6.2026087,24.3906977 L0.0304347826,26.0775194 L0.0304347826,31.9317829 L11.346087,28.7317829 L12.8678261,11.4418605 L0.0304347826,11.4418605 L0.0304347826,17.0728682 L6.84173913,17.0728682 L6.2026087,24.3906977 L6.2026087,24.3906977 Z M13.8843478,0.0434108527 L0.0304347826,0.0434108527 L0.0304347826,5.6744186 L13.3669565,5.6744186 L13.8843478,0.0434108527 Z" id="Shape"></path>
                                </g>
                            </g>
                        </g>
                        <g id="Group" transform="translate(100.000000, 83.000000)" stroke="#2A3B4E" stroke-linecap="round" stroke-linejoin="round" stroke-width="0.876617432">
                            <g id="Layer1_0_MEMBER_0_MEMBER_1_1_STROKES-link" transform="translate(0.193323, 0.735896)">
                                <path d="M0.892886627,0.513065928 L0.892886627,12.187496" id="Layer1_0_MEMBER_0_MEMBER_1_1_STROKES"></path>
                            </g>
                        </g>
                        <g id="Group" transform="translate(96.000000, 88.000000)" stroke="#2A3B4E" stroke-linecap="round" stroke-linejoin="round" stroke-width="0.75">
                            <g id="Layer1_0_MEMBER_0_MEMBER_2_1_STROKES-link">
                                <path d="M0,1.2 L11.7428571,1.2" id="Layer1_0_MEMBER_0_MEMBER_2_1_STROKES"></path>
                            </g>
                        </g>
                        <g id="Group" transform="translate(102.000000, 72.000000)" stroke="#2A3B4E" stroke-linecap="round" stroke-linejoin="round" stroke-width="0.876617432">
                            <g id="Layer1_0_MEMBER_0_MEMBER_3_1_STROKES-link" transform="translate(0.904443, 0.374976)">
                                <path d="M5.9817564,3.1848838 C5.9817564,3.98488281 5.73175671,4.63488201 5.23175733,5.1348814 C4.73175795,5.63488078 4.08175875,5.88488047 3.28175973,5.88488047 C2.5817606,5.88488047 1.9317614,5.63488078 1.33176214,5.1348814 C0.831762754,4.63488201 0.581763063,3.98488281 0.581763063,3.1848838 C0.581763063,2.48488466 0.831762754,1.83488547 1.33176214,1.23488621 C1.9317614,0.734886822 2.5817606,0.484887131 3.28175973,0.484887131 C4.08175875,0.484887131 4.73175795,0.734886822 5.23175733,1.23488621 C5.73175671,1.83488547 5.9817564,2.48488466 5.9817564,3.1848838 Z" id="Layer1_0_MEMBER_0_MEMBER_3_1_STROKES"></path>
                            </g>
                        </g>
                        <g id="Group" transform="translate(4.000000, 103.000000)" stroke="#2A3B4E" stroke-linecap="round" stroke-linejoin="round" stroke-width="0.876617432">
                            <g id="Layer1_0_MEMBER_0_MEMBER_4_1_STROKES-link" transform="translate(0.648328, 0.081394)">
                                <path d="M1.40622281,0.258872774 L1.40622281,11.8737394" id="Layer1_0_MEMBER_0_MEMBER_4_1_STROKES"></path>
                            </g>
                        </g>
                        <g id="Group" transform="translate(0.000000, 108.000000)" stroke="#2A3B4E" stroke-linecap="round" stroke-linejoin="round" stroke-width="0.75">
                            <g id="Layer1_0_MEMBER_0_MEMBER_5_1_STROKES-link">
                                <path d="M0,1.2 L11.7428571,1.2" id="Layer1_0_MEMBER_0_MEMBER_5_1_STROKES"></path>
                            </g>
                        </g>
                        <g id="Group" transform="translate(10.000000, 115.000000)" stroke="#2A3B4E" stroke-linecap="round" stroke-linejoin="round" stroke-width="0.876617432">
                            <g id="Layer1_0_MEMBER_0_MEMBER_6_1_STROKES-link" transform="translate(0.192810, 0.164111)">
                                <path d="M5.78397198,3.44155189 C5.78397198,4.24155091 5.53397229,4.8915501 5.03397291,5.39154949 C4.53397352,5.89154887 3.88397432,6.14154856 3.08397531,6.14154856 C2.38397617,6.14154856 1.73397697,5.89154887 1.13397771,5.39154949 C0.633978331,4.8915501 0.383978639,4.24155091 0.383978639,3.44155189 C0.383978639,2.74155276 0.633978331,2.09155356 1.13397771,1.4915543 C1.73397697,0.991554913 2.38397617,0.741555221 3.08397531,0.741555221 C3.88397432,0.741555221 4.53397352,0.991554913 5.03397291,1.4915543 C5.53397229,2.09155356 5.78397198,2.74155276 5.78397198,3.44155189 Z" id="Layer1_0_MEMBER_0_MEMBER_6_1_STROKES"></path>
                            </g>
                        </g>
                        <g id="Group" transform="translate(13.000000, 19.000000)">
                            <g id="Layer1_0_MEMBER_1_FILL-link" fill-rule="nonzero">
                                <g id="Layer1_0_MEMBER_1_FILL">
                                    <path d="M6.30319149,30.6129032 L6.30319149,30.1096774 L0.168085106,30.0258065 L0.168085106,30.6967742 L6.30319149,30.6129032 L6.30319149,30.6129032 Z M25.4648936,8.89032258 L25.8010638,8.63870968 L18.3212766,1.09032258 L18.0691489,1.42580645 L25.4648936,8.89032258 Z" id="Shape" fill="#293A4E"></path>
                                    <path d="M48.3244681,0.922580645 C48.6046099,4.50107527 48.6326241,7.71612903 48.4085106,10.5677419 C49.8092199,10.9032258 51.2379433,10.2602151 52.6946809,8.63870968 L52.6946809,3.35483871 C51.4060284,1.67741935 49.9492908,0.866666667 48.3244681,0.922580645 L48.3244681,0.922580645 Z M28.3223404,20.6322581 L19.0776596,20.6322581 L19.0776596,51.6645161 L28.3223404,51.6645161 L28.3223404,47.4709677 L28.3223404,24.2387097 L28.3223404,20.6322581 Z" id="Shape" fill="#FFFFFF"></path>
                                    <path d="M48.4085106,10.5677419 C48.2964539,11.5182796 48.156383,12.4408602 47.9882979,13.3354839 L39.6680851,24.2387097 L28.3223404,24.2387097 L28.3223404,47.4709677 L37.8191489,47.4709677 L43.5340426,51.0774194 L65.3010638,51.0774194 C67.4301418,49.2322581 68.970922,47.2473118 69.9234043,45.1225806 L62.6117021,45.1225806 L69.9234043,45.1225806 C71.8843972,42.7741935 72.7528369,40.5096774 72.5287234,38.3290323 L66.1414894,38.3290323 L72.5287234,38.3290323 C74.5457447,34.9741935 75.4702128,32.0946237 75.3021277,29.6903226 L68.0744681,29.6903226 L75.3021277,29.6903226 C77.487234,27.6215054 78.243617,25.2172043 77.5712766,22.4774194 L53.9553191,22.4774194 L57.0648936,15.516129 C57.9053191,12.7763441 57.9053191,10.0365591 57.0648936,7.29677419 C56.056383,1.87311828 53.1429078,-0.251612903 48.3244681,0.922580645 C49.9492908,0.866666667 51.4060284,1.67741935 52.6946809,3.35483871 L52.6946809,8.63870968 C51.2379433,10.2602151 49.8092199,10.9032258 48.4085106,10.5677419 Z" id="Path" fill="#FCDEDC"></path>
                                </g>
                            </g>
                            <g id="Layer1_0_MEMBER_1_1_STROKES-link" transform="translate(18.489362, 0.000000)" stroke="#2A3B4E" stroke-linecap="round" stroke-linejoin="round" stroke-width="0.75">
                                <path d="M9.83297872,47.4709677 L9.83297872,51.6645161 L0.588297872,51.6645161 L0.588297872,20.6322581 L9.83297872,20.6322581 L9.83297872,24.2387097 L21.1787234,24.2387097 L29.4989362,13.3354839 C29.6670213,12.4408602 29.8070922,11.5182796 29.9191489,10.5677419 C30.1432624,7.71612903 30.1152482,4.50107527 29.8351064,0.922580645 C34.6535461,-0.251612903 37.5670213,1.87311828 38.5755319,7.29677419 C39.4159574,10.0365591 39.4159574,12.7763441 38.5755319,15.516129 L35.4659574,22.4774194 L59.0819149,22.4774194 C59.7542553,25.2172043 58.9978723,27.6215054 56.812766,29.6903226 C56.9808511,32.0946237 56.056383,34.9741935 54.0393617,38.3290323 C54.2634752,40.5096774 53.3950355,42.7741935 51.4340426,45.1225806 C50.4815603,47.2473118 48.9407801,49.2322581 46.8117021,51.0774194 L25.0446809,51.0774194 L19.3297872,47.4709677 L9.83297872,47.4709677 L9.83297872,24.2387097 M54.0393617,38.3290323 L47.6521277,38.3290323 M51.4340426,45.1225806 L44.1223404,45.1225806 M56.812766,29.6903226 L49.5851064,29.6903226" id="Layer1_0_MEMBER_1_1_STROKES"></path>
                            </g>
                        </g>
                        <g id="Group" transform="translate(59.000000, 0.000000)" fill="#293A4E" fill-rule="nonzero">
                            <g id="Layer1_0_MEMBER_1_MEMBER_0_FILL-link">
                                <g id="Layer1_0_MEMBER_1_MEMBER_0_FILL">
                                    <polygon id="Path" points="0.938464355 0 0.194165039 0 0.226525879 3.84285714 0.906103516 3.82857143"></polygon>
                                </g>
                            </g>
                        </g>
                        <g id="Group" transform="translate(102.000000, 49.000000)" fill="#293A4E" fill-rule="nonzero">
                            <g id="Layer1_0_MEMBER_1_MEMBER_1_FILL-link">
                                <g id="Layer1_0_MEMBER_1_MEMBER_1_FILL">
                                    <polygon id="Path" points="3.98571429 0.194165039 0.142857143 0.226525879 0.157142857 0.906103516 3.98571429 0.938464355"></polygon>
                                </g>
                            </g>
                        </g>
                        <g id="Group" transform="translate(24.000000, 14.000000)" fill="#293A4E" fill-rule="nonzero">
                            <g id="Layer1_0_MEMBER_1_MEMBER_2_FILL-link">
                                <g id="Layer1_0_MEMBER_1_MEMBER_2_FILL">
                                    <polygon id="Path" points="4.55555556 4.76315789 4.94444444 4.39473684 0.541666667 0.171052632 0.0833333333 0.592105263"></polygon>
                                </g>
                            </g>
                        </g>
                        <g id="Group" transform="translate(89.000000, 14.000000)" fill="#293A4E" fill-rule="nonzero">
                            <g id="Layer1_0_MEMBER_1_MEMBER_3_FILL-link">
                                <g id="Layer1_0_MEMBER_1_MEMBER_3_FILL">
                                    <polygon id="Path" points="4.81578947 0.541666667 4.39473684 0.0833333333 0.223684211 4.55555556 0.592105263 4.94444444"></polygon>
                                </g>
                            </g>
                        </g>
                        <g id="Group" transform="translate(98.000000, 31.000000)" fill="#293A4E" fill-rule="nonzero">
                            <g id="Layer1_0_MEMBER_1_MEMBER_4_FILL-link">
                                <g id="Layer1_0_MEMBER_1_MEMBER_4_FILL">
                                    <polygon id="Path" points="6.87826087 0.7625 6.61956522 0.225 0.243478261 2.3375 0.47173913 2.8"></polygon>
                                </g>
                            </g>
                        </g>
                        <g id="Group" transform="translate(16.000000, 62.000000)" fill="#293A4E" fill-rule="nonzero">
                            <g id="Layer1_0_MEMBER_1_MEMBER_5_FILL-link">
                                <g id="Layer1_0_MEMBER_1_MEMBER_5_FILL">
                                    <polygon id="Path" points="3.9 0.5125 3.7 0.075 3.68571429 0.0125 0.1 1.2375 0.342857143 1.7625"></polygon>
                                </g>
                            </g>
                        </g>
                        <g id="Group" transform="translate(12.000000, 31.000000)" fill="#293A4E" fill-rule="nonzero">
                            <g id="Layer1_0_MEMBER_1_MEMBER_6_FILL-link">
                                <g id="Layer1_0_MEMBER_1_MEMBER_6_FILL">
                                    <polygon id="Path" points="4.25 2.86666667 4.4375 2.26666667 4.4375 2.2 0.6875 0.666666667 0.4375 1.4"></polygon>
                                </g>
                            </g>
                        </g>
                        <g id="Group" transform="translate(40.000000, 4.000000)" fill="#293A4E" fill-rule="nonzero">
                            <g id="Layer1_0_MEMBER_1_MEMBER_7_FILL-link">
                                <g id="Layer1_0_MEMBER_1_MEMBER_7_FILL">
                                    <polygon id="Path" points="0.15 0.314285714 1.45 3.87142857 1.9375 3.64285714 0.675 0.0714285714"></polygon>
                                </g>
                            </g>
                        </g>
                        <g id="Group" transform="translate(75.000000, 3.000000)" fill="#293A4E" fill-rule="nonzero">
                            <g id="Layer1_0_MEMBER_1_MEMBER_8_FILL-link">
                                <g id="Layer1_0_MEMBER_1_MEMBER_8_FILL">
                                    <polygon id="Path" points="1.825 0.314285714 1.3 0.0857142857 0.125 3.68571429 0.625 3.9"></polygon>
                                </g>
                            </g>
                        </g>
                        <g id="Group" transform="translate(21.000000, 49.000000)" fill="#293A4E" fill-rule="nonzero">
                            <g id="Layer1_0_MEMBER_1_MEMBER_9_FILL-link">
                                <g id="Layer1_0_MEMBER_1_MEMBER_9_FILL">
                                    <polygon id="Path" points="0.025 0.307427979 0.025 0.825201416 1.7875 0.825201416 1.7875 0.307427979"></polygon>
                                </g>
                            </g>
                        </g>
                        <g id="Group" transform="translate(93.000000, 34.000000)" fill="#293A4E" fill-rule="nonzero">
                            <g id="Layer1_0_MEMBER_1_MEMBER_10_FILL-link">
                                <g id="Layer1_0_MEMBER_1_MEMBER_10_FILL">
                                    <polygon id="Path" points="0 1.61428571 0.56 1.85714286 3.92 0.442857143 3.76 0.0285714286"></polygon>
                                </g>
                            </g>
                        </g>
                        <g id="Group" transform="translate(18.000000, 34.000000)" fill="#293A4E" fill-rule="nonzero">
                            <g id="Layer1_0_MEMBER_1_MEMBER_11_FILL-link">
                                <g id="Layer1_0_MEMBER_1_MEMBER_11_FILL">
                                    <polygon id="Path" points="2.76818182 1.91666667 2.76818182 1.2 0.245454545 0.05 0.218181818 0.116666667 0.0545454545 0.666666667"></polygon>
                                </g>
                            </g>
                        </g>
                        <g id="Group" transform="translate(71.000000, 8.000000)" fill="#293A4E" fill-rule="nonzero">
                            <g id="Layer1_0_MEMBER_1_MEMBER_12_FILL-link">
                                <g id="Layer1_0_MEMBER_1_MEMBER_12_FILL">
                                    <polygon id="Path" points="0.123076923 7.72413793 0.661538462 7.9862069 3.90769231 0.331034483 3.83076923 0.317241379 3.32307692 0.137931034"></polygon>
                                </g>
                            </g>
                        </g>
                        <g id="Group" transform="translate(95.000000, 49.000000)" fill="#293A4E" fill-rule="nonzero">
                            <g id="Layer1_0_MEMBER_1_MEMBER_13_FILL-link">
                                <g id="Layer1_0_MEMBER_1_MEMBER_13_FILL">
                                    <path d="M5.895,0.889923096 L5.88,0.242706299 L0.42,0.242706299 C0.34,0.447658285 0.235,0.663397217 0.105,0.889923096 L5.895,0.889923096 Z" id="Path"></path>
                                </g>
                            </g>
                        </g>
                        <g id="Group" transform="translate(21.000000, 60.000000)" fill="#293A4E" fill-rule="nonzero">
                            <g id="Layer1_0_MEMBER_1_MEMBER_14_FILL-link">
                                <g id="Layer1_0_MEMBER_1_MEMBER_14_FILL">
                                    <polygon id="Path" points="2.745 0.871428571 2.745 0.257142857 0.135 1.22857143 0.36 1.77142857"></polygon>
                                </g>
                            </g>
                        </g>
                        <g id="Group" transform="translate(59.000000, 5.000000)" fill="#293A4E" fill-rule="nonzero">
                            <g id="Layer1_0_MEMBER_1_MEMBER_15_FILL-link">
                                <g id="Layer1_0_MEMBER_1_MEMBER_15_FILL">
                                    <polygon id="Path" points="0.258886719 11.8465116 0.889923096 11.8465116 0.889923096 0.0976744186 0.809020996 0.0837209302 0.242706299 0.0976744186"></polygon>
                                </g>
                            </g>
                        </g>
                        <g id="Group" transform="translate(79.000000, 19.000000)" fill="#293A4E" fill-rule="nonzero">
                            <g id="Layer1_0_MEMBER_1_MEMBER_16_FILL-link">
                                <g id="Layer1_0_MEMBER_1_MEMBER_16_FILL">
                                    <polygon id="Path" points="0.191176471 9.54411765 0.544117647 9.88235294 9.82352941 0.588235294 9.48529412 0.264705882"></polygon>
                                </g>
                            </g>
                        </g>
                        <g id="Group" transform="translate(43.000000, 10.000000)" fill="#293A4E" fill-rule="nonzero">
                            <g id="Layer1_0_MEMBER_1_MEMBER_17_FILL-link">
                                <g id="Layer1_0_MEMBER_1_MEMBER_17_FILL">
                                    <polygon id="Path" points="0.571428571 0.0285714286 0.171428571 0.214285714 5.45714286 11.8428571 5.87142857 11.6285714"></polygon>
                                </g>
                            </g>
                        </g>
                    </g>
                </g>
            </g>
        </g>
    </g>
</svg>