<?xml version="1.0" encoding="UTF-8"?>
<svg width="214px" height="196px" viewBox="0 0 214 196" version="1.1" xmlns="http://www.w3.org/2000/svg" xmlns:xlink="http://www.w3.org/1999/xlink">
    <!-- Generator: Sketch 53.2 (72643) - https://sketchapp.com -->
    <title>Group 15</title>
    <desc>Created with Sketch.</desc>
    <defs>
        <polygon id="path-1" points="0.00819981904 0.112856481 27.3843586 0.112856481 27.3843586 19.4459274 0.00819981904 19.4459274"></polygon>
        <path d="M1.91936505,4.30097757 C6.3903923,10.4233807 4.17036722,12.4970881 0.128160135,11.2344605 L0.128160135,11.2344605 C1.91025414,12.4422443 5.46533124,12.5580257 6.29746102,9.86762961 L6.29746102,9.86762961 C7.27840234,6.69582623 5.49873791,6.23940342 3.36982193,3.09989698 L3.36982193,3.09989698 C1.98131924,1.05422091 2.50610766,0.218156697 2.50610766,0.218156697 L2.50610766,0.218156697 C1.38060657,0.52162607 0.334674096,2.12916062 1.91936505,4.30097757 L1.91936505,4.30097757 Z" id="path-3"></path>
    </defs>
    <g id="Page-2" stroke="none" stroke-width="1" fill="none" fill-rule="evenodd">
        <g id="HOME-" transform="translate(-751.000000, -1053.000000)">
            <g id="Group-15" transform="translate(751.000000, 1053.000000)">
                <g id="Group-13">
                    <g id="sol_1" transform="translate(0.000000, 9.000000)" fill="#FAF7F1">
                        <path d="M123.822298,0.693574653 C144.78811,-1.3497373 164.486745,1.12173915 182.918203,8.10800401 C247.090835,32.4320161 211.790061,230.114418 77.9773041,178.41496 C43.7569989,165.193715 20.5110089,149.883748 8.23933401,132.485058 C23.17507,145.906092 39.3274367,149.532188 24.2070328,138.864551 C11.2121036,129.696462 3.14309266,112.131718 1.0473844e-12,86.1703165 C4.37372717,69.5879766 15.7376245,51.6752098 34.0916921,32.4320161 C52.9837234,21.5753371 71.1107197,13.4443785 88.4726811,8.03914039 C111.285696,4.41312859 132.024041,4.86097321 150.687717,9.38267424 C178.275697,16.0664917 157.687619,6.92585768 123.822298,0.693574653 Z" id="Combined-Shape"></path>
                    </g>
                    <g id="fea_2" transform="translate(11.000000, 0.000000)">
                        <g id="Page-1">
                            <g id="Group-192" transform="translate(0.000000, 0.432657)">
                                <g id="Group-3" transform="translate(174.929473, 89.578309)">
                                    <mask id="mask-2" fill="white">
                                        <use xlink:href="#path-1"></use>
                                    </mask>
                                    <g id="Clip-2"></g>
                                    <path d="M0.00819981904,13.0456486 C0.00819981904,13.0456486 1.3371779,6.11277503 2.53313669,6.11277503 C3.72909548,6.11277503 6.38705164,5.57957082 4.79264238,10.1127207 C3.19762573,14.6458707 7.58361782,8.37965468 7.58361782,8.37965468 L10.1079473,0.912967497 L12.6328842,0.112856481 L13.9624696,2.51258015 L11.702964,11.8457868 L11.702964,13.3125554 L14.3609201,7.71299707 L16.3543872,6.77943265 L18.4802662,6.91288605 L18.4802662,11.1791292 L18.4802662,13.8457596 L22.3347886,3.04639375 L24.7267062,0.24630988 L27.3846623,0.513216677 L27.1192311,4.11280218 L22.4678079,19.4459274" id="Fill-1" fill="#FFECC0" mask="url(#mask-2)"></path>
                                </g>
                                <path d="M109.154047,183.421642 C109.154047,184.305237 107.012376,185.021864 104.369605,185.021864 C101.727441,185.021864 99.5857697,184.305237 99.5857697,183.421642 C99.5857697,182.538656 101.727441,181.822029 104.369605,181.822029 C107.012376,181.822029 109.154047,182.538656 109.154047,183.421642" id="Fill-4" fill="#EFEEEE"></path>
                                <polyline id="Fill-6" fill="#C08D8D" points="83.2395215 75.5584502 84.0364224 71.8254113 86.4289474 69.4250783 88.2893952 67.9583097 92.67478 64.0918174 98.3891427 61.1588895 105.300072 59.9584183 109.020967 59.6921208 112.87549 57.692148 114.868349 56.6257395 114.73533 58.492259 116.463366 58.3588056 118.190795 56.6257395 119.121322 54.2254065 119.918831 56.0925353 119.652792 59.8255742 116.861817 63.1588623 115.134388 64.6256309 118.323814 67.4251054 119.387361 69.0253275 119.387361 71.5585045 119.519773 73.2915706 118.190795 76.0916545"></polyline>
                                <path d="M90.5419159,70.0479218 C90.5419159,70.0479218 91.3011584,65.6299439 96.4640074,63.6494711 C101.626856,61.6689983 97.0714014,65.782288 95.0973709,67.4580727" id="Fill-8" fill="#D2A7A7"></path>
                                <path d="M100.383035,72.2250403 C100.383035,72.2250403 105.698947,67.5255306 111.878574,66.0252463 L115.134206,64.6255091 L116.961854,65.4250107 L119.054934,68.0252192 L119.387179,71.5583827 L118.556871,72.8252759 L115.068,70.2250674 L110.583003,69.4249564 L105.698947,70.2250674" id="Fill-10" fill="#7A5353"></path>
                                <polyline id="Fill-12" fill="#FCDFDD" points="86.2961104 99.1575205 95.199899 99.4238179 107.692779 97.6913612 119.519955 95.4244816 122.709381 94.3580732 124.038966 91.0247851 126.297257 90.6244249 129.354271 86.091275 128.955213 80.6245606 126.962354 78.3582904 126.696315 75.8251133 124.702848 74.2248913 119.519955 73.2919362 116.330529 71.4254168 110.749186 70.0921015 105.698704 70.2249456 100.382792 72.2249184 96.6618964 73.4247802 84.4356625 75.8251133 80.315709 77.4247259 75.6642857 79.4246988 75.132816 81.9578759 75.797305 83.9584581 74.2028958 85.5580707 74.2028958 88.8913588 75.6642857 92.8913045 77.3923217 94.62498 78.8537116 96.2245926 81.3786485 95.4244816 82.3097835 96.6243434 82.8412533 97.8242053"></polyline>
                                <path d="M77.3922002,94.6246753 L75.6641642,92.8909998 L74.2027743,88.8910541 L74.4651685,86.1866423 L75.7971835,83.9581534 L75.1326945,81.9581806 L76.2654843,79.7656448 L78.3755711,78.5712674 L80.7188971,92.6752807 C80.7188971,92.6752807 81.6943719,95.8093027 83.8421171,96.0055219 C85.9898623,96.2011316 90.2173246,100.350984 98.2567916,99.1572158 L86.1423182,99.1377158 L82.8411318,97.82451" id="Fill-14" fill="#FEFEFE"></path>
                                <path d="M128.955456,80.6248044 L126.962597,78.3579247 L126.695951,75.825357 L124.703091,74.225135 L119.520198,73.2915706 L116.330772,71.4250511 L110.748821,70.0917359 L105.698947,70.2251893 L100.383035,72.2251622 L98.4393742,72.8522103 L99.9894437,74.4786355 C99.9894437,74.4786355 103.904705,89.6246822 102.111071,98.2241998 C102.092849,98.3089031 102.059442,98.3917783 102.037576,98.4752629 L107.692414,97.6909956 L119.520198,95.4247254 L122.709624,94.3577075 L124.038602,91.0244195 L126.2975,90.6246686 L129.354514,86.0915187 L128.955456,80.6248044 Z" id="Fill-16" fill="#F5CCCC"></path>
                                <path d="M96.8311771,96.3409225 C96.8311771,96.3409225 94.7380974,94.5408251 98.7244242,94.9405759 C102.711966,95.3403267 107.894859,95.0405136 108.69176,93.2410256 C109.489268,91.4409281 110.586222,95.841234 105.103883,96.7406734 C99.6221526,97.6407221 96.8311771,96.3409225 96.8311771,96.3409225" id="Fill-18" fill="#FCDFDD"></path>
                                <path d="M128.955456,80.6248044 L126.962597,78.3579247 L126.695951,75.825357 L124.703091,74.225135 L119.520198,73.2915706 L116.556115,71.5572858 L118.19122,73.9582282 C118.19122,73.9582282 121.513665,73.9582282 121.779704,76.4914053 C122.045135,79.0251917 123.506525,81.8246662 123.506525,81.8246662 L123.506525,84.7582035 L122.709624,94.3577075 L124.038602,91.0244195 L126.2975,90.6246686 L129.354514,86.0915187 L128.955456,80.6248044 Z" id="Fill-20" fill="#DCB0B0"></path>
                                <path d="M128.955456,80.6248044 L126.962597,78.3579247 L126.695951,75.825357 L124.703091,74.225135 L119.520198,73.2915706 L116.556115,71.5572858 L118.19122,73.9582282 C118.19122,73.9582282 121.513665,73.9582282 121.779704,76.4914053 C122.045135,79.0251917 123.506525,81.8246662 123.506525,81.8246662 L123.506525,84.7582035 L122.709624,94.3577075 L124.038602,91.0244195 L126.2975,90.6246686 L129.354514,86.0915187 L128.955456,80.6248044 Z" id="Fill-22" fill="#DCB0B0"></path>
                                <path d="M126.2975,90.6244858 L127.92896,89.1406547 L129.323537,84.9408335 L129.209954,80.5210276 L128.626249,79.3412752 L126.962597,78.3583513 C126.962597,78.3583513 125.835273,75.2413918 125.636048,77.6411154 C125.436823,80.0414485 125.735661,85.3411937 123.941419,80.4411993 L123.742194,87.0413535 L123.795644,91.3685342 L124.080512,82.8963762" id="Fill-24" fill="#C39696"></path>
                                <path d="M129.209894,80.5209667 L128.626188,79.3412142 L127.559604,78.7111192 C127.484287,82.2601265 127.108918,86.5690259 125.88016,89.1680156 L126.297439,90.6244249 L127.9289,89.1412031 L129.323476,84.9407726 L129.209894,80.5209667 Z" id="Fill-26" fill="#845A5A"></path>
                                <path d="M84.7675426,109.424109 C84.7675426,109.424109 92.1437354,102.224328 112.277024,105.624648 L120.848569,107.024385 L133.208429,112.823819 L137.194756,118.623862 L137.793039,125.024141 L135.002064,131.223325 L128.423987,136.823493 L122.24436,139.423092 L119.653217,139.623577 L116.663016,151.223054 L111.878574,161.622669 L109.685274,165.422739 L106.097398,167.222837 L102.907972,167.222837 L99.5193208,165.82249 L93.738752,158.422225 L88.1568011,147.022623 L85.9641088,141.62294 L80.7812158,141.62294 L74.4023639,138.622981 L68.22213,132.223312 L66.8269459,126.023518 L69.6179214,119.023613 L75.3984901,113.62393 L84.7675426,109.424109 Z" id="Fill-28" fill="#C6E8EF"></path>
                                <path d="M116.86212,130.356549 C116.86212,130.356549 113.672694,137.290032 114.470203,142.88959 C114.470203,142.88959 113.938733,161.556003 107.559881,164.755838 L113.672694,159.156279 L119.785508,140.489866 L117.92506,136.48992" id="Fill-30" fill="#85AEB4"></path>
                                <path d="M123.639544,109.224111 C123.639544,109.224111 136.995531,112.823697 135.401121,123.024046 C135.401121,123.024046 122.045135,139.42358 122.045135,130.623577 C122.045135,130.623577 119.453385,140.689863 126.829577,137.956202 C134.205163,135.223149 149.753842,116.824252 123.639544,109.224111" id="Fill-32" fill="#B1D9DC"></path>
                                <polyline id="Fill-34" fill="#F08080" points="96.7285883 162.622533 101.512423 162.922347 104.104174 164.122818 106.496091 163.022284 111.878209 161.622547 110.184188 164.322693 106.097641 167.222715 102.908215 167.222715 100.216852 166.222119"></polyline>
                                <path d="M114.204164,111.957408 C114.204164,111.957408 119.785508,111.823954 120.316977,109.424231 C120.316977,109.424231 123.506403,115.956744 122.045013,121.823209" id="Fill-36" fill="#B1D9DC"></path>
                                <path d="M105.167417,114.357436 C105.167417,114.357436 106.496395,116.223955 103.705419,116.090502 C100.914444,115.957049 94.4025729,115.156938 90.9477158,113.823622 C90.9477158,113.823622 86.8277623,130.490063 89.4857185,140.356474 L86.4287045,129.156748 L83.3722978,122.890532 L82.3093583,121.69006 L83.1068667,112.490917 C83.1068667,112.490917 77.9233662,114.623733 77.2594846,117.423817 C76.5943882,120.223901 71.146064,123.156829 74.3354899,128.89045 C77.5249158,134.623462 76.4613689,139.556972 80.4489105,139.956723 C84.4352373,140.356474 73.6710008,139.956723 71.5451218,136.756888 C69.4186354,133.557054 66.8930911,126.090366 67.8236188,122.757078 C68.7541464,119.42379 75.3984294,113.623747 75.3984294,113.623747 L80.4489105,111.023539 L84.7674819,109.423926 L87.3592321,107.557406 L94.5355922,108.224064" id="Fill-38" fill="#E4F3F7"></path>
                                <path d="M87.6247847,109.290777 C87.6247847,109.290777 99.0541177,119.424095 119.25422,109.02448 C119.25422,109.02448 104.103991,98.6242553 87.6247847,109.290777" id="Fill-40" fill="#85AEB4"></path>
                                <polyline id="Fill-42" fill="#FCDFDD" points="97.9908137 110.090584 98.2562449 99.1577643 105.167174 98.62456 104.103627 106.624451 103.306726 110.890085"></polyline>
                                <polyline id="Fill-44" fill="#F5CCCC" points="101.712256 111.023721 101.712256 99.4242445 105.167113 98.6241335 104.104174 106.624025 103.306665 110.890268"></polyline>
                                <polygon id="Fill-46" fill="#F08080" points="91.7448597 155.956262 83.3725408 157.156124 73.0061473 155.822809 69.9497407 154.489493 73.2721859 150.889908 76.993689 143.822971 78.0566285 140.623137 84.5684996 141.689545 86.1635162 141.823608 88.2900026 147.822917 91.3464093 154.35604"></polygon>
                                <polygon id="Fill-48" fill="#F08080" points="120.051546 139.956601 119.387057 142.889529 117.659629 148.755994 121.779582 149.156354 126.962475 151.156327 130.81639 153.689504 132.144761 154.089255 130.417332 135.689749 126.829456 137.956628"></polygon>
                                <polyline id="Fill-50" fill="#F08080" points="106.761826 101.824151 110.616348 107.290865 118.590217 103.557826 116.596142 102.223902"></polyline>
                                <polyline id="Fill-52" fill="#8C3434" points="114.469899 105.557738 121.513847 107.290804 120.317281 104.757627 118.589852 103.557765"></polyline>
                                <polyline id="Fill-54" fill="#F08080" points="83.6381542 106.090943 92.4089236 102.357294 95.7313688 102.090997 92.0104731 107.557102 90.6821024 108.891026"></polyline>
                                <polyline id="Fill-56" fill="#8C3434" points="96.5292416 101.824151 98.2566701 104.624235 94.6687937 105.023986"></polyline>
                                <polyline id="Fill-58" fill="#8C3434" points="83.272746 106.674177 84.8671552 106.774114 87.0598476 107.874038 85.0165741 109.0739 83.272746 109.674136"></polyline>
                                <path d="M26.9322145,58.149302 L48.351964,52.9062288 C49.3401941,52.6643064 50.3399646,53.3047609 50.5732039,54.3303411 L52.1281325,61.1669332 C52.3619792,62.1925135 51.7442595,63.2290625 50.7554221,63.4709848 L49.4076148,63.8012668 L50.7857918,69.8609042 L43.5656993,65.2314728 L29.33628,68.7146675 C28.3474425,68.9565898 27.3482794,68.315526 27.1144327,67.2899458 L25.5588967,60.453963 C25.3256574,59.4283828 25.9439845,58.3912244 26.9322145,58.149302" id="Fill-60" fill="#FFECC0"></path>
                                <path d="M33.4872106,41.782431 L12.0674611,47.0261136 C11.079231,47.268036 10.4615113,48.3051944 10.6947506,49.3307746 L12.2496793,56.1667574 C12.483526,57.1923376 13.4826891,57.8334014 14.4715266,57.591479 L15.8193338,57.2611971 L17.1987256,63.3208345 L21.6612494,55.8316004 L35.8906687,52.3477964 C36.8795061,52.105874 37.4978332,51.0687157 37.2639865,50.0431354 L35.7084505,43.2071527 C35.4752112,42.1815724 34.4754406,41.5405086 33.4872106,41.782431" id="Fill-62" fill="#C6E8EF"></path>
                                <path d="M181.566832,41.8431249 C181.263742,38.1929611 179.21318,34.7560791 175.783833,32.8395908 L170.265659,42.7772987 L181.566832,41.8431249 Z" id="Fill-64" fill="#F08080"></path>
                                <path d="M166.908653,45.2015192 L172.428042,35.2638114 C166.957244,32.2059613 160.051782,34.1760748 157.003271,39.6647266 C153.955368,45.1527691 155.919073,52.0813771 161.389871,55.1392271 C166.860669,58.1970771 173.766131,56.2269637 176.814642,50.7383118 C177.952291,48.6901983 178.390222,46.4409905 178.209826,44.2673455 L166.908653,45.2015192 Z" id="Fill-66" fill="#CAE5CA"></path>
                                <path d="M113.60333,8.72706008 C107.053193,6.9665721 100.32023,10.8665801 98.5648618,17.4380936 C96.8471516,23.8712786 100.53707,30.4756984 106.837568,32.4037649 L105.428414,37.6797444 L115.514191,31.8376543 C118.734594,30.3641826 121.298405,27.5123017 122.286027,23.8139973 C122.615235,22.5818385 122.745824,21.343586 122.69784,20.1327553" id="Fill-68" fill="#FEFEFE"></path>
                                <g id="Group-73" transform="translate(112.975285, 6.703139)">
                                    <path d="M0.314873051,14.8550086 L3.9968955,17.0256068 C3.9968955,17.0256068 4.77982637,15.2236812 9.66995548,13.4193181 C9.678459,13.4162713 9.68756991,13.412615 9.69546603,13.4095681 C9.69971779,13.4083494 9.70336215,13.4071306 9.70700652,13.4053025 C11.116768,12.8818483 12.3625331,11.8861275 13.1837298,10.4845621 C15.0727251,7.25791488 13.9970304,3.10562512 10.7808791,1.20985561 C7.56533526,-0.68530453 3.42594513,0.393291431 1.53694978,3.61993867 C0.535357074,5.3304578 0.367108935,7.30057122 0.90951178,9.05740295 C0.90951178,9.05740295 1.68333174,12.9214577 0.314873051,14.8550086" id="Fill-70" fill="#FFECC0"></path>
                                    <path d="M0.314873051,14.8550086 L3.9968955,17.0256068 C3.9968955,17.0256068 4.77982637,15.2236812 9.66995548,13.4193181 C9.678459,13.4162713 9.68756991,13.412615 9.69546603,13.4095681 C9.69971779,13.4083494 9.70336215,13.4071306 9.70700652,13.4053025 C11.116768,12.8818483 12.3625331,11.8861275 13.1837298,10.4845621 C15.0727251,7.25791488 13.9970304,3.10562512 10.7808791,1.20985561 C7.56533526,-0.68530453 3.42594513,0.393291431 1.53694978,3.61993867 C0.535357074,5.3304578 0.367108935,7.30057122 0.90951178,9.05740295 C0.90951178,9.05740295 1.68333174,12.9214577 0.314873051,14.8550086" id="Stroke-72" stroke="#2A3B4E" stroke-width="0.75" stroke-linecap="round" stroke-linejoin="round"></path>
                                </g>
                                <path d="M112.877859,25.7205527 C115.482971,26.566367 116.375233,24.5426284 116.375233,24.5426284 L113.106846,22.6157807 C113.106846,22.6157807 112.460579,22.6553902 112.362788,24.2306278" id="Stroke-74" stroke="#2A3B4E" stroke-width="0.75" stroke-linecap="round" stroke-linejoin="round"></path>
                                <path d="M113.857767,5.98127164 L112.10908,3.61201678" id="Stroke-76" stroke="#2A3B4E" stroke-width="0.75" stroke-linecap="round" stroke-linejoin="round"></path>
                                <path d="M129.975089,15.4804724 L132.889365,15.8595044" id="Stroke-78" stroke="#2A3B4E" stroke-width="0.75" stroke-linecap="round" stroke-linejoin="round"></path>
                                <path d="M117.319427,3.80384842 L116.399225,0.985483271" id="Stroke-80" stroke="#2A3B4E" stroke-width="0.75" stroke-linecap="round" stroke-linejoin="round"></path>
                                <path d="M130.507712,11.57693 L133.409234,11.0108195" id="Stroke-82" stroke="#2A3B4E" stroke-width="0.75" stroke-linecap="round" stroke-linejoin="round"></path>
                                <path d="M122.078967,3.27631141 L122.091722,0.405539894" id="Stroke-84" stroke="#2A3B4E" stroke-width="0.75" stroke-linecap="round" stroke-linejoin="round"></path>
                                <path d="M128.649937,7.14914122 L131.142682,5.73965396" id="Stroke-86" stroke="#2A3B4E" stroke-width="0.75" stroke-linecap="round" stroke-linejoin="round"></path>
                                <path d="M125.662227,4.70450652 L127.118758,2.21642329" id="Stroke-88" stroke="#2A3B4E" stroke-width="0.75" stroke-linecap="round" stroke-linejoin="round"></path>
                                <path d="M123.571334,9.73661371 C123.571334,9.73661371 126.034924,12.4324942 124.80981,15.1314217" id="Stroke-90" stroke="#2A3B4E" stroke-width="0.75" stroke-linecap="round" stroke-linejoin="round"></path>
                                <path d="M117.554367,148.555083 C126.566879,149.255865 132.513874,154.53672 132.513874,154.53672 C132.513874,154.53672 132.009737,145.884796 130.521622,135.683228" id="Stroke-92" stroke="#2A3B4E" stroke-width="0.75" stroke-linecap="round" stroke-linejoin="round"></path>
                                <path d="M78.2226293,140.617713 C76.2728945,146.479303 73.5955018,151.638283 69.9201606,154.639461 C69.9201606,154.639461 79.7004189,158.927641 92.246142,155.956932" id="Stroke-94" stroke="#2A3B4E" stroke-width="0.75" stroke-linecap="round" stroke-linejoin="round"></path>
                                <path d="M96.3417998,101.924698 C90.7458788,102.804028 85.9170965,104.425578 83.4371068,106.178144 C83.4371068,106.178144 83.418885,107.621147 83.292547,110.022699" id="Stroke-96" stroke="#2A3B4E" stroke-width="0.75" stroke-linecap="round" stroke-linejoin="round"></path>
                                <path d="M91.5823211,111.633098 C91.5823211,111.633098 101.775607,116.475201 111.823726,111.633098" id="Stroke-98" stroke="#2A3B4E" stroke-width="0.75" stroke-linecap="round" stroke-linejoin="round"></path>
                                <path d="M122.427125,121.799687 C122.650038,116.215363 122.124035,111.908901 120.655964,109.447631" id="Stroke-100" stroke="#2A3B4E" stroke-width="0.75" stroke-linecap="round" stroke-linejoin="round"></path>
                                <path d="M86.2474581,141.901913 C90.4980013,155.300268 97.6895463,167.49145 104.799093,167.49145 C110.902188,167.49145 116.727097,154.013875 119.926848,139.836127" id="Stroke-102" stroke="#2A3B4E" stroke-width="0.75" stroke-linecap="round" stroke-linejoin="round"></path>
                                <path d="M83.4412371,112.409077 C82.5811672,114.948348 82.2835441,118.301136 82.4481479,122.102425" id="Stroke-104" stroke="#2A3B4E" stroke-width="0.75" stroke-linecap="round" stroke-linejoin="round"></path>
                                <path d="M94.9496527,104.982304 C95.4586489,104.909789 95.9882965,104.85007 96.537988,104.806804" id="Stroke-106" stroke="#2A3B4E" stroke-width="0.75" stroke-linecap="round" stroke-linejoin="round"></path>
                                <path d="M85.2444076,109.160493 C85.2444076,109.160493 85.9022153,108.477991 87.2524522,107.649239" id="Stroke-108" stroke="#2A3B4E" stroke-width="0.75" stroke-linecap="round" stroke-linejoin="round"></path>
                                <path d="M75.8974643,83.924333 C75.1509771,84.3045838 74.6395513,84.9432101 74.4652292,86.186947 C74.4652292,86.186947 73.7709779,95.9363577 80.9479454,95.6980915" id="Stroke-110" stroke="#2A3B4E" stroke-width="0.75" stroke-linecap="round" stroke-linejoin="round"></path>
                                <path d="M116.383433,81.4082794 C116.795854,85.3198656 113.969042,88.8256071 110.07018,89.2393736 C106.171925,89.6525307 102.677587,86.8164936 102.265167,82.9055169 C101.853354,78.9945401 104.679558,75.4881892 108.577813,75.0750321 C112.476675,74.6612656 115.971012,77.4973027 116.383433,81.4082794" id="Fill-112" fill="#FEFEFE"></path>
                                <path d="M100.570477,83.8850283 C100.936735,87.3596916 98.4257686,90.4742136 94.962408,90.8410581 C91.4990474,91.208512 88.395264,88.6893506 88.0290054,85.2146872 C87.6627469,81.7400239 90.1737137,78.6261112 93.6370743,78.2586573 C97.0998275,77.8918128 100.204218,80.4103649 100.570477,83.8850283" id="Fill-114" fill="#FEFEFE"></path>
                                <path d="M95.8482921,84.3858137 C95.9387938,85.2438154 95.3186446,86.0128482 94.4634338,86.1036453 C93.6082231,86.1944424 92.8410844,85.5722692 92.7505827,84.7142675 C92.660081,83.8556563 93.2802303,83.0866235 94.1360484,82.9958264 C94.9912592,82.9050294 95.7583978,83.5272025 95.8482921,84.3858137" id="Fill-116" fill="#2A3B4E"></path>
                                <path d="M110.873033,81.9926103 C110.963535,82.8512214 110.343386,83.6202543 109.488175,83.7110513 C108.632964,83.8018484 107.865825,83.1796752 107.775324,82.3210641 C107.684822,81.4630623 108.304971,80.6934201 109.160789,80.6026231 C110.016,80.5124354 110.783139,81.1346086 110.873033,81.9926103" id="Fill-118" fill="#2A3B4E"></path>
                                <path d="M100.886625,52.5780187 C101.022682,53.8686776 100.089724,55.0258831 98.803264,55.1623834 C97.5168035,55.2982743 96.3639696,54.3628818 96.2279134,53.0722229 C96.0912497,51.781564 97.0248143,50.6243585 98.3112748,50.4878582 C99.5977353,50.3519673 100.750569,51.2873599 100.886625,52.5780187 Z" id="Stroke-120" stroke="#2A3B4E" stroke-width="0.75" stroke-linecap="round" stroke-linejoin="round"></path>
                                <path d="M98.8034462,55.1622006 L99.3956553,60.7788215" id="Stroke-122" stroke="#2A3B4E" stroke-width="0.75" stroke-linecap="round" stroke-linejoin="round"></path>
                                <path d="M84.9003797,109.448484 C84.9003797,109.448484 64.5964129,115.72384 67.9255395,129.415306 C71.2534512,143.106162 86.5646392,141.739331 86.5646392,141.739331 C86.5646392,141.739331 90.8917141,123.737747 78.9096526,120.398975" id="Stroke-124" stroke="#2A3B4E" stroke-width="0.75" stroke-linecap="round" stroke-linejoin="round"></path>
                                <path d="M126.492656,119.973326 C123.625756,120.808171 122.427368,121.799626 122.427368,121.799626 C115.687117,128.140796 116.518032,139.836554 120.300274,139.836554 C124.081302,139.836554 139.151962,133.15779 138.153406,122.125033 C137.15485,111.092886 120.300274,106.983862 120.300274,106.983862 L113.990058,105.545734" id="Stroke-126" stroke="#2A3B4E" stroke-width="0.75" stroke-linecap="round" stroke-linejoin="round"></path>
                                <path d="M92.3243744,116.983543 C92.3243744,116.983543 102.872986,119.997518 111.595771,116.983543 L116.109924,120.873801 C116.109924,120.873801 112.430331,131.831605 102.275918,136.637755 C102.275918,136.637755 91.1539261,133.099717 88.5421319,122.313148 L92.3243744,116.983543 Z" id="Fill-128" fill="#FFECC0"></path>
                                <path d="M92.3243744,116.983543 C92.3243744,116.983543 102.872986,119.997518 111.595771,116.983543 L116.109924,120.873801 C116.109924,120.873801 112.430331,131.831605 102.275918,136.637755 C102.275918,136.637755 91.1539261,133.099717 88.5421319,122.313148 L92.3243744,116.983543 Z" id="Stroke-130" stroke="#2A3B4E" stroke-width="0.75" stroke-linecap="round" stroke-linejoin="round"></path>
                                <path d="M96.6733762,162.289875 C96.6733762,162.289875 99.7079166,163.038798 102.00751,162.938251 L104.4875,164.509833 L106.350377,162.870611 C106.350377,162.870611 110.418095,162.531188 112.301016,161.081482" id="Stroke-132" stroke="#2A3B4E" stroke-width="0.75" stroke-linecap="round" stroke-linejoin="round"></path>
                                <path d="M83.4412371,142.410742 C83.4412371,142.410742 83.7157791,145.837265 81.8790197,148.82199" id="Stroke-134" stroke="#2A3B4E" stroke-width="0.75" stroke-linecap="round" stroke-linejoin="round"></path>
                                <path d="M122.625257,139.836371 L122.625257,142.410986" id="Stroke-136" stroke="#2A3B4E" stroke-width="0.75" stroke-linecap="round" stroke-linejoin="round"></path>
                                <path d="M33.4872106,41.782431 L12.0674611,47.0261136 C11.079231,47.268036 10.4615113,48.3051944 10.6947506,49.3307746 L12.2496793,56.1667574 C12.483526,57.1923376 13.4826891,57.8334014 14.4715266,57.591479 L15.8193338,57.2611971 L17.1987256,63.3208345 L21.6612494,55.8316004 L35.8906687,52.3477964 C36.8795061,52.105874 37.4978332,51.0687157 37.2639865,50.0431354 L35.7084505,43.2071527 C35.4752112,42.1815724 34.4754406,41.5405086 33.4872106,41.782431 Z" id="Stroke-138" stroke="#2A3B4E" stroke-width="0.75" stroke-linecap="round" stroke-linejoin="round"></path>
                                <path d="M26.9322145,58.149302 L48.351964,52.9062288 C49.3401941,52.6643064 50.3399646,53.3047609 50.5732039,54.3303411 L52.1281325,61.1669332 C52.3619792,62.1925135 51.7442595,63.2290625 50.7554221,63.4709848 L49.4076148,63.8012668 L50.7857918,69.8609042 L43.5656993,65.2314728 L29.33628,68.7146675 C28.3474425,68.9565898 27.3482794,68.315526 27.1144327,67.2899458 L25.5588967,60.453963 C25.3256574,59.4283828 25.9439845,58.3912244 26.9322145,58.149302 Z" id="Stroke-140" stroke="#2A3B4E" stroke-width="0.75" stroke-linecap="round" stroke-linejoin="round"></path>
                                <path d="M32.3880704,45.9882849 L22.8021783,48.3349929" id="Stroke-142" stroke="#2A3B4E" stroke-width="0.75" stroke-linecap="round" stroke-linejoin="round"></path>
                                <path d="M18.607819,49.3615481 L15.6121518,50.0952371" id="Stroke-144" stroke="#2A3B4E" stroke-width="0.75" stroke-linecap="round" stroke-linejoin="round"></path>
                                <path d="M47.6767241,58.9761647 L41.0008566,60.6105118" id="Stroke-146" stroke="#2A3B4E" stroke-width="0.75" stroke-linecap="round" stroke-linejoin="round"></path>
                                <path d="M38.0800204,61.3253101 L35.993622,61.8359674" id="Stroke-148" stroke="#2A3B4E" stroke-width="0.75" stroke-linecap="round" stroke-linejoin="round"></path>
                                <path d="M21.2385031,109.880532 C21.6272353,111.36741 21.4662759,112.995054 20.6481162,114.445369 C19.7898684,115.965763 18.3794996,116.999874 16.7960234,117.440453 L18.4007584,123.880951 C21.7669359,123.013199 24.780825,120.86332 26.5938961,117.64886 C28.3510869,114.535557 28.6505322,111.020675 27.7163602,107.854356 L21.2385031,109.880532 Z" id="Fill-150" fill="#F08080"></path>
                                <path d="M7.88767926,113.55702 L8.88076846,113.109129 C8.44465956,111.585079 8.59407849,109.900153 9.43714136,108.405354 C10.3178627,106.843522 11.7822896,105.80027 13.4173943,105.38041 L11.341929,99.0532562 C8.11423722,99.9758519 5.24308577,102.095262 3.49136147,105.201863 C1.71777098,108.345635 1.4322958,111.89647 2.39926705,115.087164 L7.88767926,113.55702 Z" id="Fill-152" fill="#F08080"></path>
                                <path d="M1.79059752,111.741384 C0.0340140642,109.560426 -0.322526216,106.477592 1.134612,103.893836 C2.5625953,101.361878 5.33656371,100.013938 8.10567297,100.231485" id="Stroke-154" stroke="#2A3B4E" stroke-width="0.75" stroke-linecap="round" stroke-linejoin="round"></path>
                                <path d="M28.2780782,111.137979 C30.035269,113.319546 30.3912019,116.402381 28.9340637,118.985527 C27.5060804,121.517485 24.7327194,122.865425 21.9636101,122.647878" id="Stroke-156" stroke="#2A3B4E" stroke-width="0.75" stroke-linecap="round" stroke-linejoin="round"></path>
                                <path d="M15.3430762,124.382955 C13.1115106,126.099568 9.95731359,126.448741 7.31332749,125.024628 C4.72279207,123.628547 3.34340029,120.917432 3.56631389,118.211192" id="Stroke-158" stroke="#2A3B4E" stroke-width="0.75" stroke-linecap="round" stroke-linejoin="round"></path>
                                <path d="M14.7255995,98.4964082 C16.9577724,96.7804047 20.1119695,96.4312321 22.7553482,97.8553444 C25.3458836,99.2514254 26.7258828,101.961931 26.5029692,104.668171" id="Stroke-160" stroke="#2A3B4E" stroke-width="0.75" stroke-linecap="round" stroke-linejoin="round"></path>
                                <path d="M20.6482984,114.445491 C18.9415212,117.471044 15.0481257,118.571578 11.9528458,116.903715 C8.85695861,115.235852 7.73024274,111.430907 9.43701988,108.405354 C11.1444044,105.3798 15.0371926,104.279267 18.1324724,105.94713 C21.2289671,107.614993 22.3550755,111.419938 20.6482984,114.445491 Z M21.4111853,100.136118 C15.0311186,96.6986264 7.00805127,98.9667248 3.49123999,105.201863 C-0.0255712875,111.437 2.2946738,119.277845 8.67474041,122.714727 C15.0541996,126.152218 23.077267,123.88412 26.5940783,117.648982 C30.111497,111.413844 27.7906445,103.573 21.4111853,100.136118 Z" id="Stroke-162" stroke="#2A3B4E" stroke-width="0.75" stroke-linecap="round" stroke-linejoin="round"></path>
                                <path d="M2.67915421,114.920378 L8.89400964,113.163546" id="Stroke-164" stroke="#2A3B4E" stroke-width="0.75" stroke-linecap="round" stroke-linejoin="round"></path>
                                <path d="M16.8212303,117.434664 L18.6191165,123.508317" id="Stroke-166" stroke="#2A3B4E" stroke-width="0.75" stroke-linecap="round" stroke-linejoin="round"></path>
                                <path d="M11.4668092,99.3425881 L13.264088,105.416241" id="Stroke-168" stroke="#2A3B4E" stroke-width="0.75" stroke-linecap="round" stroke-linejoin="round"></path>
                                <path d="M122.697597,20.1326335 C122.745582,21.3434641 122.614992,22.582326 122.285784,23.8144848 C121.298162,27.5121799 118.734959,30.3646701 115.513949,31.8375325 L105.428171,37.6796226 L106.837933,32.4042524 C100.537435,30.4761859 96.8469086,23.8711568 98.5652263,17.4385811 C100.319988,10.8664582 107.05295,6.96645022 113.603087,8.72693821 C114.135164,8.87014163 114.649627,9.04625136 115.144653,9.25222053" id="Stroke-170" stroke="#2A3B4E" stroke-width="0.75" stroke-linecap="round" stroke-linejoin="round"></path>
                                <path d="M103.62579,14.8660383 L109.665109,17.5320594" id="Stroke-172" stroke="#2A3B4E" stroke-width="0.75" stroke-linecap="round" stroke-linejoin="round"></path>
                                <path d="M101.129765,20.4403075 L104.423663,21.8948886" id="Stroke-174" stroke="#2A3B4E" stroke-width="0.75" stroke-linecap="round" stroke-linejoin="round"></path>
                                <path d="M102.256785,17.693605 L109.804263,21.0665026" id="Stroke-176" stroke="#2A3B4E" stroke-width="0.75" stroke-linecap="round" stroke-linejoin="round"></path>
                                <polyline id="Stroke-178" stroke="#2A3B4E" stroke-width="0.75" stroke-linecap="round" stroke-linejoin="round" points="83.437046 106.178449 91.0458707 108.732954 96.341739 101.925003"></polyline>
                                <path d="M121.578899,106.785449 C120.696356,104.483225 118.57898,103.243754 118.57898,103.243754 L110.81284,107.139496 L106.930378,101.826954 C106.930378,101.826954 111.872136,101.650235 116.990037,102.35833" id="Stroke-180" stroke="#2A3B4E" stroke-width="0.75" stroke-linecap="round" stroke-linejoin="round"></path>
                                <path d="M106.577361,104.660371 L108.871488,104.837699" id="Stroke-182" stroke="#2A3B4E" stroke-width="0.75" stroke-linecap="round" stroke-linejoin="round"></path>
                                <path d="M104.004257,72.9748778 C104.004257,72.9748778 108.096878,69.7031367 113.017377,72.2655638" id="Stroke-184" stroke="#2A3B4E" stroke-width="0.75" stroke-linecap="round" stroke-linejoin="round"></path>
                                <path d="M109.916813,93.4202431 C103.110356,99.3409428 95.9552542,94.9321056 95.9552542,94.9321056" id="Stroke-186" stroke="#2A3B4E" stroke-width="0.75" stroke-linecap="round" stroke-linejoin="round"></path>
                                <path d="M127.137405,78.5324501 C127.137405,78.5324501 128.643742,78.8487164 129.209833,80.5208448 C129.209833,80.5208448 130.727103,90.9612881 123.794915,91.3683514" id="Stroke-188" stroke="#2A3B4E" stroke-width="0.75" stroke-linecap="round" stroke-linejoin="round"></path>
                                <path d="M100.903815,120.874898 C100.903815,120.874898 100.379634,121.710353 101.767529,123.756638 C103.897052,126.896145 105.676109,127.352567 104.695168,130.524371 C103.863038,133.214767 100.308569,133.098985 98.5258671,131.891202 C102.568074,133.15322 104.788707,131.080122 100.317072,124.957109 C98.7323811,122.785292 99.7783136,121.177758 100.903815,120.874898" id="Fill-190" fill="#F08080"></path>
                            </g>
                            <g id="Group-196" transform="translate(98.397828, 121.089155)">
                                <mask id="mask-4" fill="white">
                                    <use xlink:href="#path-3"></use>
                                </mask>
                                <g id="Clip-194"></g>
                                <polygon id="Fill-193" fill="#F08080" mask="url(#mask-4)" points="-0.336496278 12.5178069 7.03969649 12.5178069 7.03969649 -0.248016134 -0.336496278 -0.248016134"></polygon>
                                <polygon id="Stroke-195" stroke="#2A3B4E" stroke-width="0.75" stroke-linecap="round" stroke-linejoin="round" mask="url(#mask-4)" points="-0.336496278 12.5178069 7.03969649 12.5178069 7.03969649 -0.248016134 -0.336496278 -0.248016134"></polygon>
                            </g>
                            <g id="Group-275" transform="translate(14.577456, 32.729598)">
                                <path d="M86.3263586,88.5779566 C86.3263586,88.5779566 85.8021775,89.4134115 87.1900728,91.4596969 C89.3195962,94.5992033 91.0986533,95.0556262 90.1177119,98.2274295 C89.2855822,100.917826 85.7311124,100.802044 83.9484111,99.5942605 C87.9906181,100.856279 90.2112506,98.7831807 85.739616,92.6601681 C84.154925,90.4883512 85.2008575,88.8808166 86.3263586,88.5779566" id="Stroke-197" stroke="#2A3B4E" stroke-width="0.75" stroke-linecap="round" stroke-linejoin="round"></path>
                                <path d="M83.666641,67.1015876 L83.666641,78.6035643 C83.666641,78.6035643 86.907088,79.5200662 89.1495866,78.6035643 L90.6449907,66.1850857" id="Stroke-199" stroke="#2A3B4E" stroke-width="0.75" stroke-linecap="round" stroke-linejoin="round"></path>
                                <path d="M112.576591,44.5987243 C112.576591,44.5987243 112.825623,42.5152669 110.333485,42.0984535 C110.333485,42.0984535 108.464534,41.546968 105.27693,40.9967012 C97.5958254,35.8474719 90.6174757,37.1813966 85.4115017,40.2928717 C81.0297614,40.9010292 73.2678734,42.2702976 68.5751474,44.003973 C68.5751474,44.003973 62.8850803,46.313509 61.6879068,47.468277 C61.6879068,47.468277 60.5496504,48.3189663 61.0884089,50.5072364 C61.6277748,52.6948971 63.6042348,60.4741943 63.6042348,60.4741943 C63.6042348,60.4741943 64.6823592,63.2700125 66.9582645,63.5734819 L67.3889069,63.6021226 C68.6182723,66.4174409 71.5647406,66.8409574 71.5647406,66.8409574 C87.2591943,68.2803041 106.458919,63.1408248 106.458919,63.1408248 C108.531954,62.4034795 109.10169,60.5156319 109.21831,59.0714102 L109.214058,59.0720196 C110.477437,58.5412528 111.527622,57.7356574 111.873836,56.5071549 C111.873836,56.5071549 112.678633,49.7613598 112.576591,44.5987243 Z" id="Stroke-201" stroke="#2A3B4E" stroke-width="0.75" stroke-linecap="round" stroke-linejoin="round"></path>
                                <path d="M74.2330225,37.9643232 C74.2330225,37.9643232 74.6776349,28.4330692 91.8128271,27.7980992 C108.948019,27.1637385 103.485118,20.0571927 103.485118,20.0571927 C103.485118,20.0571927 111.066002,27.1722698 97.5466265,33.6139861" id="Stroke-203" stroke="#2A3B4E" stroke-width="0.75" stroke-linecap="round" stroke-linejoin="round"></path>
                                <path d="M90.7887001,27.6810989 C90.7887001,27.6810989 100.053281,26.4489402 101.256528,23.1942616 L100.053281,26.4489402" id="Stroke-205" stroke="#2A3B4E" stroke-width="0.75" stroke-linecap="round" stroke-linejoin="round"></path>
                                <path d="M100.411461,28.5183819 C102.708018,27.1210822 104.590332,25.1503594 104.527163,22.4575257" id="Stroke-207" stroke="#2A3B4E" stroke-width="0.75" stroke-linecap="round" stroke-linejoin="round"></path>
                                <path d="M74.529613,35.4217617 C74.529613,35.4217617 68.2388333,37.2017497 69.0454525,43.8372477" id="Stroke-209" stroke="#2A3B4E" stroke-width="0.75" stroke-linecap="round" stroke-linejoin="round"></path>
                                <path d="M60.2813645,125.940338 C60.0973241,126.224917 59.9084246,126.493652 59.7140585,126.744105" id="Stroke-211" stroke="#2A3B4E" stroke-width="0.75" stroke-linecap="round" stroke-linejoin="round"></path>
                                <path d="M64.5876665,127.415577 C64.5876665,127.415577 63.9863464,130.355817 62.8717784,133.601355" id="Stroke-213" stroke="#2A3B4E" stroke-width="0.75" stroke-linecap="round" stroke-linejoin="round"></path>
                                <path d="M105.812166,125.675503 C105.670035,125.958254 105.515757,126.242223 105.348724,126.526192" id="Stroke-215" stroke="#2A3B4E" stroke-width="0.75" stroke-linecap="round" stroke-linejoin="round"></path>
                                <path d="M107.564376,118.969988 C107.564376,118.969988 107.564376,121.462337 106.377528,124.422077" id="Stroke-217" stroke="#2A3B4E" stroke-width="0.75" stroke-linecap="round" stroke-linejoin="round"></path>
                                <path d="M68.2984794,125.526145 C68.2984794,125.526145 66.9695013,130.693655 66.3044049,131.860611" id="Stroke-219" stroke="#2A3B4E" stroke-width="0.75" stroke-linecap="round" stroke-linejoin="round"></path>
                                <path d="M114.487149,119.692464 C114.487149,119.692464 114.652968,117.025224 114.154904,113.858296" id="Stroke-221" stroke="#2A3B4E" stroke-width="0.75" stroke-linecap="round" stroke-linejoin="round"></path>
                                <path d="M125.397707,91.6331863 C125.397707,91.6331863 125.729951,94.9670838 122.739143,99.6342965" id="Stroke-223" stroke="#2A3B4E" stroke-width="0.75" stroke-linecap="round" stroke-linejoin="round"></path>
                                <path d="M133.137789,99.3027349 C133.137789,99.3027349 133.90432,103.341681 132.466619,106.707266" id="Stroke-225" stroke="#2A3B4E" stroke-width="0.75" stroke-linecap="round" stroke-linejoin="round"></path>
                                <path d="M100.364631,32.1803066 C100.364631,32.1803066 106.423386,34.5897803 105.166081,40.5525269" id="Stroke-227" stroke="#2A3B4E" stroke-width="0.75" stroke-linecap="round" stroke-linejoin="round"></path>
                                <path d="M152.331197,12.904578 L157.850586,2.96687015 C152.379788,-0.0909798741 145.474326,1.87913354 142.425815,7.36778542 C139.377912,12.8558279 141.341617,19.7844359 146.812415,22.8422859 C152.283213,25.9001359 159.188675,23.9300225 162.237186,18.4413706 C163.374834,16.3932571 163.812766,14.1440493 163.63237,11.9704042 L152.331197,12.904578 Z" id="Stroke-229" stroke="#2A3B4E" stroke-width="0.75" stroke-linecap="round" stroke-linejoin="round"></path>
                                <path d="M166.989375,9.54618364 C166.686286,5.8960199 164.635724,2.45913785 161.206377,0.54264955 L155.688203,10.4803574 L166.989375,9.54618364 Z" id="Stroke-231" stroke="#2A3B4E" stroke-width="0.75" stroke-linecap="round" stroke-linejoin="round"></path>
                                <path d="M163.717465,65.7632145 L162.367836,70.6638183" id="Stroke-233" stroke="#2A3B4E" stroke-width="0.75" stroke-linecap="round" stroke-linejoin="round"></path>
                                <path d="M171.926213,59.8197242 L168.305538,72.9694543" id="Stroke-235" stroke="#2A3B4E" stroke-width="0.75" stroke-linecap="round" stroke-linejoin="round"></path>
                                <path d="M176.787127,66.033412 L174.411609,74.6609609" id="Stroke-237" stroke="#2A3B4E" stroke-width="0.75" stroke-linecap="round" stroke-linejoin="round"></path>
                                <path d="M185.240836,59.200537 L180.518348,76.3532597" id="Stroke-239" stroke="#2A3B4E" stroke-width="0.75" stroke-linecap="round" stroke-linejoin="round"></path>
                                <polyline id="Stroke-241" stroke="#2A3B4E" stroke-width="0.75" stroke-linecap="round" stroke-linejoin="round" points="163.395972 62.1575353 172.833052 53.3441266 177.581659 62.3525357 186.689532 52.3490152"></polyline>
                                <path d="M158.128772,70.1484688 L184.995631,77.5950466" id="Stroke-243" stroke="#2A3B4E" stroke-width="0.75" stroke-linecap="round" stroke-linejoin="round"></path>
                                <polyline id="Stroke-245" stroke="#2A3B4E" stroke-width="0.75" stroke-linecap="round" stroke-linejoin="round" points="183.403834 51.8505454 187.062775 51.9858269 187.062168 55.4190527"></polyline>
                                <path d="M94.5765913,151.1247 C94.5765913,152.008296 92.4349201,152.724923 89.7921488,152.724923 C87.1499848,152.724923 85.0083136,152.008296 85.0083136,151.1247 C85.0083136,150.241714 87.1499848,149.525088 89.7921488,149.525088 C92.4349201,149.525088 94.5765913,150.241714 94.5765913,151.1247 Z" id="Stroke-247" stroke="#2A3B4E" stroke-width="0.75" stroke-linecap="round" stroke-linejoin="round"></path>
                                <path d="M23.2344606,124.084239 C25.2364312,128.916592 22.9556667,134.461307 18.1390323,136.47042 C13.3230052,138.479534 7.79571981,136.190717 5.79314178,131.358972 C3.79056375,126.527228 6.07193563,120.981295 10.8885701,118.972181 C15.7052045,116.963677 21.2318825,119.252495 23.2344606,124.084239 M9.092506,114.638907 C1.89002792,117.642522 -1.52048941,125.934914 1.47335563,133.160898 C4.46780807,140.385663 12.7332257,143.80792 19.9350963,140.804304 C27.136967,137.800689 30.5480918,129.507687 27.5536393,122.282923 C24.5604017,115.057548 16.2943767,111.634682 9.092506,114.638907" id="Fill-249" fill="#EFEEEE"></path>
                                <path d="M23.2344606,124.084239 C25.2364312,128.916592 22.9556667,134.461307 18.1390323,136.47042 C13.3230052,138.479534 7.79571981,136.190717 5.79314178,131.358972 C3.79056375,126.527228 6.07193563,120.981295 10.8885701,118.972181 C15.7052045,116.963677 21.2318825,119.252495 23.2344606,124.084239 Z M9.092506,114.638907 C1.89002792,117.642522 -1.52048941,125.934914 1.47335563,133.160898 C4.46780807,140.385663 12.7332257,143.80792 19.9350963,140.804304 C27.136967,137.800689 30.5480918,129.507687 27.5536393,122.282923 C24.5604017,115.057548 16.2943767,111.634682 9.092506,114.638907 Z" id="Stroke-251" stroke="#2A3B4E" stroke-width="0.75" stroke-linecap="round" stroke-linejoin="round"></path>
                                <polyline id="Stroke-253" stroke="#2A3B4E" stroke-width="0.75" stroke-linecap="round" stroke-linejoin="round" points="12.0540377 121.785367 14.7411488 128.26974 18.8841832 126.541549"></polyline>
                                <polygon id="Fill-255" fill="#FFECC0" points="149.045742 117.188293 147.190153 112.806269 165.432625 105.030628 167.288213 109.412652"></polygon>
                                <path d="M150.06835,110.147134 L151.076017,112.526748" id="Stroke-257" stroke="#2A3B4E" stroke-width="0.75" stroke-linecap="round" stroke-linejoin="round"></path>
                                <path d="M161.526352,105.263775 L162.534019,107.643389" id="Stroke-259" stroke="#2A3B4E" stroke-width="0.75" stroke-linecap="round" stroke-linejoin="round"></path>
                                <polyline id="Stroke-261" stroke="#2A3B4E" stroke-width="0.75" stroke-linecap="round" stroke-linejoin="round" points="149.045742 117.188293 147.190153 112.806269 165.432625 105.030628 167.288213 109.412652"></polyline>
                                <polygon id="Fill-263" fill="#FEFEFE" points="172.171783 120.945098 153.929918 128.720739 149.160053 117.457638 167.401917 109.682606"></polygon>
                                <polygon id="Stroke-265" stroke="#2A3B4E" stroke-width="0.75" stroke-linecap="round" stroke-linejoin="round" points="172.171783 120.945098 153.929918 128.720739 149.160053 117.457638 167.401917 109.682606"></polygon>
                                <path d="M168.991225,113.433804 L150.748753,121.209445" id="Stroke-267" stroke="#2A3B4E" stroke-width="0.75" stroke-linecap="round" stroke-linejoin="round"></path>
                                <path d="M170.583872,117.195423 L152.341401,124.971064" id="Stroke-269" stroke="#2A3B4E" stroke-width="0.75" stroke-linecap="round" stroke-linejoin="round"></path>
                                <path d="M160.003737,126.131926 L155.233872,114.868825" id="Stroke-271" stroke="#2A3B4E" stroke-width="0.75" stroke-linecap="round" stroke-linejoin="round"></path>
                                <path d="M166.096628,123.534338 L161.32737,112.271846" id="Stroke-273" stroke="#2A3B4E" stroke-width="0.75" stroke-linecap="round" stroke-linejoin="round"></path>
                            </g>
                        </g>
                    </g>
                </g>
            </g>
        </g>
    </g>
</svg>