<?xml version="1.0" encoding="UTF-8"?>
<svg width="172px" height="154px" viewBox="0 0 172 154" version="1.1" xmlns="http://www.w3.org/2000/svg" xmlns:xlink="http://www.w3.org/1999/xlink">
    <!-- Generator: Sketch 53.2 (72643) - https://sketchapp.com -->
    <title>Group 37</title>
    <desc>Created with Sketch.</desc>
    <g id="Page-2" stroke="none" stroke-width="1" fill="none" fill-rule="evenodd">
        <g id="HOME-" transform="translate(-1001.000000, -1993.000000)">
            <g id="Group-37" transform="translate(1001.000000, 1993.000000)">
                <g id="Group-34">
                    <g id="Group-32" transform="translate(0.000000, 4.000000)" fill="#FAF7F1">
                        <path d="M99.5207255,0.556343304 C116.371752,-1.08267698 132.2043,0.899790765 147.018369,6.50374653 C198.596372,26.0149861 170.223787,184.583758 62.6733472,143.113604 C35.1691767,132.508328 16.4854838,120.227605 6.62226846,106.271437 C18.6266918,117.036972 31.6089678,119.945606 19.4561198,111.388677 C9.01159728,104.034595 2.52622401,89.9452281 -3.27515792e-14,69.1205747 C3.51533211,55.8192326 12.6489319,41.4507031 27.4007993,26.0149861 C42.5850487,17.3064201 57.1544102,10.7842608 71.1088839,6.44850833 C89.4445782,3.53994272 106.112781,3.89917637 121.113492,7.52620928 C143.287009,12.8875602 126.739582,5.55550081 99.5207255,0.556343304 Z" id="Combined-Shape-Copy-5"></path>
                    </g>
                    <g id="190308-Lower-TCO" transform="translate(17.000000, 0.000000)">
                        <g id="Group" transform="translate(44.720497, 0.715677)">
                            <g id="Layer1_0_MEMBER_0_FILL-link" fill-rule="nonzero">
                                <g id="Layer1_0_MEMBER_0_FILL">
                                    <path d="M50.6771537,2.51660095 L45.2977316,3.60712803 C44.1859931,3.91056195 42.9532089,4.21814651 41.5993789,4.52988172 L37.9850797,5.4526354 L32.3534972,6.87870928 C32.1853902,6.99055821 32.0733189,7.04648267 32.0172833,7.04648267 C31.3448555,7.04648267 30.7004456,6.99055821 30.0840535,6.87870928 C29.0754118,6.82278481 28.1228058,6.59908695 27.2262355,6.20761569 C26.833986,6.03984229 26.5257899,5.87206889 26.3016473,5.7042955 L27.2262355,6.03984229 C28.0667702,6.31946462 29.0193762,6.45927578 30.0840535,6.45927578 C30.5323386,6.45927578 31.1207129,6.40335132 31.8491763,6.29150239 L32.2694437,6.03984229 L33.8664596,5.4526354 L37.9850797,5.4526354 C35.071226,4.72561735 31.5689981,3.63509027 27.4783959,2.18105416 C22.6032946,0.39147126 19.9696192,-0.139811164 19.5773697,0.587206889 C18.736835,2.041243 19.3532271,5.17301307 21.426546,9.98251712 C22.7714016,13.1142872 24.6766136,16.7493775 27.142182,20.8877879 L43.3645018,20.8877879 C43.7007156,20.6640901 45.1576425,18.371187 47.7352822,14.0090786 C48.5889503,12.5179052 49.3174137,10.8681335 49.9206724,9.05976344 L50.6771537,2.51660095 L50.6771537,2.51660095 Z M28.9913584,23.9915958 C28.7111801,24.2152936 28.4870375,24.4110293 28.3189306,24.5788027 C25.405077,27.8783461 22.2390629,31.9328699 18.8208885,36.7423739 C11.6483257,46.8647022 6.80124224,56.204088 4.27963813,64.7605312 C1.47785579,74.3795393 0.21705374,82.15304 0.497231974,88.0810334 C0.665338914,91.268728 1.28173103,93.7014422 2.34640832,95.3791762 C1.7300162,94.2606869 1.25371321,92.8625752 0.917499325,91.1848413 C5.06413719,92.1914816 9.21077505,92.6948018 13.3574129,92.6948018 C19.689441,92.6948018 25.7412908,91.5763125 31.5129625,89.3393339 C37.1165271,87.1582797 42.0756819,84.0265096 46.3904267,79.9440237 C50.7051715,75.9733866 54.0392925,71.3875804 56.3927896,66.1866051 C58.8583581,60.8178564 60.0911423,55.2254098 60.0911423,49.4092654 C60.0911423,45.3267794 59.502768,41.3841046 58.3260194,37.5812409 C58.4380907,37.7490143 58.5781799,37.9167877 58.7462868,38.0845611 C58.4100729,37.5812409 58.073859,37.1338452 57.7376452,36.7423739 C55.4401836,33.4987549 53.0866865,30.4229093 50.6771537,27.5148371 L48.9120308,26.8437435 L48.5758169,26.7598568 C48.5758169,26.8157813 48.5758169,26.899668 48.5758169,27.0115169 L48.5758169,28.102044 C48.5197813,28.3257419 48.4357278,28.6053642 48.3236565,28.940911 L48.3236565,29.2764578 C48.2676208,29.7238535 48.1835674,30.2271737 48.0714961,30.7864183 C48.0714961,31.7371343 48.2115852,32.548039 48.4917634,33.2191326 C48.715906,33.6106039 49.0801377,34.0859618 49.5844585,34.6452065 C49.8086011,34.9248288 50.2008507,35.3442623 50.7612071,35.903507 C52.6552558,37.9049911 53.2716479,40.2258565 52.6103835,42.8661029 C52.5808334,42.7459527 52.020477,42.4383681 50.9293141,41.9433492 C49.6965298,41.3841046 49.0801377,41.0205956 49.0801377,40.8528222 C49.5844585,38.8954659 49.4163516,37.1618074 48.5758169,35.6518469 C48.3516743,35.1485267 47.8753713,34.5333575 47.1469079,33.8063395 C46.3063732,32.911548 45.7740346,32.2963789 45.549892,31.9608321 C45.1576425,31.4015875 44.8774642,30.7584561 44.7093573,30.0314381 C44.3171078,29.8077402 44.0369295,29.2484955 43.8688226,28.3537041 C43.5326087,26.899668 43.3084661,25.8650654 43.1963948,25.2498962 L42.9442344,24.5788027 L42.5239671,27.263177 C42.0756819,29.2764578 41.6554145,30.6745694 41.263165,31.4575119 C41.5993789,29.1086844 41.6554145,27.4589126 41.4312719,26.5081967 C41.4312719,26.3404233 41.3752363,26.2285744 41.263165,26.1726499 C41.0390224,25.6693297 40.7308264,25.221934 40.3385768,24.8304628 L39.4139887,24.1593692 C39.1338104,24.7745383 38.9096678,25.3617452 38.7415609,25.9209898 C38.0691331,25.0261984 37.6488658,24.5228782 37.4807588,24.4110293 C37.4247232,24.2432559 36.1359033,24.1034447 33.6142992,23.9915958 L28.9913584,23.9915958 Z" id="Shape" fill="#C6E8EF"></path>
                                    <path d="M52.6944369,2.43271426 C52.0178503,2.22561897 51.3454225,2.2535812 50.6771537,2.51660095 L49.9206724,9.05976344 C49.3174137,10.8681335 48.5889503,12.5179052 47.7352822,14.0090786 C45.1576425,18.371187 43.7007156,20.6640901 43.3645018,20.8877879 L48.7439238,20.8877879 C50.261483,16.5326702 51.3821959,13.6245979 52.1060627,12.1635713 C52.824676,10.7523523 53.469086,9.4381274 54.0392925,8.22089645 C54.6108123,7.05696851 54.6948658,5.8545925 54.2914529,4.61376842 C53.9460456,3.37141515 53.413707,2.6443971 52.6944369,2.43271426 L52.6944369,2.43271426 Z M26.3016473,5.7042955 C26.5257899,5.87206889 26.833986,6.03984229 27.2262355,6.20761569 C28.1228058,6.59908695 29.0754118,6.82278481 30.0840535,6.87870928 C30.7004456,6.99055821 31.3448555,7.04648267 32.0172833,7.04648267 C32.0733189,7.04648267 32.1853902,6.99055821 32.3534972,6.87870928 L37.9850797,5.4526354 L33.8664596,5.4526354 L32.2694437,6.03984229 L31.8491763,6.29150239 C31.1207129,6.40335132 30.5323386,6.45927578 30.0840535,6.45927578 C29.0193762,6.45927578 28.0667702,6.31946462 27.2262355,6.03984229 L26.3016473,5.7042955 L26.3016473,5.7042955 Z M0.917499325,91.1848413 C1.25371321,92.8625752 1.7300162,94.2606869 2.34640832,95.3791762 C3.07487173,96.441741 3.94342425,97.2526458 4.95206589,97.8118904 C7.3615987,98.9863042 11.8164326,100.020907 18.3165676,100.915698 C24.8167027,101.698641 31.4569268,102.090112 38.2372401,102.090112 C45.073589,102.090112 51.7418309,101.698641 58.241966,100.915698 C64.742101,100.020907 69.1969349,98.9863042 71.6064677,97.8118904 C74.2401431,96.5256277 75.7250878,93.2820087 76.0613016,88.0810334 C76.3975155,82.15304 75.1367135,74.3795393 72.2788955,64.7605312 C69.813327,56.6514837 65.3024575,47.7594937 58.7462868,38.0845611 C58.5781799,37.9167877 58.4380907,37.7490143 58.3260194,37.5812409 C59.502768,41.3841046 60.0911423,45.3267794 60.0911423,49.4092654 C60.0911423,55.2254098 58.8583581,60.8178564 56.3927896,66.1866051 C54.0392925,71.3875804 50.7051715,75.9733866 46.3904267,79.9440237 C42.0756819,84.0265096 37.1165271,87.1582797 31.5129625,89.3393339 C25.7412908,91.5763125 19.689441,92.6948018 13.3574129,92.6948018 C9.21077505,92.6948018 5.06413719,92.1914816 0.917499325,91.1848413 L0.917499325,91.1848413 Z M44.7093573,24.5788027 C44.597286,24.2991803 44.5132325,24.0475202 44.4571969,23.8238224 L33.6142992,23.9915958 C36.1359033,24.1034447 37.4247232,24.2432559 37.4807588,24.4110293 C37.6488658,24.5228782 38.0691331,25.0261984 38.7415609,25.9209898 C38.9096678,25.3617452 39.1338104,24.7745383 39.4139887,24.1593692 L40.3385768,24.8304628 C40.7308264,25.221934 41.0390224,25.6693297 41.263165,26.1726499 C41.3752363,26.2285744 41.4312719,26.3404233 41.4312719,26.5081967 C41.6554145,27.4589126 41.5993789,29.1086844 41.263165,31.4575119 C41.6554145,30.6745694 42.0756819,29.2764578 42.5239671,27.263177 L42.9442344,24.5788027 L43.1963948,25.2498962 C43.3084661,25.8650654 43.5326087,26.899668 43.8688226,28.3537041 C44.0369295,29.2484955 44.3171078,29.8077402 44.7093573,30.0314381 C44.7093573,29.6958913 44.6533216,29.3603445 44.5412503,29.0247977 C44.5412503,28.6333264 44.597286,27.7944594 44.7093573,26.5081967 L44.7093573,26.42431 C44.7653929,25.8091409 44.7653929,25.1939718 44.7093573,24.5788027 Z" id="Shape" fill="#B4E3ED"></path>
                                    <path d="M44.7093573,26.5081967 C44.597286,27.7944594 44.5412503,28.6333264 44.5412503,29.0247977 C44.6533216,29.3603445 44.7093573,29.6958913 44.7093573,30.0314381 C44.8774642,30.7584561 45.1576425,31.4015875 45.549892,31.9608321 C45.7740346,32.2963789 46.3063732,32.911548 47.1469079,33.8063395 C47.8753713,34.5333575 48.3516743,35.1485267 48.5758169,35.6518469 C49.4163516,37.1618074 49.5844585,38.8954659 49.0801377,40.8528222 C49.0801377,41.0205956 49.6965298,41.3841046 50.9293141,41.9433492 C52.020477,42.4383681 52.5808334,42.7459527 52.6103835,42.8661029 C53.2716479,40.2258565 52.6552558,37.9049911 50.7612071,35.903507 C50.2008507,35.3442623 49.8086011,34.9248288 49.5844585,34.6452065 C49.0801377,34.0859618 48.715906,33.6106039 48.4917634,33.2191326 C48.2115852,32.548039 48.0714961,31.7371343 48.0714961,30.7864183 C48.1835674,30.2271737 48.2676208,29.7238535 48.3236565,29.2764578 L48.3236565,28.940911 C48.4357278,28.6053642 48.5197813,28.3257419 48.5758169,28.102044 L48.5758169,27.0115169 C48.5758169,26.899668 48.5758169,26.8157813 48.5758169,26.7598568 L48.9120308,26.8437435 L49.3322981,27.0115169 C50.4370322,27.3470637 51.0814421,27.5148371 51.265528,27.5148371 C51.4336349,27.5707616 51.6857953,27.5987238 52.0220092,27.5987238 C52.3582231,27.6546483 52.6384013,27.738535 52.8625439,27.8503839 L54.2073994,28.3537041 C55.1039698,28.9129487 55.8044153,29.7238535 56.3087362,30.7864183 C56.3087362,30.9541917 56.5889144,32.1286055 57.1492709,34.3096597 C57.5415204,35.7077713 58.073859,36.7703362 58.7462868,37.4973542 C59.6428571,38.2802967 60.8196057,38.8395414 62.2765325,39.1750882 C63.1731029,39.3428616 64.5179584,39.4267483 66.3110991,39.4267483 C66.479206,39.4267483 66.7874021,39.0912015 67.2356873,38.4201079 C67.6248724,37.8097448 68.157211,37.0827267 68.8327032,36.2390537 C66.9303368,36.1693666 65.6134991,36.0854799 64.8821901,35.9873937 C64.2042901,35.8941134 63.1676307,35.6704155 61.7722117,35.3163001 C60.4326095,35.0202936 59.5080214,33.8738421 58.9984472,31.8769454 C58.4917186,29.9294196 58.0994691,28.6151947 57.8216986,27.9342706 C57.5947105,27.3121109 56.8662471,26.724904 55.6363084,26.1726499 C54.907845,25.7252542 53.7310964,25.3058207 52.1060627,24.9143495 C51.4896705,24.7465761 50.9293141,24.5788027 50.4249932,24.4110293 L47.8193357,23.3205022 L47.9874426,22.9849554 L44.7093573,24.5788027 C44.7653929,25.1939718 44.7653929,25.8091409 44.7093573,26.42431 L44.7093573,26.5081967 Z" id="Path" fill="#E3CC60"></path>
                                    <path d="M44.4571969,23.8238224 C44.5132325,24.0475202 44.597286,24.2991803 44.7093573,24.5788027 L47.9874426,22.9849554 L48.7439238,20.8877879 L43.3645018,20.8877879 L27.142182,20.8877879 C27.0301107,20.8877879 27.1141642,21.2233347 27.3943424,21.8944283 L27.7305563,23.4882756 C27.8986632,24.0475202 28.0107345,24.3551048 28.0667702,24.4110293 C28.1788415,24.5788027 28.262895,24.6347271 28.3189306,24.5788027 C28.4870375,24.4110293 28.7111801,24.2152936 28.9913584,23.9915958 L33.6142992,23.9915958 L44.4571969,23.8238224 Z" id="Path" fill="#E7D477"></path>
                                </g>
                            </g>
                            <g id="Layer1_0_MEMBER_0_1_STROKES-link" stroke="#2A3A4E" stroke-linecap="round" stroke-linejoin="round" stroke-width="0.75">
                                <path d="M50.6771537,2.51660095 C51.3454225,2.2535812 52.0318592,2.22561897 52.7364637,2.43271426 C53.4277159,2.6443971 53.9600546,3.37141515 54.3334796,4.61376842 C54.7088747,5.8545925 54.6108123,7.07094963 54.0392925,8.2628398 C53.469086,9.45210852 52.824676,10.7663335 52.1060627,12.2055146 C51.3821959,13.6385791 50.261483,16.5326702 48.7439238,20.8877879 L47.9874426,22.9849554 L47.8193357,23.3205022 L50.4249932,24.4110293 C50.9293141,24.5788027 51.4896705,24.7465761 52.1060627,24.9143495 C53.7310964,25.3058207 54.907845,25.7252542 55.6363084,26.1726499 C56.8662471,26.724904 57.6087194,27.326092 57.8637254,27.9762139 C58.113478,28.6291758 58.4917186,29.9434007 58.9984472,31.9188888 C59.5080214,33.8878232 60.4466185,35.0342747 61.8142385,35.3582434 C63.1816396,35.6843966 64.218299,35.8941134 64.9242169,35.9873937 C65.627508,36.0854799 66.9303368,36.1693666 68.8327032,36.2390537 C68.157211,37.0827267 67.6248724,37.8097448 67.2356873,38.4201079 C66.7874021,39.0912015 66.479206,39.4267483 66.3110991,39.4267483 C64.5179584,39.4267483 63.1731029,39.3428616 62.2765325,39.1750882 C60.8196057,38.8395414 59.6428571,38.2802967 58.7462868,37.4973542 C58.073859,36.7703362 57.5415204,35.7077713 57.1492709,34.3096597 C56.5889144,32.1286055 56.3087362,30.9541917 56.3087362,30.7864183 C55.8044153,29.7238535 55.1039698,28.9129487 54.2073994,28.3537041 L52.8625439,27.8503839 C52.6384013,27.738535 52.3582231,27.6546483 52.0220092,27.5987238 C51.6857953,27.5987238 51.4336349,27.5707616 51.265528,27.5148371 C51.0814421,27.5148371 50.4370322,27.3470637 49.3322981,27.0115169 M48.9540575,26.8856869 L50.6771537,27.5148371 C53.0866865,30.4229093 55.4401836,33.4987549 57.7376452,36.7423739 C58.073859,37.1338452 58.4100729,37.5812409 58.7462868,38.0845611 C65.3024575,47.7594937 69.813327,56.6514837 72.2788955,64.7605312 C75.1367135,74.3795393 76.3975155,82.15304 76.0613016,88.0810334 C75.7250878,93.2820087 74.2401431,96.5256277 71.6064677,97.8118904 C69.1969349,98.9863042 64.742101,100.020907 58.241966,100.915698 C51.7418309,101.698641 45.073589,102.090112 38.2372401,102.090112 C31.4569268,102.090112 24.8167027,101.698641 18.3165676,100.915698 C11.8164326,100.020907 7.3615987,98.9863042 4.95206589,97.8118904 C3.94342425,97.2526458 3.07487173,96.441741 2.34640832,95.3791762 C1.28173103,93.7014422 0.665338914,91.268728 0.497231974,88.0810334 C0.21705374,82.15304 1.47785579,74.3795393 4.27963813,64.7605312 C6.80124224,56.204088 11.6483257,46.8647022 18.8208885,36.7423739 C22.2390629,31.9328699 25.405077,27.8783461 28.3189306,24.5788027 C28.262895,24.6347271 28.1788415,24.5788027 28.0667702,24.4110293 C28.0107345,24.3551048 27.8986632,24.0475202 27.7305563,23.4882756 L27.3943424,21.8944283 C27.1141642,21.2233347 27.0301107,20.8877879 27.142182,20.8877879 C24.6766136,16.7493775 22.7714016,13.1142872 21.426546,9.98251712 C19.3532271,5.17301307 18.736835,2.041243 19.5773697,0.587206889 C19.9696192,-0.139811164 22.6032946,0.39147126 27.4783959,2.18105416 C31.5689981,3.63509027 35.071226,4.72561735 37.9850797,5.4526354 L41.5993789,4.52988172 C42.9532089,4.21814651 44.1859931,3.91056195 45.2977316,3.60712803 L50.6771537,2.51660095 M37.9850797,5.4526354 L32.3534972,6.87870928 M0.917499325,91.1848413 C1.25371321,92.8625752 1.7300162,94.2606869 2.34640832,95.3791762 M48.5758169,26.7598568 L48.9540575,26.8856869 M58.7462868,38.0845611 C58.5781799,37.9167877 58.4380907,37.7490143 58.3260194,37.5812409" id="Layer1_0_MEMBER_0_1_STROKES"></path>
                            </g>
                        </g>
                        <g id="Group" transform="translate(73.602484, 44.443525)" fill="#495D74" fill-rule="nonzero">
                            <g id="Layer1_0_MEMBER_0_MEMBER_0_FILL-link">
                                <g id="Layer1_0_MEMBER_0_MEMBER_0_FILL">
                                    <path d="M11.7032967,3.63693901 L11.7032967,0.084579977 L8.98351648,0.084579977 L8.98351648,3.63693901 C6.4010989,3.91887227 4.36813187,4.68009206 2.88461538,5.92059839 C1.45604396,7.16110472 0.741758242,8.76812428 0.741758242,10.7416571 C0.741758242,12.6024166 1.23626374,14.1530495 2.22527473,15.3935558 C3.26923077,16.6340621 4.91758242,17.7054085 7.17032967,18.6075949 L8.98351648,19.1996548 L8.98351648,27.1501726 C7.71978022,27.1501726 6.29120879,26.9528193 4.6978022,26.5581128 C3.04945055,26.1634062 1.64835165,25.627733 0.494505495,24.9510932 L0.494505495,29.518412 C2.69230769,30.476985 5.52197802,31.0126582 8.98351648,31.1254315 L8.98351648,35.6081703 L11.7032967,35.6081703 L11.7032967,30.9562716 C14.3956044,30.6179517 16.4835165,29.8003452 17.967033,28.5034522 C19.4505495,27.2065593 20.1923077,25.543153 20.1923077,23.5132336 C20.1923077,21.7652474 19.6703297,20.3273878 18.6263736,19.1996548 C17.6923077,18.0719217 15.9065934,17.0005754 13.2692308,15.9856157 L11.7032967,15.3935558 L11.7032967,7.69677791 C13.7912088,7.80955121 15.9065934,8.31703107 18.0494505,9.21921749 L19.6153846,5.32853855 C17.1428571,4.25719217 14.5054945,3.69332566 11.7032967,3.63693901 L11.7032967,3.63693901 Z M5.52197802,10.7416571 C5.52197802,9.89585731 5.7967033,9.24741082 6.34615385,8.79631761 C6.95054945,8.28883774 7.82967033,7.95051784 8.98351648,7.78135788 L8.98351648,14.2940161 C7.60989011,13.7865362 6.67582418,13.2508631 6.18131868,12.6869965 C5.74175824,12.1795167 5.52197802,11.5310702 5.52197802,10.7416571 L5.52197802,10.7416571 Z M11.7032967,20.2146145 C12.967033,20.6657077 13.9010989,21.1731876 14.5054945,21.7370541 C15.0549451,22.2445339 15.3296703,22.9211738 15.3296703,23.7669735 C15.3296703,25.5713464 14.1208791,26.6144994 11.7032967,26.8964327 L11.7032967,20.2146145 Z" id="Shape"></path>
                                </g>
                            </g>
                        </g>
                        <g id="Group" transform="translate(0.000000, 66.772639)" fill="#FCDFDD" fill-rule="nonzero">
                            <g id="Layer1_0_MEMBER_1_FILL-link">
                                <g id="Layer1_0_MEMBER_1_FILL">
                                    <path d="M111.34472,60.0928402 L143.208075,22.9202927 L148.826087,15.0857199 L148.826087,4.00063291 L145.47205,0.083346519 L119.729814,26.7542326 L106.313665,32.3384494 L109.080745,22.3368671 L35.878882,23.4203718 L0.0745341615,56.7589794 L8.20807453,62.7599288 C14.189441,66.48274 18.5776398,67.6495912 21.3726708,66.2604826 C24.1677019,64.8713739 26.0403727,66.6772152 26.9906832,71.6780063 C27.4378882,74.1784019 27.6055901,76.8177083 27.4937888,79.5959256 L45.9409938,59.5927611 L111.34472,60.0928402 Z" id="Path"></path>
                                </g>
                            </g>
                        </g>
                        <g id="Group" transform="translate(57.763975, 101.196689)" stroke="#2A3B4E" stroke-linecap="round" stroke-linejoin="round" stroke-width="0.75">
                            <g id="Layer1_0_MEMBER_2_1_STROKES-link">
                                <path d="M3.26086957,1.76772152 L0.279503106,1.76772152" id="Layer1_0_MEMBER_2_1_STROKES"></path>
                            </g>
                        </g>
                        <g id="Group" transform="translate(0.000000, 89.101753)" stroke="#2A3B4E" stroke-linecap="round" stroke-linejoin="round" stroke-width="0.75">
                            <g id="Layer1_0_MEMBER_3_1_STROKES-link">
                                <path d="M0.664172784,34.4240506 L36.1928289,0.163924051 L109.013975,0.163924051 L109.097967,2.35253165 C109.041973,4.09219409 108.706004,5.69156118 108.090062,7.15063291 C105.962262,11.8084388 101.20271,14.1373418 93.811406,14.1373418 L64.0782044,14.1373418" id="Layer1_0_MEMBER_3_1_STROKES"></path>
                            </g>
                        </g>
                        <g id="Group" transform="translate(27.018634, 66.772639)" stroke="#2A3B4E" stroke-linecap="round" stroke-linejoin="round" stroke-width="0.75">
                            <g id="Layer1_0_MEMBER_4_1_STROKES-link">
                                <path d="M0.926571939,79.3458861 L19.3737769,59.259375 L83.5599421,59.259375 L119.864715,17.4194225 C122.840977,11.8074235 123.514847,7.25114715 121.886327,3.75059335 C121.380924,2.63930643 120.650898,1.72249473 119.696248,1.00015823 L118.516974,0.166693038 L91.8148558,26.504193 L79.6851868,32.1717563" id="Layer1_0_MEMBER_4_1_STROKES"></path>
                            </g>
                        </g>
                    </g>
                </g>
            </g>
        </g>
    </g>
</svg>