<?xml version="1.0" encoding="UTF-8"?>
<svg width="214px" height="187px" viewBox="0 0 214 187" version="1.1" xmlns="http://www.w3.org/2000/svg" xmlns:xlink="http://www.w3.org/1999/xlink">
    <!-- Generator: Sketch 53.2 (72643) - https://sketchapp.com -->
    <title>Group 18</title>
    <desc>Created with Sketch.</desc>
    <g id="Page-2" stroke="none" stroke-width="1" fill="none" fill-rule="evenodd">
        <g id="HOME-" transform="translate(-110.000000, -1346.000000)">
            <g id="Group-18" transform="translate(110.000000, 1346.000000)">
                <g id="Group-16">
                    <g id="sol_1-copy" transform="translate(0.000000, 0.000000)" fill="#FAF7F1">
                        <path d="M123.822298,0.692194576 C144.78811,-1.34705159 164.486745,1.11950711 182.918203,8.09187069 C247.090835,32.3674828 211.790061,229.656536 77.9773041,178.05995 C43.7569989,164.865012 20.5110089,149.585509 8.23933401,132.221439 C23.17507,145.615767 39.3274367,149.234649 24.2070328,138.588238 C11.2121036,129.438392 3.14309266,111.908598 9.23983112e-13,85.9988546 C4.37372717,69.4495103 15.7376245,51.5723864 34.0916921,32.3674828 C52.9837234,21.5324064 71.1107197,13.4176268 88.4726811,8.02314409 C111.285696,4.40434734 132.024041,4.85130083 150.687717,9.36400457 C178.275697,16.0345226 157.687619,6.91207659 123.822298,0.692194576 Z" id="Combined-Shape"></path>
                    </g>
                    <g id="fea_3" transform="translate(15.000000, 1.000000)">
                        <g id="Page-1">
                            <path d="M124.553684,120.884985 L169.430181,146.468792 C169.430181,146.468792 180.320839,153.490933 168.327484,160.152142 L129.883997,182.2409 C129.883997,182.2409 121.420855,186.97956 112.496431,182.546815 C103.571398,178.113466 14.7841776,125.984577 14.7841776,125.984577 C14.7841776,125.984577 6.475,120.022257 14.7841776,112.990443 L55.5614638,89.6012435 C55.5614638,89.6012435 63.5627138,85.9326814 69.4109046,89.4482859 L103.700411,108.997224" id="Fill-1" fill="#DFDDDD"></path>
                            <path d="M124.460393,99.3316389 L124.460393,111.624466 C124.460393,111.624466 122.228831,104.570887 122.026183,106.586541 C121.822926,108.60159 119.591972,106.183289 119.591972,106.183289 L119.591972,122.305495 L116.549209,110.012064 C116.549209,110.012064 113.911742,106.384613 113.911742,106.989188 C113.911742,107.593763 112.694637,114.042766 112.694637,114.042766 C112.694637,114.042766 107.826215,108.198338 107.217663,112.833616 C106.60911,117.468894 103.972252,112.430364 103.972252,112.430364 L103.972252,100.742113 L124.460393,99.3316389 Z" id="Fill-3" fill="#FEFEFE"></path>
                            <path d="M82.0643569,58.8248007 L82.0643569,81.1940817 L85.1071201,72.3267778 C85.1071201,72.3267778 86.932778,66.8856013 86.932778,71.1176275 C86.932778,75.3496536 87.5413306,60.6385261 87.5413306,62.2509281 C87.5413306,63.8627255 89.9755411,53.3836242 92.6123997,59.0261242 L93.0183043,52.9803725 L84.2959194,58.018902 L82.0643569,58.8248007 Z" id="Fill-5" fill="#FEFEFE"></path>
                            <path d="M78.4712796,7.72526144 L78.4712796,20.0313889 C78.4712796,20.0313889 73.8487138,17.0085131 73.8487138,18.519951 C73.8487138,20.0313889 70.8059507,13.3810621 70.197398,15.7993627 L78.4712796,7.72526144 Z" id="Fill-7" fill="#FEFEFE"></path>
                            <path d="M152.081745,106.484428 L152.081745,120.088578 C152.081745,120.088578 147.787798,109.206225 147.787798,117.065703 C147.787798,124.92518 142.310824,113.438252 142.310824,114.94969 C142.310824,116.461127 141.702271,111.624526 141.702271,111.624526" id="Fill-9" fill="#FEFEFE"></path>
                            <path d="M122.178868,27.0624771 L122.178868,56.9103529 C122.178868,56.9103529 118.577454,40.5868235 118.577454,49.3531634 C118.577454,58.1195033 114.317586,31.5181961 114.621862,42.400549 C114.926138,53.282902 111.77201,32.2303856 111.77201,32.2303856 L111.77201,37.4817255" id="Fill-11" fill="#FEFEFE"></path>
                            <path d="M0.228268092,138.629025 L184.822363,138.629025" id="Stroke-13" stroke="#2A3B4E" stroke-width="0.75" stroke-linecap="round" stroke-linejoin="round"></path>
                            <path d="M123.192778,97.3325507 L123.220771,97.2938578 C121.422498,96.261848 119.667433,95.2552304 118.099801,94.3574363 C117.968354,94.2969788 117.827169,94.2232206 117.66712,94.1228611 C115.400262,92.7015049 113.306232,93.108384 112.254653,93.4777794 L105.034176,97.6197239 C103.80064,98.6051814 102.526331,100.403188 105.791215,102.393449 L110.500804,105.091064 C111.618107,105.58077 113.463238,106.041456 115.531709,105.185377 L123.484275,100.623858 C125.972646,98.964299 123.192778,97.3325507 123.192778,97.3325507" id="Fill-15" fill="#FCDFDD"></path>
                            <path d="M76.338972,34.0773627 L76.3669655,34.0386699 C74.569301,33.0066601 72.8142352,32.0006471 71.2459951,31.1022484 C71.1145477,31.0417908 70.9733635,30.9680327 70.8139227,30.8682778 C68.5470641,29.4457124 66.452426,29.8531961 65.4014556,30.2225915 L58.1809786,34.3645359 C56.9468339,35.350598 55.6731332,37.1486046 58.9374095,39.138866 L63.6469984,41.8358758 C64.7649095,42.3255817 66.6094326,42.7868725 68.677903,41.9307941 L76.6304688,37.3692745 C79.1188405,35.7091111 76.338972,34.0773627 76.338972,34.0773627" id="Fill-17" fill="#FCDFDD"></path>
                            <path d="M92.2153799,50.207549 L92.2433734,50.1688562 C90.4457089,49.1368464 88.6906431,48.1308333 87.122403,47.2324346 C86.9909556,47.1719771 86.8497714,47.098219 86.6903306,46.9984641 C84.423472,45.5758987 82.3288339,45.9833824 81.2778635,46.3527778 L74.0573865,50.4947222 C72.8238503,51.4807843 71.5495411,53.2787908 74.8138174,55.2684477 L79.5234063,57.9660621 C80.6413174,58.455768 82.486449,58.9170588 84.5549194,58.0603758 L92.5074852,53.4988562 C94.9952484,51.8392974 92.2153799,50.207549 92.2153799,50.207549" id="Fill-19" fill="#FFECC0"></path>
                            <path d="M78.1794786,4.43371242 L78.207472,4.39501961 C76.409199,3.3630098 74.6541332,2.35699673 73.0865016,1.45859804 C72.9550543,1.39814052 72.8138701,1.32438235 72.6544293,1.22462745 C70.3875707,-0.197937908 68.2929326,0.209545752 67.2419622,0.578941176 L60.0214852,4.72088562 C58.7873405,5.70694771 57.5130313,7.50495425 60.7779161,9.49461111 L65.4875049,12.1922255 C66.6048076,12.6819314 68.4499391,13.1432222 70.5184095,12.2865392 L78.4709753,7.72501961 C80.959347,6.06546078 78.1794786,4.43371242 78.1794786,4.43371242" id="Fill-21" fill="#FFECC0"></path>
                            <path d="M64.1435164,70.214634 L64.1715099,70.1759412 C62.3732368,69.1439314 60.6181711,68.1379183 59.0505395,67.2401242 C58.9184836,67.1790621 58.7772993,67.1053039 58.6178586,67.005549 C56.351,65.5835882 54.2569704,65.9904673 53.2053914,66.3598627 L45.9849145,70.5018072 C44.7513783,71.4878693 43.4770691,73.2858758 46.7419539,75.2761373 L51.4515428,77.9731471 C52.5688454,78.4628529 54.413977,78.9241438 56.4824474,78.0680654 L64.4350132,73.5065458 C66.9233849,71.8463824 64.1435164,70.214634 64.1435164,70.214634" id="Fill-23" fill="#C6E8EF"></path>
                            <path d="M151.789944,103.192879 L151.817937,103.154186 C150.020273,102.122176 148.265207,101.116163 146.696967,100.217765 C146.56552,100.157307 146.424336,100.083549 146.264895,99.9837941 C143.998036,98.5618333 141.903398,98.9687124 140.852428,99.3381078 L133.631951,103.480052 C132.398414,104.466114 131.124105,106.264121 134.388382,108.253778 L139.09797,110.951392 C140.215882,111.441098 142.061013,111.902389 144.128875,111.045706 L152.081441,106.484186 C154.569812,104.824627 151.789944,103.192879 151.789944,103.192879" id="Fill-25" fill="#C6E8EF"></path>
                            <path d="M106.777253,80.1543938 L106.804638,80.115701 C105.006974,79.0836912 103.251908,78.0776781 101.683668,77.179884 C101.55222,77.1188219 101.411036,77.0450637 101.251595,76.9453088 C98.9847368,75.523348 96.8900987,75.9302271 95.8391283,76.3002271 L88.6186513,80.441567 C87.3851151,81.4276291 86.1108059,83.2256356 89.3750822,85.2158971 L94.0852796,87.9129069 C95.2025822,88.4026127 97.0477138,88.8639036 99.1161842,88.0078252 L107.06875,83.4463056 C109.556513,81.7867467 106.777253,80.1543938 106.777253,80.1543938" id="Fill-27" fill="#CAE5CA"></path>
                            <path d="M121.887067,23.7706863 L121.915061,23.7319935 C120.116788,22.6999837 118.361722,21.6939706 116.79409,20.7955719 C116.662643,20.7351144 116.521459,20.6613562 116.362018,20.5616013 C114.09516,19.1390359 112.000521,19.5465196 110.949551,19.915915 L103.729074,24.0578595 C102.494929,25.0439216 101.22062,26.8419281 104.485505,28.8321895 L109.195094,31.5291993 C110.312396,32.0189052 112.157528,32.4801961 114.225998,31.6241176 L122.178564,27.062598 C124.666936,25.4024346 121.887067,23.7706863 121.887067,23.7706863" id="Fill-29" fill="#CAE5CA"></path>
                            <path d="M124.553684,117.257534 L169.430181,142.841342 C169.430181,142.841342 180.320839,149.863482 168.327484,156.524691 L129.883997,178.613449 C129.883997,178.613449 121.420855,183.352109 112.496431,178.919364 C103.571398,174.486015 14.7841776,122.357126 14.7841776,122.357126 C14.7841776,122.357126 6.475,116.394806 14.7841776,109.362992 L55.5614638,85.9737925 C55.5614638,85.9737925 63.5627138,82.3052304 69.4109046,85.820835 L103.700411,105.369773" id="Fill-31" fill="#C6E8EF"></path>
                            <path d="M124.663041,179.740136 C125.751133,179.523698 127.310245,179.256475 129.188238,178.956002 C129.635525,178.751051 129.883814,178.613812 129.883814,178.613812 L168.327301,156.525054 C180.320656,149.86324 169.429998,142.841704 169.429998,142.841704 L117.766314,173.694384 C117.766314,173.694384 116.549209,181.351933 124.663041,179.740136" id="Fill-33" fill="#B1D9DC"></path>
                            <path d="M40.2768734,135.606149 C40.2768734,135.606149 40.0742253,133.792423 41.5956069,133.993747 C43.1169885,134.19507 48.0870378,137.822521 48.0870378,137.822521 C48.0870378,137.822521 49.9126957,140.543109 48.3913141,140.745038" id="Fill-35" fill="#FEFEFE"></path>
                            <path d="M21.5133701,123.212358 L25.2663141,125.42873 C25.2663141,125.42873 26.0775148,127.242456 25.0630576,127.242456 L20.6005411,124.320544 C20.6005411,124.320544 20.2962648,122.708142 21.5133701,123.212358" id="Fill-37" fill="#FEFEFE"></path>
                            <path d="M29.5261826,129.056181 C29.5261826,129.056181 29.9314786,127.947995 31.0475641,128.048959 L37.9442911,132.180021 C37.9442911,132.180021 38.654472,134.19507 37.3357385,134.094711 L29.5261826,129.056181 Z" id="Fill-39" fill="#FEFEFE"></path>
                            <path d="M147.079625,163.582502 L151.58048,161.117649 C151.58048,161.117649 152.792109,161.002779 152.965546,162.034789 C152.965546,162.034789 153.254,163.239103 151.926747,164.155639 L146.964609,166.907665 C146.964609,166.907665 144.425118,166.7934 147.079625,163.582502" id="Fill-41" fill="#FEFEFE"></path>
                            <path d="M13.9242928,110.15027 C13.6376645,113.994158 15.6915296,118.220743 24.4546875,120.491528 L114.804063,172.498897 C114.804063,172.498897 122.164507,176.542296 127.267829,172.498897 C132.37176,168.454289 168.814326,148.497868 168.814326,148.497868 C168.814326,148.497868 172.899539,147.693783 168.66097,144.371038 C167.932533,143.799714 168.119967,143.184257 168.929342,142.556103 L124.553684,117.25826 L103.700411,105.369894 L69.4109046,85.8209559 C63.5627138,82.3047467 55.5614638,85.9739134 55.5614638,85.9739134 L14.7841776,109.363113 C14.4719901,109.627312 14.1902303,109.889093 13.9242928,110.15027" id="Fill-43" fill="#FEFEFE"></path>
                            <path d="M124.553684,117.257534 L169.430181,142.841342 C169.430181,142.841342 180.320839,149.863482 168.327484,156.524691 L129.883997,178.613449 C129.883997,178.613449 121.420855,183.352109 112.496431,178.919364 C103.571398,174.486015 14.7841776,122.357126 14.7841776,122.357126 C14.7841776,122.357126 6.475,116.394806 14.7841776,109.362992 L55.5614638,85.9737925 C55.5614638,85.9737925 63.5627138,82.3052304 69.4109046,85.820835 L103.700411,105.369773" id="Stroke-45" stroke="#2A3B4E" stroke-width="0.75" stroke-linecap="round" stroke-linejoin="round"></path>
                            <path d="M124.437207,118.967333 C147.38451,132.140422 168.660727,144.370977 168.660727,144.370977 C168.660727,144.370977 171.122931,146.052301 168.814691,148.498412 L127.267586,172.498837 C127.267586,172.498837 122.805678,176.320356 114.803819,172.498837 L16.3235724,116.088951 C16.3235724,116.088951 12.1689836,113.185176 16.6308914,110.280193 L23.8629309,105.999801 L25.863852,107.375814 C25.863852,107.375814 29.0946579,108.292954 31.5568618,106.611631 L53.099625,94.6875948 C53.099625,94.6875948 55.7151842,92.2414837 53.7148717,91.1713856 L51.868523,89.7959771 L57.2548224,86.7380359 C57.2548224,86.7380359 63.5630789,84.2925294 68.6408421,87.043951 C70.5882105,88.0989346 85.7490822,96.7745882 103.703211,107.070503" id="Fill-47" fill="#F8F8F9"></path>
                            <path d="M122.431479,132.98592 L122.634735,142.457799 C122.634735,142.457799 117.766314,138.427096 117.563058,141.6519 C117.36041,144.8761 111.477531,139.636247 111.477531,139.636247 L122.431479,132.98592 Z" id="Fill-49" fill="#FEFEFE"></path>
                            <path d="M124.437207,118.967333 C147.38451,132.140422 168.660727,144.370977 168.660727,144.370977 C168.660727,144.370977 171.122931,146.052301 168.814691,148.498412 L127.267586,172.498837 C127.267586,172.498837 122.805678,176.320356 114.803819,172.498837 L16.3235724,116.088951 C16.3235724,116.088951 12.1689836,113.185176 16.6308914,110.280193 L23.8629309,105.999801 L25.863852,107.375814 C25.863852,107.375814 29.0946579,108.292954 31.5568618,106.611631 L53.099625,94.6875948 C53.099625,94.6875948 55.7151842,92.2414837 53.7148717,91.1713856 L51.868523,89.7959771 L57.2548224,86.7380359 C57.2548224,86.7380359 63.5630789,84.2925294 68.6408421,87.043951 C70.5882105,88.0989346 85.7490822,96.7745882 103.703211,107.070503" id="Stroke-51" stroke="#2A3B4E" stroke-width="0.75" stroke-linecap="round" stroke-linejoin="round"></path>
                            <path d="M91.4493339,139.763812 L91.4773273,139.725119 C89.6790543,138.693109 87.9239885,137.686492 86.3563569,136.788698 C86.224301,136.72824 86.0831168,136.654482 85.923676,136.554123 C83.6568174,135.132766 81.5627878,135.539645 80.5112089,135.909041 L73.2907319,140.050985 C72.0571957,141.037047 70.7828865,142.834449 74.0477714,144.824711 L78.7573602,147.522325 C79.8746628,148.012031 81.7197944,148.473322 83.7882648,147.616639 L91.7408306,143.055119 C94.2292023,141.39556 91.4493339,139.763812 91.4493339,139.763812" id="Fill-53" fill="#CAE5CA"></path>
                            <path d="M78.7048421,96.3855441 L78.7328355,96.3468513 C76.9345625,95.3148415 75.1794967,94.3082239 73.6118651,93.4104297 C73.4804178,93.3499722 73.3392336,93.2762141 73.1791842,93.1758546 C70.9123257,91.7544984 68.8182961,92.1613775 67.7667171,92.5307729 L60.5462401,96.6727173 C59.3127039,97.6581748 58.0383947,99.4561814 61.3032796,101.446443 L66.0128684,104.144057 C67.1301711,104.633763 68.9753026,105.094449 71.043773,104.238371 L78.9963388,99.6768513 C81.4847105,98.0172925 78.7048421,96.3855441 78.7048421,96.3855441" id="Fill-55" fill="#FCDFDD"></path>
                            <path d="M107.316309,148.55494 L107.344303,148.516247 C105.54603,147.484237 103.790964,146.477619 102.223332,145.579825 C102.091276,145.519368 101.950092,145.445609 101.790651,145.34525 C99.5237928,143.923289 97.4297632,144.330773 96.3781842,144.700168 L89.1577072,148.842113 C87.9241711,149.82757 86.6498618,151.625577 89.9147467,153.615838 L94.6243355,156.313453 C95.7416382,156.803158 97.5867697,157.263845 99.6552401,156.407766 L107.607806,151.846247 C110.096178,150.186688 107.316309,148.55494 107.316309,148.55494" id="Fill-57" fill="#FCDFDD"></path>
                            <path d="M105.767604,130.032147 C105.702488,129.994663 105.636765,129.95718 105.572258,129.919696 C104.404446,129.250431 103.276798,128.604141 102.232521,128.005611 C102.101683,127.945758 101.95989,127.872 101.79984,127.771641 C99.5335905,126.34968 97.4389523,126.756559 96.3879819,127.125954 L89.1675049,131.267899 C87.9333602,132.253961 86.6596595,134.051363 89.9245444,136.041624 L94.6335247,138.739239 C95.7514359,139.228944 97.5959589,139.690235 99.6650378,138.834157 L101.982406,137.504696" id="Fill-59" fill="#C6E8EF"></path>
                            <path d="M121.352211,131.081871 L121.380204,131.043178 C119.581931,130.011168 117.826865,129.004551 116.259234,128.106757 C116.127786,128.046299 115.986602,127.972541 115.826553,127.872181 C113.559694,126.450221 111.465664,126.857704 110.414086,127.2271 L103.194217,131.369044 C101.960072,132.354502 100.685763,134.152508 103.950648,136.14277 L108.660237,138.840384 C109.777539,139.33009 111.622671,139.790776 113.691141,138.934698 L121.643707,134.373178 C124.132079,132.713619 121.352211,131.081871 121.352211,131.081871" id="Fill-61" fill="#FFECC0"></path>
                            <path d="M46.374875,113.022002 C45.2563553,112.379943 44.1773914,111.761462 43.1738882,111.187116 C43.0418322,111.126054 42.900648,111.052296 42.7412072,110.952541 C40.4749572,109.53058 38.3797105,109.936855 37.3293487,110.306855 L30.1088717,114.448799 C28.874727,115.434861 27.6004178,117.232868 30.8653026,119.223129 L35.5748914,121.920139 C36.6928026,122.409845 38.5373257,122.871136 40.6064046,122.015057 L42.9706316,120.658391" id="Fill-63" fill="#F08080"></path>
                            <path d="M62.3030099,114.068158 L62.3310033,114.029466 C60.5327303,112.997456 58.7776645,111.990838 57.2100329,111.093044 C57.0785855,111.032587 56.9374013,110.958828 56.777352,110.858469 C54.5104934,109.437113 52.4164638,109.843992 51.3648849,110.213387 L44.1444079,114.355332 C42.9108717,115.340789 41.6365625,117.138796 44.9014474,119.129057 L49.6110362,121.826672 C50.7283388,122.316377 52.5734704,122.777064 54.6419408,121.920985 L62.5945066,117.359466 C65.0828783,115.699907 62.3030099,114.068158 62.3030099,114.068158" id="Fill-65" fill="#CAE5CA"></path>
                            <path d="M92.7407434,105.176672 L92.7687368,105.137979 C90.9710724,104.105969 89.2160066,103.099351 87.6477664,102.201557 C87.5163191,102.1411 87.3751349,102.067342 87.2156941,101.966982 C84.9488355,100.545021 82.8541974,100.952505 81.803227,101.3219 L74.58275,105.463845 C73.3486053,106.449302 72.0749046,108.247309 75.3391809,110.23757 L80.0487697,112.935185 C81.1666809,113.424891 83.0112039,113.885577 85.0796743,113.029498 L93.0322401,108.467979 C95.5206118,106.80842 92.7407434,105.176672 92.7407434,105.176672" id="Fill-67" fill="#F08080"></path>
                            <path d="M137.228679,147.956833 L137.256673,147.918141 C135.459008,146.886131 133.703942,145.879513 132.135702,144.981719 C132.004255,144.921261 131.863071,144.847503 131.70363,144.747144 C129.436771,143.325183 127.342133,143.732667 126.291163,144.102062 L119.070686,148.244007 C117.836541,149.229464 116.56284,151.027471 119.827117,153.017732 L124.536706,155.715346 C125.654617,156.205052 127.49914,156.665739 129.56761,155.80966 L137.520176,151.248141 C140.008548,149.588582 137.228679,147.956833 137.228679,147.956833" id="Fill-69" fill="#F08080"></path>
                            <path d="M40.366574,135.626221 C40.366574,135.626221 39.9813602,134.785257 40.4432516,134.174636 C40.9051431,133.562806 41.6360148,133.830028 41.6360148,133.830028 L48.3294852,137.843198 C48.3294852,137.843198 49.3682845,138.837119 48.9453405,139.906613 C48.9453405,139.906613 48.6374128,140.47975 48.1755214,140.47975" id="Stroke-71" stroke="#2A3B4E" stroke-width="0.75" stroke-linecap="round" stroke-linejoin="round"></path>
                            <path d="M37.9044309,134.288961 C37.9044309,134.288961 38.8659441,133.180775 38.096125,132.224941 L30.7490691,127.982637 C30.7490691,127.982637 29.4796283,127.82968 29.5563059,129.243781" id="Stroke-73" stroke="#2A3B4E" stroke-width="0.75" stroke-linecap="round" stroke-linejoin="round"></path>
                            <path d="M21.862801,123.549469 L25.632176,125.842623 C25.632176,125.842623 26.2096924,126.339583 25.7094622,126.874632" id="Stroke-75" stroke="#2A3B4E" stroke-width="0.75" stroke-linecap="round" stroke-linejoin="round"></path>
                            <path d="M147.079625,163.582502 L151.58048,161.117649 C151.58048,161.117649 152.792109,161.002779 152.965546,162.034789 C152.965546,162.034789 153.254,163.239103 151.926747,164.155639 L146.964609,166.907665 C146.964609,166.907665 144.425118,166.7934 147.079625,163.582502 Z" id="Stroke-77" stroke="#2A3B4E" stroke-width="0.75" stroke-linecap="round" stroke-linejoin="round"></path>
                            <path d="M46.374875,113.022002 C45.2563553,112.379943 44.1773914,111.761462 43.1738882,111.187116 C43.0418322,111.126054 42.900648,111.052296 42.7412072,110.952541 C40.4749572,109.53058 38.3797105,109.936855 37.3293487,110.306855 L30.1088717,114.448799 C28.874727,115.434861 27.6004178,117.232868 30.8653026,119.223129 L35.5748914,121.920139 C36.6928026,122.409845 38.5373257,122.871136 40.6064046,122.015057 L42.9706316,120.658391" id="Stroke-79" stroke="#2A3B4E" stroke-width="0.75" stroke-linecap="round" stroke-linejoin="round"></path>
                            <path d="M64.1435164,70.214634 L64.1715099,70.1759412 C62.3732368,69.1439314 60.6181711,68.1379183 59.0505395,67.2401242 C58.9184836,67.1790621 58.7772993,67.1053039 58.6178586,67.005549 C56.351,65.5835882 54.2569704,65.9904673 53.2053914,66.3598627 L45.9849145,70.5018072 C44.7513783,71.4878693 43.4770691,73.2858758 46.7419539,75.2761373 L51.4515428,77.9731471 C52.5688454,78.4628529 54.413977,78.9241438 56.4824474,78.0680654 L64.4350132,73.5065458 C66.9233849,71.8463824 64.1435164,70.214634 64.1435164,70.214634 Z" id="Stroke-81" stroke="#2A3B4E" stroke-width="0.75" stroke-linecap="round" stroke-linejoin="round"></path>
                            <path d="M78.7048421,96.3855441 L78.7328355,96.3468513 C76.9345625,95.3148415 75.1794967,94.3082239 73.6118651,93.4104297 C73.4804178,93.3499722 73.3392336,93.2762141 73.1791842,93.1758546 C70.9123257,91.7544984 68.8182961,92.1613775 67.7667171,92.5307729 L60.5462401,96.6727173 C59.3127039,97.6581748 58.0383947,99.4561814 61.3032796,101.446443 L66.0128684,104.144057 C67.1301711,104.633763 68.9753026,105.094449 71.043773,104.238371 L78.9963388,99.6768513 C81.4847105,98.0172925 78.7048421,96.3855441 78.7048421,96.3855441 Z" id="Stroke-83" stroke="#2A3B4E" stroke-width="0.75" stroke-linecap="round" stroke-linejoin="round"></path>
                            <path d="M62.3030099,114.068158 L62.3310033,114.029466 C60.5327303,112.997456 58.7776645,111.990838 57.2100329,111.093044 C57.0785855,111.032587 56.9374013,110.958828 56.777352,110.858469 C54.5104934,109.437113 52.4164638,109.843992 51.3648849,110.213387 L44.1444079,114.355332 C42.9108717,115.340789 41.6365625,117.138796 44.9014474,119.129057 L49.6110362,121.826672 C50.7283388,122.316377 52.5734704,122.777064 54.6419408,121.920985 L62.5945066,117.359466 C65.0828783,115.699907 62.3030099,114.068158 62.3030099,114.068158 Z" id="Stroke-85" stroke="#2A3B4E" stroke-width="0.75" stroke-linecap="round" stroke-linejoin="round"></path>
                            <path d="M78.1794786,4.43371242 L78.207472,4.39501961 C76.409199,3.3630098 74.6541332,2.35699673 73.0865016,1.45859804 C72.9550543,1.39814052 72.8138701,1.32438235 72.6544293,1.22462745 C70.3875707,-0.197937908 68.2929326,0.209545752 67.2419622,0.578941176 L60.0214852,4.72088562 C58.7873405,5.70694771 57.5130313,7.50495425 60.7779161,9.49461111 L65.4875049,12.1922255 C66.6048076,12.6819314 68.4499391,13.1432222 70.5184095,12.2865392 L78.4709753,7.72501961 C80.959347,6.06546078 78.1794786,4.43371242 78.1794786,4.43371242 Z" id="Stroke-87" stroke="#2A3B4E" stroke-width="0.75" stroke-linecap="round" stroke-linejoin="round"></path>
                            <path d="M92.7407434,105.176672 L92.7687368,105.137979 C90.9710724,104.105969 89.2160066,103.099351 87.6477664,102.201557 C87.5163191,102.1411 87.3751349,102.067342 87.2156941,101.966982 C84.9488355,100.545021 82.8541974,100.952505 81.803227,101.3219 L74.58275,105.463845 C73.3486053,106.449302 72.0749046,108.247309 75.3391809,110.23757 L80.0487697,112.935185 C81.1666809,113.424891 83.0112039,113.885577 85.0796743,113.029498 L93.0322401,108.467979 C95.5206118,106.80842 92.7407434,105.176672 92.7407434,105.176672 Z" id="Stroke-89" stroke="#2A3B4E" stroke-width="0.75" stroke-linecap="round" stroke-linejoin="round"></path>
                            <path d="M76.338972,34.0773627 L76.3669655,34.0386699 C74.569301,33.0066601 72.8142352,32.0006471 71.2459951,31.1022484 C71.1145477,31.0417908 70.9733635,30.9680327 70.8139227,30.8682778 C68.5470641,29.4457124 66.452426,29.8531961 65.4014556,30.2225915 L58.1809786,34.3645359 C56.9468339,35.350598 55.6731332,37.1486046 58.9374095,39.138866 L63.6469984,41.8358758 C64.7649095,42.3255817 66.6094326,42.7868725 68.677903,41.9307941 L76.6304688,37.3692745 C79.1188405,35.7091111 76.338972,34.0773627 76.338972,34.0773627 Z" id="Stroke-91" stroke="#2A3B4E" stroke-width="0.75" stroke-linecap="round" stroke-linejoin="round"></path>
                            <path d="M92.2153799,50.207549 L92.2433734,50.1688562 C90.4457089,49.1368464 88.6906431,48.1308333 87.122403,47.2324346 C86.9909556,47.1719771 86.8497714,47.098219 86.6903306,46.9984641 C84.423472,45.5758987 82.3288339,45.9833824 81.2778635,46.3527778 L74.0573865,50.4947222 C72.8238503,51.4807843 71.5495411,53.2787908 74.8138174,55.2684477 L79.5234063,57.9660621 C80.6413174,58.455768 82.486449,58.9170588 84.5549194,58.0603758 L92.5074852,53.4988562 C94.9952484,51.8392974 92.2153799,50.207549 92.2153799,50.207549 Z" id="Stroke-93" stroke="#2A3B4E" stroke-width="0.75" stroke-linecap="round" stroke-linejoin="round"></path>
                            <path d="M106.777253,80.1543938 L106.804638,80.115701 C105.006974,79.0836912 103.251908,78.0776781 101.683668,77.179884 C101.55222,77.1188219 101.411036,77.0450637 101.251595,76.9453088 C98.9847368,75.523348 96.8900987,75.9302271 95.8391283,76.3002271 L88.6186513,80.441567 C87.3851151,81.4276291 86.1108059,83.2256356 89.3750822,85.2158971 L94.0852796,87.9129069 C95.2025822,88.4026127 97.0477138,88.8639036 99.1161842,88.0078252 L107.06875,83.4463056 C109.556513,81.7867467 106.777253,80.1543938 106.777253,80.1543938 Z" id="Stroke-95" stroke="#2A3B4E" stroke-width="0.75" stroke-linecap="round" stroke-linejoin="round"></path>
                            <path d="M91.4493339,139.763812 L91.4773273,139.725119 C89.6790543,138.693109 87.9239885,137.686492 86.3563569,136.788698 C86.224301,136.72824 86.0831168,136.654482 85.923676,136.554123 C83.6568174,135.132766 81.5627878,135.539645 80.5112089,135.909041 L73.2907319,140.050985 C72.0571957,141.037047 70.7828865,142.834449 74.0477714,144.824711 L78.7573602,147.522325 C79.8746628,148.012031 81.7197944,148.473322 83.7882648,147.616639 L91.7408306,143.055119 C94.2292023,141.39556 91.4493339,139.763812 91.4493339,139.763812 Z" id="Stroke-97" stroke="#2A3B4E" stroke-width="0.75" stroke-linecap="round" stroke-linejoin="round"></path>
                            <path d="M105.767604,130.032147 C105.702488,129.994663 105.636765,129.95718 105.572258,129.919696 C104.404446,129.250431 103.276798,128.604141 102.232521,128.005611 C102.101683,127.945758 101.95989,127.872 101.79984,127.771641 C99.5335905,126.34968 97.4389523,126.756559 96.3879819,127.125954 L89.1675049,131.267899 C87.9333602,132.253961 86.6596595,134.051363 89.9245444,136.041624 L94.6335247,138.739239 C95.7514359,139.228944 97.5959589,139.690235 99.6650378,138.834157 L101.982406,137.504696" id="Stroke-99" stroke="#2A3B4E" stroke-width="0.75" stroke-linecap="round" stroke-linejoin="round"></path>
                            <path d="M121.887067,23.7706863 L121.915061,23.7319935 C120.116788,22.6999837 118.361722,21.6939706 116.79409,20.7955719 C116.662643,20.7351144 116.521459,20.6613562 116.362018,20.5616013 C114.09516,19.1390359 112.000521,19.5465196 110.949551,19.915915 L103.729074,24.0578595 C102.494929,25.0439216 101.22062,26.8419281 104.485505,28.8321895 L109.195094,31.5291993 C110.312396,32.0189052 112.157528,32.4801961 114.225998,31.6241176 L122.178564,27.062598 C124.666936,25.4024346 121.887067,23.7706863 121.887067,23.7706863 Z" id="Stroke-101" stroke="#2A3B4E" stroke-width="0.75" stroke-linecap="round" stroke-linejoin="round"></path>
                            <path d="M107.316309,148.55494 L107.344303,148.516247 C105.54603,147.484237 103.790964,146.477619 102.223332,145.579825 C102.091276,145.519368 101.950092,145.445609 101.790651,145.34525 C99.5237928,143.923289 97.4297632,144.330773 96.3781842,144.700168 L89.1577072,148.842113 C87.9241711,149.82757 86.6498618,151.625577 89.9147467,153.615838 L94.6243355,156.313453 C95.7416382,156.803158 97.5867697,157.263845 99.6552401,156.407766 L107.607806,151.846247 C110.096178,150.186688 107.316309,148.55494 107.316309,148.55494 Z" id="Stroke-103" stroke="#2A3B4E" stroke-width="0.75" stroke-linecap="round" stroke-linejoin="round"></path>
                            <path d="M123.192778,97.3325507 L123.220771,97.2938578 C121.422498,96.261848 119.667433,95.2552304 118.099801,94.3574363 C117.968354,94.2969788 117.827169,94.2232206 117.66712,94.1228611 C115.400262,92.7015049 113.306232,93.108384 112.254653,93.4777794 L105.034176,97.6197239 C103.80064,98.6051814 102.526331,100.403188 105.791215,102.393449 L110.500804,105.091064 C111.618107,105.58077 113.463238,106.041456 115.531709,105.185377 L123.484275,100.623858 C125.972646,98.964299 123.192778,97.3325507 123.192778,97.3325507 Z" id="Stroke-105" stroke="#2A3B4E" stroke-width="0.75" stroke-linecap="round" stroke-linejoin="round"></path>
                            <g id="Group-110" transform="translate(120.493421, 126.401552)">
                                <path d="M2.02897533,10.6812108 L4.56846546,12.1352141 C5.68637664,12.6255245 7.53089967,13.0868154 9.59937007,12.2307369 L17.5525444,7.66921732 C20.0409161,6.00844935 17.2604391,4.37670098 17.2604391,4.37670098 L17.2884326,4.33861275 C15.4901595,3.30660294 13.7350937,2.30058987 12.1674622,1.4015866 C12.0360148,1.34173366 11.8948306,1.26797549 11.7347812,1.16822059 C9.46853125,-0.254344771 7.37389309,0.152534314 6.3229227,0.521929739 L0.117511513,4.0816683" id="Fill-107" fill="#CAE5CA"></path>
                                <path d="M2.02897533,10.6812108 L4.56846546,12.1352141 C5.68637664,12.6255245 7.53089967,13.0868154 9.59937007,12.2307369 L17.5525444,7.66921732 C20.0409161,6.00844935 17.2604391,4.37670098 17.2604391,4.37670098 L17.2884326,4.33861275 C15.4901595,3.30660294 13.7350937,2.30058987 12.1674622,1.4015866 C12.0360148,1.34173366 11.8948306,1.26797549 11.7347812,1.16822059 C9.46853125,-0.254344771 7.37389309,0.152534314 6.3229227,0.521929739 L0.117511513,4.0816683" id="Stroke-109" stroke="#2A3B4E" stroke-width="0.75" stroke-linecap="round" stroke-linejoin="round"></path>
                            </g>
                            <path d="M121.352211,131.081871 L121.380204,131.043178 C119.581931,130.011168 117.826865,129.004551 116.259234,128.106757 C116.127786,128.046299 115.986602,127.972541 115.826553,127.872181 C113.559694,126.450221 111.465664,126.857704 110.414086,127.2271 L103.194217,131.369044 C101.960072,132.354502 100.685763,134.152508 103.950648,136.14277 L108.660237,138.840384 C109.777539,139.33009 111.622671,139.790776 113.691141,138.934698 L121.643707,134.373178 C124.132079,132.713619 121.352211,131.081871 121.352211,131.081871 Z" id="Stroke-111" stroke="#2A3B4E" stroke-width="0.75" stroke-linecap="round" stroke-linejoin="round"></path>
                            <path d="M137.228679,147.956833 L137.256673,147.918141 C135.459008,146.886131 133.703942,145.879513 132.135702,144.981719 C132.004255,144.921261 131.863071,144.847503 131.70363,144.747144 C129.436771,143.325183 127.342133,143.732667 126.291163,144.102062 L119.070686,148.244007 C117.836541,149.229464 116.56284,151.027471 119.827117,153.017732 L124.536706,155.715346 C125.654617,156.205052 127.49914,156.665739 129.56761,155.80966 L137.520176,151.248141 C140.008548,149.588582 137.228679,147.956833 137.228679,147.956833 Z" id="Stroke-113" stroke="#2A3B4E" stroke-width="0.75" stroke-linecap="round" stroke-linejoin="round"></path>
                            <path d="M151.789944,103.192879 L151.817937,103.154186 C150.020273,102.122176 148.265207,101.116163 146.696967,100.217765 C146.56552,100.157307 146.424336,100.083549 146.264895,99.9837941 C143.998036,98.5618333 141.903398,98.9687124 140.852428,99.3381078 L133.631951,103.480052 C132.398414,104.466114 131.124105,106.264121 134.388382,108.253778 L139.09797,110.951392 C140.215882,111.441098 142.061013,111.902389 144.128875,111.045706 L152.081441,106.484186 C154.569812,104.824627 151.789944,103.192879 151.789944,103.192879 Z" id="Stroke-115" stroke="#2A3B4E" stroke-width="0.75" stroke-linecap="round" stroke-linejoin="round"></path>
                            <path d="M141.622855,130.953761 L141.622855,132.166539" id="Stroke-117" stroke="#2A3B4E" stroke-width="0.75" stroke-linecap="round" stroke-linejoin="round"></path>
                            <path d="M42.8251875,116.654168 L42.8251875,120.974462" id="Stroke-119" stroke="#2A3B4E" stroke-width="0.75" stroke-linecap="round" stroke-linejoin="round"></path>
                            <path d="M42.8251875,122.110701 L42.8251875,123.17173" id="Stroke-121" stroke="#2A3B4E" stroke-width="0.75" stroke-linecap="round" stroke-linejoin="round"></path>
                            <path d="M52.5893536,122.565281 L52.5893536,124.384448" id="Stroke-123" stroke="#2A3B4E" stroke-width="0.75" stroke-linecap="round" stroke-linejoin="round"></path>
                            <path d="M52.5893536,125.18019 L52.5893536,126.316791" id="Stroke-125" stroke="#2A3B4E" stroke-width="0.75" stroke-linecap="round" stroke-linejoin="round"></path>
                            <path d="M63.5742155,115.896092 L63.5742155,118.776288" id="Stroke-127" stroke="#2A3B4E" stroke-width="0.75" stroke-linecap="round" stroke-linejoin="round"></path>
                            <path d="M58.7681711,119.685266 L58.7681711,124.00556" id="Stroke-129" stroke="#2A3B4E" stroke-width="0.75" stroke-linecap="round" stroke-linejoin="round"></path>
                            <path d="M58.7681711,125.141799 L58.7681711,126.733645" id="Stroke-131" stroke="#2A3B4E" stroke-width="0.75" stroke-linecap="round" stroke-linejoin="round"></path>
                            <path d="M115.739773,140.311134 L115.739773,141.826804" id="Stroke-133" stroke="#2A3B4E" stroke-width="0.75" stroke-linecap="round" stroke-linejoin="round"></path>
                            <path d="M106.445044,143.026946 L106.445044,144.391472" id="Stroke-135" stroke="#2A3B4E" stroke-width="0.75" stroke-linecap="round" stroke-linejoin="round"></path>
                            <path d="M101.868424,133.667881 L101.868424,138.063747" id="Stroke-137" stroke="#2A3B4E" stroke-width="0.75" stroke-linecap="round" stroke-linejoin="round"></path>
                            <path d="M122.541383,132.834232 L122.541383,138.972484" id="Stroke-139" stroke="#2A3B4E" stroke-width="0.75" stroke-linecap="round" stroke-linejoin="round"></path>
                            <path d="M122.541383,139.88249 L122.541383,141.701052" id="Stroke-141" stroke="#2A3B4E" stroke-width="0.75" stroke-linecap="round" stroke-linejoin="round"></path>
                            <path d="M68.1514441,13.1324608 L68.1514441,17.0730817" id="Stroke-143" stroke="#2A3B4E" stroke-width="0.25" stroke-linecap="round" stroke-linejoin="round"></path>
                            <path d="M68.1650757,18.5131193 L68.1370822,19.7252925" id="Stroke-145" stroke="#2A3B4E" stroke-width="0.25" stroke-linecap="round" stroke-linejoin="round"></path>
                            <path d="M72.7280641,11.313415 L72.7280641,14.3447549" id="Stroke-147" stroke="#2A3B4E" stroke-width="0.25" stroke-linecap="round" stroke-linejoin="round"></path>
                            <path d="M58.692102,6.84227941 L58.692102,11.2381454" id="Stroke-149" stroke="#2A3B4E" stroke-width="0.25" stroke-linecap="round" stroke-linejoin="round"></path>
                            <path d="M58.692102,12.8293268 L58.692102,13.8141797" id="Stroke-151" stroke="#2A3B4E" stroke-width="0.25" stroke-linecap="round" stroke-linejoin="round"></path>
                            <path d="M82.0345987,58.7548513 L82.0345987,68.0000147" id="Stroke-153" stroke="#2A3B4E" stroke-width="0.25" stroke-linecap="round" stroke-linejoin="round"></path>
                            <path d="M82.0345987,78.1556078 L82.0345987,79.3683856" id="Stroke-155" stroke="#2A3B4E" stroke-width="0.25" stroke-linecap="round" stroke-linejoin="round"></path>
                            <path d="M82.0345987,71.6381062 L82.0345987,69.8195441" id="Stroke-157" stroke="#2A3B4E" stroke-width="0.25" stroke-linecap="round" stroke-linejoin="round"></path>
                            <path d="M86.0015099,57.5799804 L86.0015099,60.4220882" id="Stroke-159" stroke="#2A3B4E" stroke-width="0.25" stroke-linecap="round" stroke-linejoin="round"></path>
                            <path d="M86.0015099,70.5771373 L86.0015099,71.789915" id="Stroke-161" stroke="#2A3B4E" stroke-width="0.25" stroke-linecap="round" stroke-linejoin="round"></path>
                            <path d="M86.0015099,64.0596356 L86.0015099,62.2410735" id="Stroke-163" stroke="#2A3B4E" stroke-width="0.25" stroke-linecap="round" stroke-linejoin="round"></path>
                            <path d="M93.4770921,52.0856618 L93.4770921,58.4518382" id="Stroke-165" stroke="#2A3B4E" stroke-width="0.25" stroke-linecap="round" stroke-linejoin="round"></path>
                            <path d="M72.7280641,62.5440866 L72.7280641,64.5143971" id="Stroke-167" stroke="#2A3B4E" stroke-width="0.25" stroke-linecap="round" stroke-linejoin="round"></path>
                            <path d="M66.3204309,42.5366993 L66.3204309,46.3261765" id="Stroke-169" stroke="#2A3B4E" stroke-width="0.25" stroke-linecap="round" stroke-linejoin="round"></path>
                            <path d="M57.395398,41.6274788 L57.395398,51.7825278" id="Stroke-171" stroke="#2A3B4E" stroke-width="0.25" stroke-linecap="round" stroke-linejoin="round"></path>
                            <path d="M66.3061299,47.9935343 L66.3347319,49.0539592" id="Stroke-173" stroke="#2A3B4E" stroke-width="0.25" stroke-linecap="round" stroke-linejoin="round"></path>
                            <path d="M77.7628635,42.1160359 L77.7628635,43.4461013" id="Stroke-175" stroke="#2A3B4E" stroke-width="0.25" stroke-linecap="round" stroke-linejoin="round"></path>
                            <path d="M59.6073043,39.6570474 L59.6073043,43.1430278" id="Stroke-177" stroke="#2A3B4E" stroke-width="0.25" stroke-linecap="round" stroke-linejoin="round"></path>
                            <path d="M59.6073043,44.6589395 L59.6073043,46.1746095" id="Stroke-179" stroke="#2A3B4E" stroke-width="0.25" stroke-linecap="round" stroke-linejoin="round"></path>
                            <path d="M111.772314,43.250219 L111.772314,43.9388301" id="Stroke-181" stroke="#2A3B4E" stroke-width="0.25" stroke-linecap="round" stroke-linejoin="round"></path>
                            <path d="M115.739164,30.8658595 L115.739164,33.8978039" id="Stroke-183" stroke="#2A3B4E" stroke-width="0.25" stroke-linecap="round" stroke-linejoin="round"></path>
                            <path d="M115.739164,37.5357141 L115.739164,35.7165474" id="Stroke-185" stroke="#2A3B4E" stroke-width="0.25" stroke-linecap="round" stroke-linejoin="round"></path>
                            <path d="M123.214747,33.2915359 L123.214747,34.8072059" id="Stroke-187" stroke="#2A3B4E" stroke-width="0.25" stroke-linecap="round" stroke-linejoin="round"></path>
                            <path d="M102.465719,36.0198023 L102.465719,37.9901127" id="Stroke-189" stroke="#2A3B4E" stroke-width="0.25" stroke-linecap="round" stroke-linejoin="round"></path>
                            <path d="M107.780452,33.9354085 L107.780452,37.2321569" id="Stroke-191" stroke="#2A3B4E" stroke-width="0.25" stroke-linecap="round" stroke-linejoin="round"></path>
                            <path d="M141.622855,124.43626 L141.622855,122.617093" id="Stroke-193" stroke="#2A3B4E" stroke-width="0.25" stroke-linecap="round" stroke-linejoin="round"></path>
                            <path d="M145.589766,109.885768 L145.589766,113.220605" id="Stroke-195" stroke="#2A3B4E" stroke-width="0.25" stroke-linecap="round" stroke-linejoin="round"></path>
                            <path d="M145.589766,123.375351 L145.589766,124.588129" id="Stroke-197" stroke="#2A3B4E" stroke-width="0.25" stroke-linecap="round" stroke-linejoin="round"></path>
                            <path d="M145.589766,116.85785 L145.589766,115.038683" id="Stroke-199" stroke="#2A3B4E" stroke-width="0.25" stroke-linecap="round" stroke-linejoin="round"></path>
                            <path d="M132.31626,105.641892 L132.31626,108.399964" id="Stroke-201" stroke="#2A3B4E" stroke-width="0.25" stroke-linecap="round" stroke-linejoin="round"></path>
                            <path d="M132.31626,115.342301 L132.31626,117.312611" id="Stroke-203" stroke="#2A3B4E" stroke-width="0.25" stroke-linecap="round" stroke-linejoin="round"></path>
                            <path d="M54.1148734,78.9133824 L54.1148734,81.789951" id="Stroke-205" stroke="#2A3B4E" stroke-width="0.25" stroke-linecap="round" stroke-linejoin="round"></path>
                            <path d="M54.1291743,82.8410654 L54.1011809,83.7255588" id="Stroke-207" stroke="#2A3B4E" stroke-width="0.25" stroke-linecap="round" stroke-linejoin="round"></path>
                            <path d="M58.692102,77.0946389 L58.692102,80.1259788" id="Stroke-209" stroke="#2A3B4E" stroke-width="0.25" stroke-linecap="round" stroke-linejoin="round"></path>
                            <path d="M44.6562007,72.623201 L44.6562007,77.019067" id="Stroke-211" stroke="#2A3B4E" stroke-width="0.25" stroke-linecap="round" stroke-linejoin="round"></path>
                            <path d="M44.6562007,78.6101879 L44.6562007,79.5956454" id="Stroke-213" stroke="#2A3B4E" stroke-width="0.25" stroke-linecap="round" stroke-linejoin="round"></path>
                            <path d="M48.4347039,81.3384542 L48.4347039,84.066902" id="Stroke-215" stroke="#2A3B4E" stroke-width="0.25" stroke-linecap="round" stroke-linejoin="round"></path>
                            <path d="M113.123118,105.621276 L113.123118,109.410753" id="Stroke-217" stroke="#2A3B4E" stroke-width="0.25" stroke-linecap="round" stroke-linejoin="round"></path>
                            <path d="M118.615549,109.635413 L118.615549,120.445822" id="Stroke-219" stroke="#2A3B4E" stroke-width="0.25" stroke-linecap="round" stroke-linejoin="round"></path>
                            <path d="M113.274648,111.134458 L113.30325,112.221484" id="Stroke-221" stroke="#2A3B4E" stroke-width="0.25" stroke-linecap="round" stroke-linejoin="round"></path>
                            <path d="M124.565551,105.665531 L124.565551,110.742753" id="Stroke-223" stroke="#2A3B4E" stroke-width="0.25" stroke-linecap="round" stroke-linejoin="round"></path>
                            <path d="M106.409992,102.699304 L106.409992,111.226837" id="Stroke-225" stroke="#2A3B4E" stroke-width="0.25" stroke-linecap="round" stroke-linejoin="round"></path>
                            <path d="M106.409992,113.353792 L106.409992,114.906946" id="Stroke-227" stroke="#2A3B4E" stroke-width="0.25" stroke-linecap="round" stroke-linejoin="round"></path>
                            <path d="M87.1841711,82.5889575 L87.1841711,88.0452484" id="Stroke-229" stroke="#2A3B4E" stroke-width="0.25" stroke-linecap="round" stroke-linejoin="round"></path>
                            <path d="M101.944493,91.834665 L101.944493,93.6538317" id="Stroke-231" stroke="#2A3B4E" stroke-width="0.25" stroke-linecap="round" stroke-linejoin="round"></path>
                            <path d="M104.894574,85.2035637 L104.894574,89.295933" id="Stroke-233" stroke="#2A3B4E" stroke-width="0.25" stroke-linecap="round" stroke-linejoin="round"></path>
                            <path d="M96.5287401,96.1163268 L96.5287401,97.7081732" id="Stroke-235" stroke="#2A3B4E" stroke-width="0.25" stroke-linecap="round" stroke-linejoin="round"></path>
                            <path d="M96.5667747,88.5000703 L96.5667747,93.9563611" id="Stroke-237" stroke="#2A3B4E" stroke-width="0.25" stroke-linecap="round" stroke-linejoin="round"></path>
                        </g>
                    </g>
                </g>
            </g>
        </g>
    </g>
</svg>