<?xml version="1.0" encoding="UTF-8"?>
<svg width="187px" height="153px" viewBox="0 0 187 153" version="1.1" xmlns="http://www.w3.org/2000/svg" xmlns:xlink="http://www.w3.org/1999/xlink">
    <!-- Generator: Sketch 53.2 (72643) - https://sketchapp.com -->
    <title>Group 42</title>
    <desc>Created with Sketch.</desc>
    <g id="Page-2" stroke="none" stroke-width="1" fill="none" fill-rule="evenodd">
        <g id="HOME-" transform="translate(-733.000000, -2639.000000)">
            <g id="Group-42" transform="translate(734.000000, 2640.000000)">
                <g id="Group-26">
                    <g id="sol_2" transform="translate(6.000000, 21.000000)" fill="#F4F6F9">
                        <path d="M172.09839,100.197792 C142.335504,111.071908 114.605159,116.869367 88.907356,117.590167 C56.5849739,118.496781 114.805386,117.69207 150.253384,114.517287 C108.848904,134.037345 36.2094929,141.010144 12.0716305,108.331363 C-10.7321472,77.4587171 -1.2280102,43.5055647 40.5840415,6.47190543 C60.3332657,3.81763962 78.6766452,3.87776671 95.61418,6.65228671 C112.289858,9.38391215 94.1121903,4.87495508 71.9735437,1.24766864e-11 C156.751335,2.0990883 164.624847,42.2491311 178.956994,79.1893434 C181.721101,86.3136576 178.840758,93.5184366 172.09839,100.197792 Z" id="Combined-Shape"></path>
                    </g>
                    <g id="Page-1">
                        <path d="M120.804085,29.3824564 C120.804085,29.3824564 109.759272,36.9654471 92,42 C130.669835,34.6849536 156,12 156,12 C141.754035,24.2949082 99.3295492,33.5059143 99.3295492,33.5059143 L98.0122164,34.9473863 C105.120953,34.3949633 112.814194,32.7449019 120.804085,29.3824564" id="Fill-1" fill="#FEFEFE"></path>
                        <path d="M158,95.9459084 L158,115.193199 C158,116.737106 156.766926,118 155.259881,118 L139.740525,118 C138.233074,118 137,116.737106 137,115.193199 L137,79.8068012 C137,78.26331 138.233074,77 139.740525,77 L155.259881,77 C156.766926,77 158,78.26331 158,79.8068012 L158,95.9459084" id="Fill-3" fill="#C6E8EF"></path>
                        <path d="M153,77 C153,78.0997897 151.846861,79 150.437147,79 L144.562853,79 C143.153139,79 142,78.0997897 142,77" id="Fill-5" fill="#FEFEFE"></path>
                        <polygon id="Fill-7" fill="#FEFEFE" points="73 100.82635 69.8433727 91 52.6233988 91 49 101"></polygon>
                        <polyline id="Fill-9" fill="#FEFEFE" points="45 102.761788 45 101 78 101 78 103"></polyline>
                        <path d="M158,95.9459084 L158,115.193199 C158,116.737106 156.766926,118 155.259881,118 L139.740525,118 C138.233074,118 137,116.737106 137,115.193199 L137,79.8068012 C137,78.26331 138.233074,77 139.740525,77 L155.259881,77 C156.766926,77 158,78.26331 158,79.8068012 L158,95.9459084" id="Fill-11" fill="#FEFEFE"></path>
                        <path d="M139.132125,79 C138.51853,79 138,79.5283077 138,80.1538911 L138,115.846109 C138,116.471692 138.51853,117 139.132125,117 L154.867464,117 C155.481881,117 156,116.471692 156,115.846109 L156,96.4324775 L156,80.1538911 C156,79.5174061 155.492169,79 154.867464,79 L139.132125,79 Z" id="Fill-13" fill="#C6E8EF"></path>
                        <path d="M97.4399824,91 L51.9239,91 L25.5595991,91 C23.6019451,91 22,89.4238974 22,87.4974125 L22,36.5025875 C22,34.5761026 23.6019451,33 25.5595991,33 L97.4399824,33 C99.3980549,33 101,34.5761026 101,36.5025875 L101,87.4974125 C101,89.4238974 99.3980549,91 97.4399824,91" id="Fill-15" fill="#C6E8EF"></path>
                        <path d="M101,87.4764427 L101,36.176314 C101,35.7637757 100.922365,35.3686336 100.787458,35 C81.0362958,48.1225278 65.6865838,72.2738273 56,91 L97.3910232,91 C99.3760241,91 101,89.4144613 101,87.4764427" id="Fill-17" fill="#B1DADF"></path>
                        <path d="M22,79 L22,88.2706823 C22,90.3216755 23.6019451,92 25.5600176,92 L51.9243185,92 L97.4399824,92 C99.3980549,92 101,90.3216755 101,88.2706823 L101,79 L22,79 Z" id="Fill-19" fill="#FEFEFE"></path>
                        <path d="M131.318231,61 C131.694307,61 132,61.3074209 132,61.6865594 L132,111.313441 C132,111.692998 131.694307,112 131.318231,112 L94.6813529,112 C94.3048596,112 94,111.692998 94,111.313441 L94,61.6865594 C94,61.3074209 94.3048596,61 94.6813529,61 L131.318231,61 Z" id="Fill-21" fill="#C6E8EF"></path>
                        <path d="M100,112 L131.3178,112 C131.694345,112 132,111.696661 132,111.321631 L132,62.2867633 C132,62.1839926 131.975397,62.0874379 131.934115,62 C118.833464,70.3331261 106.979619,94.9301242 100,112" id="Fill-23" fill="#B1DADF"></path>
                        <path d="M131.771325,111.16719 C131.771325,111.543575 131.461693,111.848764 131.079827,111.848764 L93.9205953,111.848764 C93.5383074,111.848764 93.2290977,111.543575 93.2290977,111.16719 L93.2290977,61.9002597 C93.2290977,61.5242907 93.5383074,61.2191021 93.9205953,61.2191021 L131.079827,61.2191021 C131.461693,61.2191021 131.771325,61.5242907 131.771325,61.9002597 L131.771325,111.16719 Z M130.839049,55 L94.1609509,55 C92.4227025,55 91,56.4022853 91,58.1160046 L91,114.884412 C91,116.598131 92.4227025,118 94.1609509,118 L130.839049,118 C132.57772,118 134,116.598131 134,114.884412 L134,58.1160046 C134,56.4022853 132.57772,55 130.839049,55 L130.839049,55 Z" id="Fill-25" fill="#FEFEFE"></path>
                        <path d="M158,95.9459084 L158,115.193199 C158,116.737106 156.766926,118 155.259881,118 L139.740525,118 C138.233074,118 137,116.737106 137,115.193199 L137,79.8068012 C137,78.26331 138.233074,77 139.740525,77 L155.259881,77 C156.766926,77 158,78.26331 158,79.8068012 L158,95.9459084" id="Stroke-27" stroke="#2A3B4E" stroke-width="0.75" stroke-linecap="round" stroke-linejoin="round"></path>
                        <path d="M153,77 C153,78.0997897 151.846861,79 150.437147,79 L144.562853,79 C143.153139,79 142,78.0997897 142,77" id="Stroke-29" stroke="#2A3B4E" stroke-width="0.75" stroke-linecap="round" stroke-linejoin="round"></path>
                        <path d="M22,57 L22,36.4885008 C22,34.5697639 23.6019451,33 25.5600176,33 L97.4399824,33 C99.3980549,33 101,34.5697639 101,36.4885008 L101,38.1472508 L101,55.1567167" id="Stroke-31" stroke="#2A3B4E" stroke-width="0.75" stroke-linecap="round" stroke-linejoin="round"></path>
                        <path d="M91,91 L51.6702407,91 L25.5297906,91 C23.5883435,91 22,89.4245786 22,87.4989264 L22,68" id="Stroke-33" stroke="#2A3B4E" stroke-width="0.75" stroke-linecap="round" stroke-linejoin="round"></path>
                        <path d="M22,78.7915194 L91,78.7915194" id="Stroke-35" stroke="#2A3B4E" stroke-width="0.75" stroke-linecap="round" stroke-linejoin="round"></path>
                        <path d="M56,84.7915194 L66,84.7915194" id="Stroke-37" stroke="#2A3B4E" stroke-width="0.75" stroke-linecap="round" stroke-linejoin="round"></path>
                        <path d="M49,101 L53,91" id="Stroke-39" stroke="#2A3B4E" stroke-width="0.75" stroke-linecap="round" stroke-linejoin="round"></path>
                        <path d="M70,91 L73,101" id="Stroke-41" stroke="#2A3B4E" stroke-width="0.75" stroke-linecap="round" stroke-linejoin="round"></path>
                        <polyline id="Stroke-43" stroke="#2A3B4E" stroke-width="0.75" stroke-linecap="round" stroke-linejoin="round" points="45 102.761788 45 101 78 101 78 103"></polyline>
                        <path d="M0,102.791519 L91,102.791519" id="Stroke-45" stroke="#2A3B4E" stroke-width="0.75" stroke-linecap="round" stroke-linejoin="round"></path>
                        <path d="M113.807118,59.3697362 C113.807118,59.5739558 113.669898,59.7394724 113.500171,59.7394724 C113.330102,59.7394724 113.19254,59.5739558 113.19254,59.3697362 C113.19254,59.1655167 113.330102,59 113.500171,59 C113.669898,59 113.807118,59.1655167 113.807118,59.3697362 Z M115,115.195374 C115,116.190533 114.32725,117 113.500171,117 C112.673092,117 112,116.190533 112,115.195374 C112,114.200216 112.673092,113.390337 113.500171,113.390337 C114.32725,113.390337 115,114.200216 115,115.195374 Z M112.302156,59.3697362 C112.302156,59.2935656 112.353485,59.2318057 112.41679,59.2318057 C112.479754,59.2318057 112.531082,59.2935656 112.531082,59.3697362 C112.531082,59.4459068 112.479754,59.5076668 112.41679,59.5076668 C112.353485,59.5076668 112.302156,59.4459068 112.302156,59.3697362 Z" id="Stroke-47" stroke="#2A3B4E" stroke-width="0.75" stroke-linecap="round" stroke-linejoin="round"></path>
                        <path d="M137.817753,96 L137.817753,81.3057753 C137.817753,81.201582 137.808996,81.0995152 137.79148,81" id="Stroke-49" stroke="#2A3B4E" stroke-width="0.75" stroke-linecap="round" stroke-linejoin="round"></path>
                        <path d="M26,41 L32,35" id="Stroke-51" stroke="#2A3B4E" stroke-width="0.75" stroke-linecap="round" stroke-linejoin="round"></path>
                        <path d="M26,44 L31,39" id="Stroke-53" stroke="#2A3B4E" stroke-width="0.75" stroke-linecap="round" stroke-linejoin="round"></path>
                        <path d="M25,48 L29,44" id="Stroke-55" stroke="#2A3B4E" stroke-width="0.75" stroke-linecap="round" stroke-linejoin="round"></path>
                        <path d="M48.8928939,70.9576839 C48.9972421,70.9495462 49.0990959,70.9401879 49.2030284,70.9324571 C60.1030483,69.5234136 69.235385,68.1770304 76.8715102,66.9181276 C104.659306,60.777823 116,50.9259115 116,50.9259115 C92.4580523,64.091903 63.6841449,54.9487855 63.6841449,54.9487855 C82.3682898,54.9487855 93.2051187,50.5601217 93.2051187,50.5601217 C82.8800532,52.7650326 73.4059865,51.9231871 66.5314784,50.5397775 C54.1518761,49.7695438 45,48 45,48 L48.3570182,71 C48.535782,70.9861659 48.7087256,70.9719249 48.8928939,70.9576839" id="Fill-57" fill="#FEFEFE" opacity="0.641870471"></path>
                        <polygon id="Fill-59" fill="#FFECC0" points="0 58.9848509 45.0943153 48 46.5145262 57.2686325 44.7393673 60.3579066 47.2244221 62.0745301 49 71"></polygon>
                        <polyline id="Fill-61" fill="#9A8453" points="4 59.6777839 45.1692791 61 47 58"></polyline>
                        <polygon id="Stroke-63" stroke="#2A3B4E" stroke-width="0.75" stroke-linecap="round" stroke-linejoin="round" points="45.356622 48 2.30434072 58.794773 0 59.3722945 49 71 47.3217793 60.9682063 4.43045213 59.3849024 46.956051 57.7348989"></polygon>
                        <path d="M47,58 L45,61" id="Stroke-65" stroke="#2A3B4E" stroke-width="0.75" stroke-linecap="round" stroke-linejoin="round"></path>
                        <path d="M47,57 L4,59" id="Fill-67" fill="#9A8453"></path>
                        <path d="M46,60.7915194 C46,60.7915194 46.3473896,60.8136184 47,60.8461413" id="Stroke-69" stroke="#2A3B4E" stroke-width="0.75" stroke-linecap="round" stroke-linejoin="round"></path>
                        <path d="M48,60.8167853 C61.52625,61.443566 125.547917,62.4897276 121.431667,25.8011907 C116.830417,-15.2040121 70.2820833,-0.347434825 90.75875,22.3524391 C110.08875,43.7804271 173.554167,11.1124491 184,5.5176502" id="Stroke-71" stroke="#2A3B4E" stroke-width="0.75" stroke-linecap="round" stroke-linejoin="round" stroke-dasharray="3.979,3.979"></path>
                        <path d="M185,5.19138516 C185.655054,4.93161837 186,4.79151943 186,4.79151943" id="Stroke-73" stroke="#2A3B4E" stroke-width="0.75" stroke-linecap="round" stroke-linejoin="round"></path>
                        <path d="M91,58.1155882 L91,114.883995 C91,116.597715 92.4222801,118 94.1605285,118 L130.839049,118 C132.57772,118 134,116.597715 134,114.883995 L134,58.1155882 C134,56.401869 132.57772,55 130.839049,55 L94.1605285,55 C92.4222801,55 91,56.401869 91,58.1155882 Z" id="Stroke-75" stroke="#2A3B4E" stroke-width="0.75" stroke-linecap="round" stroke-linejoin="round"></path>
                        <path d="M131.318231,61 C131.694307,61 132,61.3074209 132,61.6865594 L132,111.313441 C132,111.692998 131.694307,112 131.318231,112 L94.6813529,112 C94.3048596,112 94,111.692998 94,111.313441 L94,61.6865594 C94,61.3074209 94.3048596,61 94.6813529,61 L131.318231,61 Z" id="Stroke-77" stroke="#2A3B4E" stroke-width="0.75" stroke-linecap="round" stroke-linejoin="round"></path>
                        <path d="M142,116 L154.867723,116 C155.482,116 156,115.475608 156,114.854662 L156,95.5849296 L156,79.4270047 C156,79.2759299 155.969554,79.1323465 155.916478,79 C150.504423,83.9022305 143.774121,94.2851872 142,116" id="Fill-79" fill="#B1DADF"></path>
                    </g>
                </g>
            </g>
        </g>
    </g>
</svg>