<?xml version="1.0" encoding="UTF-8"?>
<svg width="191px" height="149px" viewBox="0 0 191 149" version="1.1" xmlns="http://www.w3.org/2000/svg" xmlns:xlink="http://www.w3.org/1999/xlink">
    <!-- Generator: Sketch 53.2 (72643) - https://sketchapp.com -->
    <title>Group 47</title>
    <desc>Created with Sketch.</desc>
    <g id="Page-2" stroke="none" stroke-width="1" fill="none" fill-rule="evenodd">
        <g id="HOME-" transform="translate(-731.000000, -2898.000000)">
            <g id="Group-47" transform="translate(731.000000, 2898.000000)">
                <g id="Group-29">
                    <g id="Group-27" transform="translate(0.000000, 6.000000)" fill="#FAF7F1">
                        <g id="sol_4">
                            <path d="M43.3974151,7.66487884 C46.2502041,6.89589856 49.2436422,6.19657007 52.3777293,5.56689335 C36.683043,5.56689335 56.5127628,3.81042093 111.866889,0.29747607 C151.062046,-2.18997045 173.281041,10.9223005 178.523873,39.6342889 C180.712063,69.6389204 173.275635,92.2205847 156.214591,107.379282 C139.225528,122.474023 150.654438,115.045933 190.501322,85.0950112 C183.74298,93.2706124 170.021715,105.48765 149.337527,121.746123 C86.9290194,170.801326 19.9925442,126.625651 3.3616239,72.6909204 C-3.79859972,49.4700327 0.479577525,31.913635 16.1961556,20.0217276 C51.252079,10.8558536 81.7989694,7.27025689 107.836827,9.26493732 C140.438583,11.7624579 91.020669,8.85140877 43.3974151,7.66487884 Z" id="Combined-Shape"></path>
                        </g>
                    </g>
                    <g id="190308-Notification" transform="translate(5.000000, 0.000000)">
                        <g id="Group" transform="translate(58.450000, 110.950000)" fill="#FEFEFE" fill-rule="nonzero">
                            <g id="Layer2_0_MEMBER_0_MEMBER_0_MEMBER_0_MEMBER_1_MEMBER_0_FILL-link">
                                <g id="Layer2_0_MEMBER_0_MEMBER_0_MEMBER_0_MEMBER_1_MEMBER_0_FILL">
                                    <polygon id="Path" points="7.7 0.55 0.4 7.75 19.5 26.9 26.45 19.5"></polygon>
                                </g>
                            </g>
                        </g>
                        <g id="Group" transform="translate(67.450000, 76.950000)" fill="#FCDFDD" fill-rule="nonzero">
                            <g id="Layer2_0_MEMBER_0_MEMBER_0_MEMBER_0_MEMBER_1_MEMBER_1_FILL-link">
                                <g id="Layer2_0_MEMBER_0_MEMBER_0_MEMBER_0_MEMBER_1_MEMBER_1_FILL">
                                    <path d="M15.05,1.6 L10.95,0.7 L7.2,11.95 L5.7,15.45 L4.85,21.3 L4.85,28.1 L4.35,29.8 L0.2,35.95 L16.45,52 L20.4,48 C22.9,48 25.45,47.65 28.05,46.95 C33.7833333,45.4833333 37.6166667,42.7666667 39.55,38.8 L15.05,1.6 Z" id="Path"></path>
                                </g>
                            </g>
                        </g>
                        <g id="Group" transform="translate(80.450000, 41.950000)" fill="#FEFEFE" fill-rule="nonzero">
                            <g id="Layer2_0_MEMBER_0_MEMBER_0_MEMBER_0_MEMBER_1_MEMBER_2_FILL-link">
                                <g id="Layer2_0_MEMBER_0_MEMBER_0_MEMBER_0_MEMBER_1_MEMBER_2_FILL">
                                    <path d="M36.65,2.15 C35.75,1.25 34.6833333,0.8 33.45,0.8 L4.6,0.8 C3.36666667,0.8 2.3,1.25 1.4,2.15 C0.5,3.05 0.05,4.11666667 0.05,5.35 L0.05,36.3 L2.2,38.6 L2.55,40.45 L2.7,40.6 L3.35,43.45 L2.85,48.45 L1.85,52.3 L0.95,53.9 L3.55,59.3 L4.05,64.3 L4.05,73.45 L27.7,73.6 L33.55,73.05 L35.7,67.8 L37.85,56.1 L37.95,5.35 C37.95,4.08333333 37.5166667,3.01666667 36.65,2.15 Z" id="Path"></path>
                                </g>
                            </g>
                        </g>
                        <g id="Group" transform="translate(58.450000, 110.950000)" stroke="#2A3B4E" stroke-linecap="round" stroke-linejoin="round" stroke-width="0.75">
                            <g id="Layer2_0_MEMBER_0_MEMBER_0_MEMBER_0_MEMBER_1_MEMBER_3_1_STROKES-link">
                                <polygon id="Layer2_0_MEMBER_0_MEMBER_0_MEMBER_0_MEMBER_1_MEMBER_3_1_STROKES" points="0.4 7.75 19.5 26.9 26.45 19.5 7.7 0.55"></polygon>
                            </g>
                        </g>
                        <g id="Group" transform="translate(67.450000, 76.950000)" stroke="#2A3B4E" stroke-linecap="round" stroke-linejoin="round" stroke-width="0.75">
                            <g id="Layer2_0_MEMBER_0_MEMBER_0_MEMBER_0_MEMBER_1_MEMBER_4_1_STROKES-link">
                                <path d="M18.25,38.65 L17.05,38.45 C17.8833333,33.35 17.65,28.6333333 16.35,24.3 C14.9166667,20.9666667 14.1833333,19.2833333 14.15,19.25 L13.95,18.9 L15.4,16.2 C16.8666667,9.3 16.5,4.65 14.3,2.25 C13.3333333,1.21666667 12.2166667,0.7 10.95,0.7 L6.6,14.55 L6.5,14.65 C5.46666667,15.75 4.86666667,18.1166667 4.7,21.75 C4.6,24.35 4.7,26.8666667 5,29.3 L5,29.55 L0.8,35.35" id="Layer2_0_MEMBER_0_MEMBER_0_MEMBER_0_MEMBER_1_MEMBER_4_1_STROKES"></path>
                            </g>
                        </g>
                        <g id="Group" transform="translate(83.450000, 114.950000)" stroke="#2A3B4E" stroke-linecap="round" stroke-linejoin="round" stroke-width="0.75">
                            <g id="Layer2_0_MEMBER_0_MEMBER_0_MEMBER_0_MEMBER_1_MEMBER_5_1_STROKES-link">
                                <path d="M23.55,0.8 C21.6166667,4.76666667 17.7833333,7.48333333 12.05,8.95 C9.45,9.65 6.9,10 4.4,10 L0.45,14" id="Layer2_0_MEMBER_0_MEMBER_0_MEMBER_0_MEMBER_1_MEMBER_5_1_STROKES"></path>
                            </g>
                        </g>
                        <g id="Group" transform="translate(110.450000, 104.950000)" fill="#FCDFDD" fill-rule="nonzero">
                            <g id="Layer2_0_MEMBER_0_MEMBER_0_MEMBER_0_MEMBER_1_MEMBER_6_MEMBER_0_FILL-link">
                                <g id="Layer2_0_MEMBER_0_MEMBER_0_MEMBER_0_MEMBER_1_MEMBER_6_MEMBER_0_FILL">
                                    <path d="M10.5,7.35 C11.2666667,6.78333333 11.7,6.01666667 11.8,5.05 C11.9666667,4.11666667 11.75,3.28333333 11.15,2.55 L10.7,1.95 C10.1666667,1.21666667 9.41666667,0.783333333 8.45,0.65 C7.51666667,0.516666667 6.66666667,0.733333333 5.9,1.3 L2.1,4.25 C1.36666667,4.78333333 0.916666667,5.53333333 0.75,6.5 C0.65,7.43333333 0.883333333,8.28333333 1.45,9.05 L1.85,9.6 C2.55,10.5 3.46666667,10.95 4.6,10.95 C5.4,10.95 6.1,10.7166667 6.7,10.25 L10.5,7.35 Z" id="Path"></path>
                                </g>
                            </g>
                        </g>
                        <g id="Group" transform="translate(110.450000, 104.950000)" stroke="#2A3B4E" stroke-linecap="round" stroke-linejoin="round" stroke-width="0.75">
                            <g id="Layer2_0_MEMBER_0_MEMBER_0_MEMBER_0_MEMBER_1_MEMBER_6_MEMBER_1_1_STROKES-link">
                                <path d="M4.6,10.95 C3.46666667,10.95 2.55,10.5 1.85,9.6 L1.45,9.05 C0.883333333,8.28333333 0.65,7.43333333 0.75,6.5 C0.916666667,5.53333333 1.36666667,4.78333333 2.1,4.25 L5.9,1.3 C6.66666667,0.733333333 7.51666667,0.516666667 8.45,0.65 C9.41666667,0.783333333 10.1666667,1.21666667 10.7,1.95 L11.15,2.55 C11.75,3.28333333 11.9666667,4.11666667 11.8,5.05 C11.7,6.01666667 11.2666667,6.78333333 10.5,7.35 L6.7,10.25 C6.1,10.7166667 5.4,10.95 4.6,10.95 Z" id="Layer2_0_MEMBER_0_MEMBER_0_MEMBER_0_MEMBER_1_MEMBER_6_MEMBER_1_1_STROKES"></path>
                            </g>
                        </g>
                        <g id="Group" transform="translate(110.450000, 95.950000)" fill="#FCDFDD" fill-rule="nonzero">
                            <g id="Layer2_0_MEMBER_0_MEMBER_0_MEMBER_0_MEMBER_1_MEMBER_7_FILL-link">
                                <g id="Layer2_0_MEMBER_0_MEMBER_0_MEMBER_0_MEMBER_1_MEMBER_7_FILL">
                                    <path d="M11.15,2.45 L10.7,1.9 C10.1,1.13333333 9.35,0.7 8.45,0.6 C7.55,0.466666667 6.7,0.683333333 5.9,1.25 L2.1,4.2 C1.36666667,4.76666667 0.933333333,5.51666667 0.8,6.45 C0.666666667,7.41666667 0.883333333,8.26666667 1.45,9 L1.85,9.55 C2.41666667,10.3166667 3.18333333,10.75 4.15,10.85 L4.6,10.9 C5.36666667,10.9 6.06666667,10.6666667 6.7,10.2 L10.5,7.3 C11.2666667,6.73333333 11.7,5.96666667 11.8,5 C11.9333333,4.06666667 11.7166667,3.21666667 11.15,2.45 Z" id="Path"></path>
                                </g>
                            </g>
                        </g>
                        <g id="Group" transform="translate(110.450000, 86.950000)" fill="#FCDFDD" fill-rule="nonzero">
                            <g id="Layer2_0_MEMBER_0_MEMBER_0_MEMBER_0_MEMBER_1_MEMBER_8_FILL-link">
                                <g id="Layer2_0_MEMBER_0_MEMBER_0_MEMBER_0_MEMBER_1_MEMBER_8_FILL">
                                    <path d="M10.7,1.45 C10.1,0.683333333 9.35,0.25 8.45,0.15 C7.48333333,0.05 6.63333333,0.266666667 5.9,0.8 L2.1,3.75 C1.33333333,4.31666667 0.9,5.06666667 0.8,6 C0.666666667,6.96666667 0.883333333,7.81666667 1.45,8.55 L1.85,9.1 C2.38333333,9.83333333 3.15,10.2833333 4.15,10.45 L4.6,10.45 C5.36666667,10.45 6.06666667,10.2166667 6.7,9.75 L10.5,6.85 C11.2666667,6.28333333 11.7,5.53333333 11.8,4.6 C11.9333333,3.63333333 11.7166667,2.78333333 11.15,2.05 L10.7,1.45 Z" id="Path"></path>
                                </g>
                            </g>
                        </g>
                        <g id="Group" transform="translate(110.450000, 74.950000)" fill="#FCDFDD" fill-rule="nonzero">
                            <g id="Layer2_0_MEMBER_0_MEMBER_0_MEMBER_0_MEMBER_1_MEMBER_9_FILL-link">
                                <g id="Layer2_0_MEMBER_0_MEMBER_0_MEMBER_0_MEMBER_1_MEMBER_9_FILL">
                                    <path d="M4.6,13 C5.33333333,13 6.03333333,12.7666667 6.7,12.3 L12,8.25 C12.7666667,7.68333333 13.2,6.93333333 13.3,6 C13.4333333,5.03333333 13.2166667,4.16666667 12.65,3.4 L11.45,1.9 C10.9166667,1.16666667 10.1666667,0.716666667 9.2,0.55 C8.23333333,0.45 7.38333333,0.683333333 6.65,1.25 L1.35,5.3 C0.583333333,5.86666667 0.15,6.61666667 0.05,7.55 C-0.0833333333,8.45 0.133333333,9.3 0.7,10.1 L1.85,11.65 C2.58333333,12.55 3.5,13 4.6,13 Z" id="Path"></path>
                                </g>
                            </g>
                        </g>
                        <g id="Group" transform="translate(110.450000, 95.950000)" stroke="#2A3B4E" stroke-linecap="round" stroke-linejoin="round" stroke-width="0.75">
                            <g id="Layer2_0_MEMBER_0_MEMBER_0_MEMBER_0_MEMBER_1_MEMBER_10_1_STROKES-link">
                                <path d="M4.6,10.9 L4.15,10.85 C3.18333333,10.75 2.41666667,10.3166667 1.85,9.55 L1.45,9 C0.883333333,8.26666667 0.666666667,7.41666667 0.8,6.45 C0.933333333,5.51666667 1.36666667,4.76666667 2.1,4.2 L5.9,1.25 C6.7,0.683333333 7.55,0.466666667 8.45,0.6 C9.35,0.7 10.1,1.13333333 10.7,1.9 L11.15,2.45 C11.7166667,3.21666667 11.9333333,4.06666667 11.8,5 C11.7,5.96666667 11.2666667,6.73333333 10.5,7.3 L6.7,10.2 C6.06666667,10.6666667 5.36666667,10.9 4.6,10.9 Z" id="Layer2_0_MEMBER_0_MEMBER_0_MEMBER_0_MEMBER_1_MEMBER_10_1_STROKES"></path>
                            </g>
                        </g>
                        <g id="Group" transform="translate(110.450000, 86.950000)" stroke="#2A3B4E" stroke-linecap="round" stroke-linejoin="round" stroke-width="0.75">
                            <g id="Layer2_0_MEMBER_0_MEMBER_0_MEMBER_0_MEMBER_1_MEMBER_11_1_STROKES-link">
                                <path d="M4.6,10.45 L4.15,10.45 C3.15,10.2833333 2.38333333,9.83333333 1.85,9.1 L1.45,8.55 C0.883333333,7.81666667 0.666666667,6.96666667 0.8,6 C0.9,5.06666667 1.33333333,4.31666667 2.1,3.75 L5.9,0.8 C6.63333333,0.266666667 7.48333333,0.05 8.45,0.15 C9.35,0.25 10.1,0.683333333 10.7,1.45 L11.15,2.05 C11.7166667,2.78333333 11.9333333,3.63333333 11.8,4.6 C11.7,5.53333333 11.2666667,6.28333333 10.5,6.85 L6.7,9.75 C6.06666667,10.2166667 5.36666667,10.45 4.6,10.45 Z" id="Layer2_0_MEMBER_0_MEMBER_0_MEMBER_0_MEMBER_1_MEMBER_11_1_STROKES"></path>
                            </g>
                        </g>
                        <g id="Group" transform="translate(110.450000, 74.950000)" stroke="#2A3B4E" stroke-linecap="round" stroke-linejoin="round" stroke-width="0.75">
                            <g id="Layer2_0_MEMBER_0_MEMBER_0_MEMBER_0_MEMBER_1_MEMBER_12_1_STROKES-link">
                                <path d="M4.6,13 C3.5,13 2.58333333,12.55 1.85,11.65 L0.7,10.1 C0.133333333,9.3 -0.0833333333,8.45 0.05,7.55 C0.15,6.61666667 0.583333333,5.86666667 1.35,5.3 L6.65,1.25 C7.38333333,0.683333333 8.23333333,0.45 9.2,0.55 C10.1666667,0.716666667 10.9166667,1.16666667 11.45,1.9 L12.65,3.4 C13.2166667,4.16666667 13.4333333,5.03333333 13.3,6 C13.2,6.93333333 12.7666667,7.68333333 12,8.25 L6.7,12.3 C6.03333333,12.7666667 5.33333333,13 4.6,13 Z" id="Layer2_0_MEMBER_0_MEMBER_0_MEMBER_0_MEMBER_1_MEMBER_12_1_STROKES"></path>
                            </g>
                        </g>
                        <g id="Group" transform="translate(84.450000, 114.950000)" stroke="#2A3B4E" stroke-linecap="round" stroke-linejoin="round" stroke-width="0.75">
                            <g id="Layer2_0_MEMBER_0_MEMBER_0_MEMBER_0_MEMBER_1_MEMBER_13_1_STROKES-link">
                                <path d="M28.7,0.5 L0.6,0.5" id="Layer2_0_MEMBER_0_MEMBER_0_MEMBER_0_MEMBER_1_MEMBER_13_1_STROKES"></path>
                            </g>
                        </g>
                        <g id="Group" transform="translate(89.450000, 41.950000)" stroke="#2A3B4E" stroke-linecap="round" stroke-linejoin="round" stroke-width="0.75">
                            <g id="Layer2_0_MEMBER_0_MEMBER_0_MEMBER_0_MEMBER_1_MEMBER_14_1_STROKES-link">
                                <path d="M19.7,0.95 C19.7,2.18333333 19.25,3.23333333 18.35,4.1 C17.4833333,5 16.4333333,5.45 15.2,5.45 L4.85,5.45 C3.61666667,5.45 2.55,5 1.65,4.1 C0.783333333,3.23333333 0.35,2.18333333 0.35,0.95" id="Layer2_0_MEMBER_0_MEMBER_0_MEMBER_0_MEMBER_1_MEMBER_14_1_STROKES"></path>
                            </g>
                        </g>
                        <g id="Group" transform="translate(95.450000, 106.950000)" stroke="#2A3B4E" stroke-linecap="round" stroke-linejoin="round" stroke-width="0.75">
                            <g id="Layer2_0_MEMBER_0_MEMBER_0_MEMBER_0_MEMBER_1_MEMBER_15_1_STROKES-link">
                                <path d="M0.75,1.35 L7.3,1.35" id="Layer2_0_MEMBER_0_MEMBER_0_MEMBER_0_MEMBER_1_MEMBER_15_1_STROKES"></path>
                            </g>
                        </g>
                        <g id="Group" transform="translate(86.450000, 54.950000)" stroke="#2A3B4E" stroke-linecap="round" stroke-linejoin="round" stroke-width="0.75">
                            <g id="Layer2_0_MEMBER_0_MEMBER_0_MEMBER_0_MEMBER_1_MEMBER_16_1_STROKES-link">
                                <path d="M1.2,0.3 L1.2,15.55" id="Layer2_0_MEMBER_0_MEMBER_0_MEMBER_0_MEMBER_1_MEMBER_16_1_STROKES"></path>
                            </g>
                        </g>
                        <g id="Group" transform="translate(89.450000, 54.950000)" stroke="#2A3B4E" stroke-linecap="round" stroke-linejoin="round" stroke-width="0.75">
                            <g id="Layer2_0_MEMBER_0_MEMBER_0_MEMBER_0_MEMBER_1_MEMBER_17_1_STROKES-link">
                                <path d="M1.2,0.3 L1.2,12.8" id="Layer2_0_MEMBER_0_MEMBER_0_MEMBER_0_MEMBER_1_MEMBER_17_1_STROKES"></path>
                            </g>
                        </g>
                        <g id="Group" transform="translate(93.450000, 54.950000)" stroke="#2A3B4E" stroke-linecap="round" stroke-linejoin="round" stroke-width="0.75">
                            <g id="Layer2_0_MEMBER_0_MEMBER_0_MEMBER_0_MEMBER_1_MEMBER_18_1_STROKES-link">
                                <path d="M1.2,0.3 L1.2,12.8" id="Layer2_0_MEMBER_0_MEMBER_0_MEMBER_0_MEMBER_1_MEMBER_18_1_STROKES"></path>
                            </g>
                        </g>
                        <g id="Group" transform="translate(96.450000, 54.950000)" stroke="#2A3B4E" stroke-linecap="round" stroke-linejoin="round" stroke-width="0.75">
                            <g id="Layer2_0_MEMBER_0_MEMBER_0_MEMBER_0_MEMBER_1_MEMBER_19_1_STROKES-link">
                                <path d="M1.2,0.3 L1.2,12.8" id="Layer2_0_MEMBER_0_MEMBER_0_MEMBER_0_MEMBER_1_MEMBER_19_1_STROKES"></path>
                            </g>
                        </g>
                        <g id="Group" transform="translate(99.450000, 54.950000)" stroke="#2A3B4E" stroke-linecap="round" stroke-linejoin="round" stroke-width="0.75">
                            <g id="Layer2_0_MEMBER_0_MEMBER_0_MEMBER_0_MEMBER_1_MEMBER_20_1_STROKES-link">
                                <path d="M1.2,0.3 L1.2,15.55" id="Layer2_0_MEMBER_0_MEMBER_0_MEMBER_0_MEMBER_1_MEMBER_20_1_STROKES"></path>
                            </g>
                        </g>
                        <g id="Group" transform="translate(103.450000, 54.950000)" stroke="#2A3B4E" stroke-linecap="round" stroke-linejoin="round" stroke-width="0.75">
                            <g id="Layer2_0_MEMBER_0_MEMBER_0_MEMBER_0_MEMBER_1_MEMBER_21_1_STROKES-link">
                                <path d="M1.2,0.3 L1.2,12.8" id="Layer2_0_MEMBER_0_MEMBER_0_MEMBER_0_MEMBER_1_MEMBER_21_1_STROKES"></path>
                            </g>
                        </g>
                        <g id="Group" transform="translate(106.450000, 54.950000)" stroke="#2A3B4E" stroke-linecap="round" stroke-linejoin="round" stroke-width="0.75">
                            <g id="Layer2_0_MEMBER_0_MEMBER_0_MEMBER_0_MEMBER_1_MEMBER_22_1_STROKES-link">
                                <path d="M1.2,0.3 L1.2,12.8" id="Layer2_0_MEMBER_0_MEMBER_0_MEMBER_0_MEMBER_1_MEMBER_22_1_STROKES"></path>
                            </g>
                        </g>
                        <g id="Group" transform="translate(110.450000, 54.950000)" stroke="#2A3B4E" stroke-linecap="round" stroke-linejoin="round" stroke-width="0.75">
                            <g id="Layer2_0_MEMBER_0_MEMBER_0_MEMBER_0_MEMBER_1_MEMBER_23_1_STROKES-link">
                                <path d="M1.2,0.3 L1.2,15.55" id="Layer2_0_MEMBER_0_MEMBER_0_MEMBER_0_MEMBER_1_MEMBER_23_1_STROKES"></path>
                            </g>
                        </g>
                        <g id="Group" transform="translate(80.450000, 41.950000)" stroke="#2A3B4E" stroke-linecap="round" stroke-linejoin="round" stroke-width="0.75">
                            <g id="Layer2_0_MEMBER_0_MEMBER_0_MEMBER_0_MEMBER_1_MEMBER_24_1_STROKES-link">
                                <path d="M0.05,36.3 L0.05,5.35 C0.05,4.11666667 0.5,3.05 1.4,2.15 C2.3,1.25 3.36666667,0.8 4.6,0.8 L33.45,0.8 C34.6833333,0.8 35.75,1.25 36.65,2.15 C37.5166667,3.01666667 37.95,4.08333333 37.95,5.35 L37.95,33.65" id="Layer2_0_MEMBER_0_MEMBER_0_MEMBER_0_MEMBER_1_MEMBER_24_1_STROKES"></path>
                            </g>
                        </g>
                        <g id="Group" transform="translate(151.933569, 96.908923)" fill="#FFECC0" fill-rule="nonzero">
                            <g id="Layer2_0_MEMBER_1_MEMBER_0_MEMBER_0_MEMBER_0_FILL-link">
                                <g id="Layer2_0_MEMBER_1_MEMBER_0_MEMBER_0_MEMBER_0_FILL">
                                    <path d="M7.15716705,0.0361473083 C6.02455139,0.0120491028 4.96423035,0.253031158 3.97620392,0.759093475 C2.24113312,1.60253067 1.06032104,2.95203018 0.4337677,4.80759201 C-0.192785645,6.63905563 -0.0843437195,8.42232285 0.759093475,10.1573936 L3.21711044,15.1457222 L2.53031158,15.471048 C2.12064209,15.6638336 1.85556183,15.9650612 1.7350708,16.3747307 C1.59048157,16.8084984 1.61457977,17.2181679 1.80736542,17.6037392 C2.00015106,18.0134087 2.31342773,18.290538 2.74719543,18.4351273 C3.18096313,18.5797165 3.59063263,18.5556183 3.97620392,18.3628326 L17.9290649,11.4948441 C18.3387344,11.3261566 18.6038147,11.024929 18.7243057,10.5911613 C18.868895,10.1814919 18.8447968,9.77182236 18.6520111,9.36215286 C18.4592255,8.95248337 18.1459488,8.675354 17.7121811,8.53076477 C17.2784134,8.38617554 16.8687439,8.41027374 16.4831726,8.60305939 L15.8325211,8.92838516 L13.9890083,5.24135971 L10.193541,0.759093475 C9.22961273,0.277129364 8.2174881,0.0361473083 7.15716705,0.0361473083 Z" id="Path"></path>
                                </g>
                            </g>
                        </g>
                        <g id="Group" transform="translate(161.331870, 112.090793)" fill="#FFECC0" fill-rule="nonzero">
                            <g id="Layer2_0_MEMBER_1_MEMBER_0_MEMBER_0_MEMBER_1_FILL-link">
                                <g id="Layer2_0_MEMBER_1_MEMBER_0_MEMBER_0_MEMBER_1_FILL">
                                    <path d="M4.55456085,0.578356934 L0.0722946167,2.78334274 L0.253031158,3.36169968 C0.566307831,3.98825302 1.06032104,4.40997162 1.7350708,4.62685547 C2.40982056,4.84373932 3.06047211,4.80759201 3.68702545,4.51841354 C4.3135788,4.20513687 4.7473465,3.71112366 4.98832855,3.0363739 C5.22931061,2.36162415 5.1931633,1.7109726 4.87988663,1.08441925 L4.55456085,0.578356934 Z" id="Path"></path>
                                </g>
                            </g>
                        </g>
                        <g id="Group" transform="translate(159.163031, 83.172946)" fill="#C6E8EF" fill-rule="nonzero">
                            <g id="Layer2_0_MEMBER_1_MEMBER_0_MEMBER_0_MEMBER_2_FILL-link">
                                <g id="Layer2_0_MEMBER_1_MEMBER_0_MEMBER_0_MEMBER_2_FILL">
                                    <polygon id="Path" points="21.8329742 14.2781868 17.7121811 0.289178467 0.542209625 5.34980164 4.66300278 19.33881 10.085099 17.7483284 14.3504814 20.0617561 16.7000565 15.7963737"></polygon>
                                </g>
                            </g>
                        </g>
                        <g id="Group" transform="translate(150.487677, 95.463031)" stroke="#2A3B4E" stroke-linecap="round" stroke-linejoin="round" stroke-width="0.749997631">
                            <g id="Layer2_0_MEMBER_1_MEMBER_0_MEMBER_0_MEMBER_3_1_STROKES-link" transform="translate(0.517511, 0.536248)">
                                <path d="M11.1270751,1.66801155 C10.16315,1.18604896 9.15102853,0.945067663 8.09071083,0.945067663 C6.95809875,0.920969533 5.89778105,1.16195083 4.90975775,1.66801155 C3.17469243,2.51144608 1.99388408,3.86094133 1.36733272,5.71649729 C0.740781351,7.54795513 0.849222934,9.33121671 1.69265746,11.066282 L4.15066667,16.0545948 L3.46386998,16.3799196 C3.05420178,16.5727046 2.78912235,16.8739312 2.66863171,17.2835994 C2.52404293,17.7173658 2.54814106,18.127034 2.7409261,18.512604 C2.93371113,18.9222722 3.24698681,19.1994007 3.68075314,19.3439895 C4.11451947,19.4885783 4.52418767,19.4644801 4.90975775,19.2716951 L18.8625747,12.4037282 C19.2722429,12.2350413 19.5373223,11.9338147 19.657813,11.5000484 C19.8024017,11.0903802 19.7783036,10.680712 19.5855186,10.2710438 C19.3927335,9.86137556 19.0794579,9.58424707 18.6456915,9.43965829 C18.2119252,9.29506952 17.802257,9.31916764 17.4166869,9.51195268 L16.7660374,9.83727743 L14.9225305,6.15026362" id="Layer2_0_MEMBER_1_MEMBER_0_MEMBER_0_MEMBER_3_1_STROKES"></path>
                            </g>
                        </g>
                        <g id="Group" transform="translate(160.608923, 111.367847)" stroke="#2A3B4E" stroke-linecap="round" stroke-linejoin="round" stroke-width="0.749997631">
                            <g id="Layer2_0_MEMBER_1_MEMBER_0_MEMBER_0_MEMBER_4_1_STROKES-link" transform="translate(0.396233, 0.631382)">
                                <path d="M0.404162847,2.87412651 L0.584898818,3.45248162 C0.8981745,4.07903298 1.39218615,4.50075025 2.06693378,4.71763341 C2.7416814,4.93451658 3.3923309,4.89836938 4.01888226,4.60919183 C4.64543363,4.29591615 5.07919996,3.80190449 5.32018125,3.12715687 C5.56116255,2.45240925 5.52501535,1.80175975 5.21173967,1.17520838 L4.88641492,0.669147667 L0.404162847,2.87412651 Z" id="Layer2_0_MEMBER_1_MEMBER_0_MEMBER_0_MEMBER_4_1_STROKES"></path>
                            </g>
                        </g>
                        <g id="Group" transform="translate(158.440085, 82.450000)" stroke="#2A3B4E" stroke-linecap="round" stroke-linejoin="round" stroke-width="0.749997631">
                            <g id="Layer2_0_MEMBER_1_MEMBER_0_MEMBER_0_MEMBER_5_1_STROKES-link" transform="translate(0.565077, 0.549320)">
                                <polygon id="Layer2_0_MEMBER_1_MEMBER_0_MEMBER_0_MEMBER_5_1_STROKES" points="17.8751556 0.462123174 0.705238403 5.52273036 4.82601854 19.5116945 10.2480977 17.921218 14.5134666 20.2346384 16.8630342 15.9692695 21.9959358 14.4510873"></polygon>
                            </g>
                        </g>
                        <g id="Group" transform="translate(165.669547, 88.956516)" stroke="#2A3B4E" stroke-linecap="round" stroke-linejoin="round" stroke-width="0.749997631">
                            <g id="Layer2_0_MEMBER_1_MEMBER_0_MEMBER_0_MEMBER_6_1_STROKES-link" transform="translate(0.335594, 0.042786)">
                                <path d="M0.284049853,2.55911362 L7.4411943,0.426429164" id="Layer2_0_MEMBER_1_MEMBER_0_MEMBER_0_MEMBER_6_1_STROKES"></path>
                            </g>
                        </g>
                        <g id="Group" transform="translate(166.392493, 91.848300)" stroke="#2A3B4E" stroke-linecap="round" stroke-linejoin="round" stroke-width="0.749997631">
                            <g id="Layer2_0_MEMBER_1_MEMBER_0_MEMBER_0_MEMBER_7_1_STROKES-link" transform="translate(0.612644, 0.150992)">
                                <path d="M0.115438478,2.41475144 L7.30873012,0.28206698" id="Layer2_0_MEMBER_1_MEMBER_0_MEMBER_0_MEMBER_7_1_STROKES"></path>
                            </g>
                        </g>
                        <g id="Group" transform="translate(166.392493, 94.740085)" stroke="#2A3B4E" stroke-linecap="round" stroke-linejoin="round" stroke-width="0.749997631">
                            <g id="Layer2_0_MEMBER_1_MEMBER_0_MEMBER_0_MEMBER_8_1_STROKES-link" transform="translate(0.612644, 0.259198)">
                                <path d="M0.946823944,2.23424206 L8.14011558,0.137704796" id="Layer2_0_MEMBER_1_MEMBER_0_MEMBER_0_MEMBER_8_1_STROKES"></path>
                            </g>
                        </g>
                        <g id="Group" transform="translate(148.318839, 98.354816)" stroke="#2A3B4E" stroke-linecap="round" stroke-linejoin="round" stroke-width="0.749997631">
                            <g id="Layer2_0_MEMBER_1_MEMBER_0_MEMBER_0_MEMBER_9_1_STROKES-link" transform="translate(0.686355, 0.644454)">
                                <path d="M1.70455547,0.0777615952 L0.837022808,2.13815166 C0.355060219,3.89731511 0.427354607,5.70467482 1.05390597,7.56023079" id="Layer2_0_MEMBER_1_MEMBER_0_MEMBER_0_MEMBER_9_1_STROKES"></path>
                            </g>
                        </g>
                        <g id="Group" transform="translate(145.427054, 99.800708)" stroke="#2A3B4E" stroke-linecap="round" stroke-linejoin="round" stroke-width="0.749997631">
                            <g id="Layer2_0_MEMBER_1_MEMBER_0_MEMBER_0_MEMBER_10_1_STROKES-link" transform="translate(0.578150, 0.198559)">
                                <path d="M1.66818168,0.993566045 L1.27056255,1.93339309 C1.05367938,2.72863136 1.08982657,3.56001683 1.37900413,4.42754949" id="Layer2_0_MEMBER_1_MEMBER_0_MEMBER_0_MEMBER_10_1_STROKES"></path>
                            </g>
                        </g>
                        <g id="Group" transform="translate(0.700000, 74.600000)" fill="#C6E8EF" fill-rule="nonzero">
                            <g id="Layer2_0_MEMBER_2_MEMBER_0_MEMBER_0_MEMBER_0_MEMBER_0_FILL-link">
                                <g id="Layer2_0_MEMBER_2_MEMBER_0_MEMBER_0_MEMBER_0_MEMBER_0_FILL">
                                    <path d="M24,0.8 C23.6333333,0.466666667 23.2166667,0.3 22.75,0.3 L1.95,0.3 C1.48333333,0.3 1.06666667,0.466666667 0.7,0.8 C0.366666667,1.13333333 0.2,1.53333333 0.2,2 L0.2,8.4 C0.2,8.86666667 0.366666667,9.28333333 0.7,9.65 C1.06666667,9.98333333 1.48333333,10.15 1.95,10.15 L3.25,10.15 L3.25,15.8 L8.95,10.15 L22.75,10.15 C23.2166667,10.15 23.6333333,9.98333333 24,9.65 C24.3333333,9.28333333 24.5,8.86666667 24.5,8.4 L24.5,2 C24.5,1.53333333 24.3333333,1.13333333 24,0.8 Z" id="Path"></path>
                                </g>
                            </g>
                        </g>
                        <g id="Group" transform="translate(11.700000, 61.600000)" fill="#FFECC0" fill-rule="nonzero">
                            <g id="Layer2_0_MEMBER_2_MEMBER_0_MEMBER_0_MEMBER_0_MEMBER_1_FILL-link">
                                <g id="Layer2_0_MEMBER_2_MEMBER_0_MEMBER_0_MEMBER_0_MEMBER_1_FILL">
                                    <path d="M24.35,0.75 C23.9833333,0.416666667 23.5666667,0.25 23.1,0.25 L2.3,0.25 C1.83333333,0.25 1.41666667,0.416666667 1.05,0.75 C0.716666667,1.11666667 0.55,1.53333333 0.55,2 L0.55,8.35 C0.55,8.81666667 0.716666667,9.23333333 1.05,9.6 C1.41666667,9.93333333 1.83333333,10.1 2.3,10.1 L16.1,10.1 L21.8,15.75 L21.8,10.1 L23.1,10.1 C23.5666667,10.1 23.9833333,9.93333333 24.35,9.6 C24.6833333,9.23333333 24.85,8.81666667 24.85,8.35 L24.85,2 C24.85,1.53333333 24.6833333,1.11666667 24.35,0.75 Z" id="Path"></path>
                                </g>
                            </g>
                        </g>
                        <g id="Group" transform="translate(11.700000, 87.600000)" fill="#FFECC0" fill-rule="nonzero">
                            <g id="Layer2_0_MEMBER_2_MEMBER_0_MEMBER_0_MEMBER_0_MEMBER_2_FILL-link">
                                <g id="Layer2_0_MEMBER_2_MEMBER_0_MEMBER_0_MEMBER_0_MEMBER_2_FILL">
                                    <path d="M2.3,0.3 C1.83333333,0.3 1.41666667,0.466666667 1.05,0.8 C0.716666667,1.16666667 0.55,1.58333333 0.55,2.05 L0.55,8.4 C0.55,8.9 0.716666667,9.31666667 1.05,9.65 C1.41666667,9.98333333 1.83333333,10.15 2.3,10.15 L16.1,10.15 L21.8,15.8 L21.8,10.15 L23.1,10.15 C23.5666667,10.15 23.9833333,9.98333333 24.35,9.65 C24.6833333,9.31666667 24.85,8.9 24.85,8.4 L24.85,2.05 C24.85,1.58333333 24.6833333,1.16666667 24.35,0.8 C23.9833333,0.466666667 23.5666667,0.3 23.1,0.3 L2.3,0.3 Z" id="Path"></path>
                                </g>
                            </g>
                        </g>
                        <g id="Group" transform="translate(11.700000, 61.600000)" stroke="#2A3B4E" stroke-linecap="round" stroke-linejoin="round" stroke-width="0.75">
                            <g id="Layer2_0_MEMBER_2_MEMBER_0_MEMBER_0_MEMBER_0_MEMBER_3_1_STROKES-link">
                                <path d="M2.3,0.25 L23.1,0.25 C23.5666667,0.25 23.9833333,0.416666667 24.35,0.75 C24.6833333,1.11666667 24.85,1.53333333 24.85,2 L24.85,8.35 C24.85,8.81666667 24.6833333,9.23333333 24.35,9.6 C23.9833333,9.93333333 23.5666667,10.1 23.1,10.1 L21.8,10.1 L21.8,15.75 L16.1,10.1 L2.3,10.1 C1.83333333,10.1 1.41666667,9.93333333 1.05,9.6 C0.716666667,9.23333333 0.55,8.81666667 0.55,8.35 L0.55,2 C0.55,1.53333333 0.716666667,1.11666667 1.05,0.75 C1.41666667,0.416666667 1.83333333,0.25 2.3,0.25 Z" id="Layer2_0_MEMBER_2_MEMBER_0_MEMBER_0_MEMBER_0_MEMBER_3_1_STROKES"></path>
                            </g>
                        </g>
                        <g id="Group" transform="translate(11.700000, 87.600000)" stroke="#2A3B4E" stroke-linecap="round" stroke-linejoin="round" stroke-width="0.75">
                            <g id="Layer2_0_MEMBER_2_MEMBER_0_MEMBER_0_MEMBER_0_MEMBER_4_1_STROKES-link">
                                <path d="M2.3,0.3 L23.1,0.3 C23.5666667,0.3 23.9833333,0.466666667 24.35,0.8 C24.6833333,1.16666667 24.85,1.58333333 24.85,2.05 L24.85,8.4 C24.85,8.9 24.6833333,9.31666667 24.35,9.65 C23.9833333,9.98333333 23.5666667,10.15 23.1,10.15 L21.8,10.15 L21.8,15.8 L16.1,10.15 L2.3,10.15 C1.83333333,10.15 1.41666667,9.98333333 1.05,9.65 C0.716666667,9.31666667 0.55,8.9 0.55,8.4 L0.55,2.05 C0.55,1.58333333 0.716666667,1.16666667 1.05,0.8 C1.41666667,0.466666667 1.83333333,0.3 2.3,0.3 Z" id="Layer2_0_MEMBER_2_MEMBER_0_MEMBER_0_MEMBER_0_MEMBER_4_1_STROKES"></path>
                            </g>
                        </g>
                        <g id="Group" transform="translate(0.700000, 74.600000)" stroke="#2A3B4E" stroke-linecap="round" stroke-linejoin="round" stroke-width="0.75">
                            <g id="Layer2_0_MEMBER_2_MEMBER_0_MEMBER_0_MEMBER_0_MEMBER_5_1_STROKES-link">
                                <path d="M22.75,0.3 L1.95,0.3 C1.48333333,0.3 1.06666667,0.466666667 0.7,0.8 C0.366666667,1.13333333 0.2,1.53333333 0.2,2 L0.2,8.4 C0.2,8.86666667 0.366666667,9.28333333 0.7,9.65 C1.06666667,9.98333333 1.48333333,10.15 1.95,10.15 L3.25,10.15 L3.25,15.8 L8.95,10.15 L22.75,10.15 C23.2166667,10.15 23.6333333,9.98333333 24,9.65 C24.3333333,9.28333333 24.5,8.86666667 24.5,8.4 L24.5,2 C24.5,1.53333333 24.3333333,1.13333333 24,0.8 C23.6333333,0.466666667 23.2166667,0.3 22.75,0.3 Z" id="Layer2_0_MEMBER_2_MEMBER_0_MEMBER_0_MEMBER_0_MEMBER_5_1_STROKES"></path>
                            </g>
                        </g>
                        <g id="Group" transform="translate(15.700000, 64.600000)" stroke="#2A3B4E" stroke-linecap="round" stroke-linejoin="round" stroke-width="0.75">
                            <g id="Layer2_0_MEMBER_2_MEMBER_0_MEMBER_0_MEMBER_0_MEMBER_6_1_STROKES-link">
                                <path d="M0.2,0.75 L9.5,0.75" id="Layer2_0_MEMBER_2_MEMBER_0_MEMBER_0_MEMBER_0_MEMBER_6_1_STROKES"></path>
                            </g>
                        </g>
                        <g id="Group" transform="translate(28.700000, 64.600000)" stroke="#2A3B4E" stroke-linecap="round" stroke-linejoin="round" stroke-width="0.75">
                            <g id="Layer2_0_MEMBER_2_MEMBER_0_MEMBER_0_MEMBER_0_MEMBER_7_1_STROKES-link">
                                <path d="M0.6,0.75 L3.5,0.75" id="Layer2_0_MEMBER_2_MEMBER_0_MEMBER_0_MEMBER_0_MEMBER_7_1_STROKES"></path>
                            </g>
                        </g>
                        <g id="Group" transform="translate(3.700000, 79.600000)" stroke="#2A3B4E" stroke-linecap="round" stroke-linejoin="round" stroke-width="0.75">
                            <g id="Layer2_0_MEMBER_2_MEMBER_0_MEMBER_0_MEMBER_0_MEMBER_8_1_STROKES-link">
                                <path d="M0.85,0.5 L7.35,0.5" id="Layer2_0_MEMBER_2_MEMBER_0_MEMBER_0_MEMBER_0_MEMBER_8_1_STROKES"></path>
                            </g>
                        </g>
                        <g id="Group" transform="translate(13.700000, 79.600000)" stroke="#2A3B4E" stroke-linecap="round" stroke-linejoin="round" stroke-width="0.75">
                            <g id="Layer2_0_MEMBER_2_MEMBER_0_MEMBER_0_MEMBER_0_MEMBER_9_1_STROKES-link">
                                <path d="M0.15,0.5 L2.2,0.5" id="Layer2_0_MEMBER_2_MEMBER_0_MEMBER_0_MEMBER_0_MEMBER_9_1_STROKES"></path>
                            </g>
                        </g>
                        <g id="Group" transform="translate(54.000000, 9.854065)" fill="#FEFEFE" fill-rule="nonzero">
                            <g id="Layer2_0_MEMBER_3_MEMBER_0_MEMBER_0_MEMBER_0_FILL-link">
                                <g id="Layer2_0_MEMBER_3_MEMBER_0_MEMBER_0_MEMBER_0_FILL">
                                    <path d="M29.8250763,20.0392853 C30.4246958,19.9193614 30.9043915,19.5955668 31.2641632,19.0679016 C31.5999502,18.5642212 31.7078817,18.0125712 31.5879578,17.4129517 L30.0409393,9.1382019 L14.7506409,0 L2.5184021,2.33851624 C1.91878255,2.45844014 1.43908691,2.7822347 1.07931519,3.3098999 C0.743528239,3.81358032 0.63559672,4.36523031 0.75552063,4.96484985 L4.10139771,22.6656189 C4.22132161,23.2892232 4.53312378,23.7689189 5.0368042,24.1047058 C5.5644694,24.4404928 6.12811178,24.5484243 6.72773132,24.4285004 L29.8250763,20.0392853 Z" id="Path"></path>
                                </g>
                            </g>
                        </g>
                        <g id="Group" transform="translate(54.000000, 9.854065)" fill="#F3F3F4" fill-rule="nonzero">
                            <g id="Layer2_0_MEMBER_3_MEMBER_0_MEMBER_0_MEMBER_1_FILL-link">
                                <g id="Layer2_0_MEMBER_3_MEMBER_0_MEMBER_0_MEMBER_1_FILL">
                                    <path d="M0.75552063,5.18071289 L1.51104126,9.35406494 L23.0253906,4.96484985 L14.9305267,0 L2.55437927,2.44644775 C1.93077494,2.56637166 1.45107931,2.90215861 1.11529236,3.45380859 C0.75552063,3.9814738 0.63559672,4.55710856 0.75552063,5.18071289 Z" id="Path"></path>
                                </g>
                            </g>
                        </g>
                        <g id="Group" transform="translate(68.390869, 1.219543)" fill="#FFECC0" fill-rule="nonzero">
                            <g id="Layer2_0_MEMBER_3_MEMBER_0_MEMBER_0_MEMBER_2_FILL-link">
                                <g id="Layer2_0_MEMBER_3_MEMBER_0_MEMBER_0_MEMBER_2_FILL">
                                    <path d="M20.8307831,13.7792572 C22.6536265,11.6446116 23.3371928,9.36605733 22.8814819,6.94359436 C22.4257711,4.52113139 20.950707,2.66231079 18.4562897,1.36713257 C15.9858571,0.0479695638 13.2276072,-0.311802165 10.1815399,0.287817383 C7.13547262,0.863452148 4.70101725,2.21859233 2.87817383,4.35323792 C1.0553304,6.4878835 0.371764119,8.75444539 0.827474976,11.1529236 C1.25920105,13.4794474 2.63832601,15.3022909 4.96484985,16.6214539 L6.18807373,23.0253906 L10.5772888,18.0965179 C11.6086344,18.0965179 12.5920105,18.0125712 13.527417,17.8446777 C16.5734843,17.2450582 19.0079397,15.889918 20.8307831,13.7792572 Z" id="Path"></path>
                                </g>
                            </g>
                        </g>
                        <g id="Group" transform="translate(73.427673, 7.695435)" stroke="#2A3B4E" stroke-linecap="round" stroke-linejoin="round" stroke-width="0.749991972">
                            <g id="Layer2_0_MEMBER_3_MEMBER_0_MEMBER_0_MEMBER_3_1_STROKES-link" transform="translate(0.578907, 0.315191)">
                                <path d="M0.147215221,1.8540451 L6.62303702,0.414973586" id="Layer2_0_MEMBER_3_MEMBER_0_MEMBER_0_MEMBER_3_1_STROKES"></path>
                            </g>
                        </g>
                        <g id="Group" transform="translate(82.781738, 6.975891)" stroke="#2A3B4E" stroke-linecap="round" stroke-linejoin="round" stroke-width="0.749991972">
                            <g id="Layer2_0_MEMBER_3_MEMBER_0_MEMBER_0_MEMBER_4_1_STROKES-link" transform="translate(0.224745, 0.034745)">
                                <path d="M0.501276373,1.19910216 L2.65988364,0.695427127" id="Layer2_0_MEMBER_3_MEMBER_0_MEMBER_0_MEMBER_4_1_STROKES"></path>
                            </g>
                        </g>
                        <g id="Group" transform="translate(73.427673, 11.293152)" stroke="#2A3B4E" stroke-linecap="round" stroke-linejoin="round" stroke-width="0.749991972">
                            <g id="Layer2_0_MEMBER_3_MEMBER_0_MEMBER_0_MEMBER_5_1_STROKES-link" transform="translate(0.578907, 0.717431)">
                                <path d="M0.866750976,1.45176669 L4.46442975,0.732230932" id="Layer2_0_MEMBER_3_MEMBER_0_MEMBER_0_MEMBER_5_1_STROKES"></path>
                            </g>
                        </g>
                        <g id="Group" transform="translate(78.464478, 11.293152)" stroke="#2A3B4E" stroke-linecap="round" stroke-linejoin="round" stroke-width="0.749991972">
                            <g id="Layer2_0_MEMBER_3_MEMBER_0_MEMBER_0_MEMBER_6_1_STROKES-link" transform="translate(0.542049, 0.717431)">
                                <path d="M0.903554782,1.02004523 L2.34262629,0.732230932" id="Layer2_0_MEMBER_3_MEMBER_0_MEMBER_0_MEMBER_6_1_STROKES"></path>
                            </g>
                        </g>
                        <g id="Group" transform="translate(54.000000, 8.414978)" stroke="#2A3B4E" stroke-linecap="round" stroke-linejoin="round" stroke-width="0.749991972">
                            <g id="Layer2_0_MEMBER_3_MEMBER_0_MEMBER_0_MEMBER_7_1_STROKES-link" transform="translate(0.006794, 0.595637)">
                                <path d="M30.0406178,9.99215989 L31.5876197,18.2668211 C31.7075423,18.8664342 31.5996119,19.4180783 31.2638286,19.9217533 C30.9040607,20.4494129 30.4243702,20.773204 29.8247571,20.8931266 L6.72765931,25.2822947 C6.12804618,25.4022173 5.56440984,25.294287 5.03675029,24.9585036 C4.53307526,24.6227202 4.22127643,24.1430297 4.1013538,23.5194321 L0.755512543,5.81885251 C0.635589917,5.21923938 0.74352028,4.6675953 1.07930363,4.16392027 C1.43907151,3.63626072 1.91876201,3.31246963 2.51837514,3.192547 L14.750483,0.8540558" id="Layer2_0_MEMBER_3_MEMBER_0_MEMBER_0_MEMBER_7_1_STROKES"></path>
                            </g>
                        </g>
                        <g id="Group" transform="translate(54.719543, 14.890869)" stroke="#2A3B4E" stroke-linecap="round" stroke-linejoin="round" stroke-width="0.749991972">
                            <g id="Layer2_0_MEMBER_3_MEMBER_0_MEMBER_0_MEMBER_8_1_STROKES-link" transform="translate(0.287240, 0.119682)">
                                <path d="M0.439082214,3.48854909 L14.1102616,0.610406064" id="Layer2_0_MEMBER_3_MEMBER_0_MEMBER_0_MEMBER_8_1_STROKES"></path>
                            </g>
                        </g>
                        <g id="Group" transform="translate(68.390869, 0.500000)" stroke="#2A3B4E" stroke-linecap="round" stroke-linejoin="round" stroke-width="0.749991972">
                            <g id="Layer2_0_MEMBER_3_MEMBER_0_MEMBER_0_MEMBER_9_1_STROKES-link" transform="translate(0.615764, 0.510701)">
                                <path d="M0.218341779,11.3723453 C-0.237364199,8.9738928 0.446194768,6.70735517 2.26901868,4.57273243 C4.09184259,2.43810969 6.5262719,1.08298401 9.5723066,0.507355409 C12.6183413,-0.0922577202 15.3765617,0.267510157 17.8469678,1.58665904 C20.3413584,2.8818234 21.8164067,4.7406241 22.2721127,7.16306115 C22.7278187,9.58549819 22.0442597,11.8640281 20.2214358,13.9986508 C18.3986119,16.109289 15.9641826,17.4644147 12.9181479,18.0640278 C11.9827514,18.2319195 10.9993858,18.3158654 9.96805126,18.3158654 L5.57888316,23.2446853 L4.35567237,16.8408171 C2.02917343,15.5216682 0.650063232,13.6988443 0.218341779,11.3723453 Z" id="Layer2_0_MEMBER_3_MEMBER_0_MEMBER_0_MEMBER_9_1_STROKES"></path>
                            </g>
                        </g>
                        <g id="Group" transform="translate(61.914978, 20.647217)" stroke="#2A3B4E" stroke-linecap="round" stroke-linejoin="round" stroke-width="0.749991972">
                            <g id="Layer2_0_MEMBER_3_MEMBER_0_MEMBER_0_MEMBER_10_1_STROKES-link" transform="translate(0.091730, 0.363270)">
                                <path d="M5.5993114,2.41743323 C5.71923403,3.11298446 5.58731914,3.74857438 5.20356674,4.32420298 C4.81981434,4.89983159 4.29215478,5.2476072 3.62058808,5.36752983 C2.92503685,5.48745245 2.28944693,5.35553756 1.71381833,4.97178516 C1.13818972,4.58803276 0.790414106,4.06037321 0.67049148,3.3888065 C0.550568855,2.69325527 0.682483743,2.05766535 1.06623615,1.48203675 C1.44998855,0.906408145 1.9776481,0.55863253 2.64921481,0.438709904 C3.34476604,0.318787278 3.98035595,0.450702166 4.55598456,0.834454569 C5.13161316,1.21820697 5.47938878,1.74586653 5.5993114,2.41743323 Z" id="Layer2_0_MEMBER_3_MEMBER_0_MEMBER_0_MEMBER_10_1_STROKES"></path>
                            </g>
                        </g>
                        <g id="Group" transform="translate(60.475891, 25.684021)" stroke="#2A3B4E" stroke-linecap="round" stroke-linejoin="round" stroke-width="0.749991972">
                            <g id="Layer2_0_MEMBER_3_MEMBER_0_MEMBER_0_MEMBER_11_1_STROKES-link" transform="translate(0.530828, 0.326412)">
                                <path d="M9.5493973,2.16642273 C8.92579964,1.49485603 8.20626389,1.00317326 7.39079003,0.691374436 C6.52734712,0.403560133 5.65191196,0.343598821 4.76448452,0.511490497 C3.87705709,0.703366698 3.09756002,1.12309589 2.42599332,1.77067807 C1.75442661,2.3702912 1.25075159,3.11381148 0.914968234,4.00123891" id="Layer2_0_MEMBER_3_MEMBER_0_MEMBER_0_MEMBER_11_1_STROKES"></path>
                            </g>
                        </g>
                        <g id="Group" transform="translate(57.597717, 13.451782)" stroke="#2A3B4E" stroke-linecap="round" stroke-linejoin="round" stroke-width="0.749991972">
                            <g id="Layer2_0_MEMBER_3_MEMBER_0_MEMBER_0_MEMBER_12_1_STROKES-link" transform="translate(0.409034, 0.558779)">
                                <path d="M0.317257346,0.890859605 L3.19540037,0.17132385" id="Layer2_0_MEMBER_3_MEMBER_0_MEMBER_0_MEMBER_12_1_STROKES"></path>
                            </g>
                        </g>
                        <g id="Group" transform="translate(17.500000, 100.780042)" stroke="#2A3B4E" stroke-linecap="round" stroke-linejoin="round" stroke-width="0.638958863">
                            <g id="Layer2_0_MEMBER_4_1_STROKES-link">
                                <path d="M1.15,0.470419312 L1.15,2.88971863" id="Layer2_0_MEMBER_4_1_STROKES"></path>
                            </g>
                        </g>
                        <g id="Group" transform="translate(6.800000, 97.350000)" stroke="#2A3B4E" stroke-linecap="round" stroke-linejoin="round" stroke-width="0.75">
                            <g id="Layer2_0_MEMBER_5_1_STROKES-link">
                                <path d="M1.4,0.2 L1.4,8.7" id="Layer2_0_MEMBER_5_1_STROKES"></path>
                            </g>
                        </g>
                        <g id="Group" transform="translate(7.700000, 91.647876)" stroke="#2A3B4E" stroke-linecap="round" stroke-linejoin="round" stroke-width="0.638958863">
                            <g id="Layer2_0_MEMBER_6_1_STROKES-link">
                                <path d="M0.5,0.201608276 L0.5,3.0913269" id="Layer2_0_MEMBER_6_1_STROKES"></path>
                            </g>
                        </g>
                        <g id="Group" transform="translate(18.000000, 105.000000)" stroke="#2A3B4E" stroke-linecap="round" stroke-linejoin="round" stroke-width="0.75">
                            <g id="Layer2_0_MEMBER_7_1_STROKES-link">
                                <path d="M0.65,0.9 L0.65,4.9" id="Layer2_0_MEMBER_7_1_STROKES"></path>
                            </g>
                        </g>
                        <g id="Group" transform="translate(156.067993, 36.457513) rotate(-14.998321) translate(-156.067993, -36.457513) translate(141.068091, 21.457611)" fill="#CAE5CA" fill-rule="nonzero">
                            <g id="Layer2_0_MEMBER_8_MEMBER_0_MEMBER_0_MEMBER_0_MEMBER_0_FILL-link">
                                <g id="Layer2_0_MEMBER_8_MEMBER_0_MEMBER_0_MEMBER_0_MEMBER_0_FILL">
                                    <path d="M19.8998705,1.29999154 C16.1332284,-1.66533454e-16 12.4665856,0.233331815 8.8999421,1.99998699 C5.29996552,3.76664216 2.86664802,6.54995738 1.59998959,10.3499327 C0.333331165,14.1499079 0.583329538,17.8332173 2.34998471,21.3998608 C4.11663988,24.9998373 6.88328855,27.4164883 10.6499307,28.6498136 C14.449906,29.916472 18.1332154,29.6664737 21.6998588,27.8998185 C25.2998354,26.1331633 27.7164863,23.3665146 28.9498116,19.5998725 C30.2498032,15.8332303 30.0164714,12.149921 28.2498162,8.54994437 C26.483161,4.98330091 23.6998458,2.56664997 19.8998705,1.29999154 L19.8998705,1.29999154 Z M10.9999284,6.34995869 C13.3999128,5.14996649 15.8498969,4.96663435 18.3498806,5.79996226 C20.8831975,6.66662329 22.749852,8.299946 23.9498442,10.6999304 C25.1498364,13.0999148 25.316502,15.5498988 24.4498409,18.0498826 C23.616513,20.5831994 21.9831903,22.4498539 19.5498728,23.6498461 C17.1498884,24.8498383 14.6999044,25.0165039 12.1999206,24.1498429 C9.66660377,23.2831818 7.81661581,21.6498591 6.64995673,19.2498748 C5.44996454,16.8498904 5.2666324,14.3832398 6.09996031,11.8499229 C6.96662134,9.34993917 8.59994405,7.51661776 10.9999284,6.34995869 Z" id="Shape"></path>
                                </g>
                            </g>
                        </g>
                        <g id="Group" transform="translate(155.938599, 35.974550) rotate(-14.998321) translate(-155.938599, -35.974550) translate(136.938722, 17.474670)" stroke="#2A3B4E" stroke-linecap="round" stroke-linejoin="round" stroke-width="0.749990241">
                            <g id="Layer2_0_MEMBER_8_MEMBER_0_MEMBER_0_MEMBER_0_MEMBER_1_1_STROKES-link" transform="translate(19.037401, 18.576851) rotate(14.998321) translate(-19.037401, -18.576851) translate(4.037596, 3.577046)">
                                <path d="M24.984986,15.9578269 C24.8356476,18.6204652 23.7410538,20.846189 21.7012046,22.6349983 C19.6935525,24.4151814 17.3701928,25.2101921 14.7311255,25.0200304 C12.059861,24.8384949 9.85023575,23.739588 8.10224976,21.7233097 C6.32206663,19.7156576 5.50664425,17.3805124 5.65598262,14.7178741 C5.84614433,12.0788068 6.94936432,9.88528015 8.96564261,8.13729417 C10.9732947,6.35711103 13.2923413,5.54600175 15.9227825,5.70396631 C18.5940469,5.88550183 20.8197707,6.98009563 22.5999539,8.98774773 C24.380137,10.9953998 25.1751477,13.3187595 24.984986,15.9578269 Z M16.2554144,0.95623298 C12.2807148,0.675303509 8.79941146,1.84956445 5.81150427,4.47901581 C2.79139994,7.11709336 1.1612947,10.4352674 0.921188575,14.4335379 C0.681082446,18.4318084 1.87575506,21.9248973 4.50520642,24.9128045 C7.14328397,27.9329088 10.4410463,29.5512286 14.3984935,29.7677637 C18.396764,30.0078699 21.8898529,28.8131973 24.8777601,26.1837459 C27.8978644,23.5456683 29.5161842,20.247906 29.7327193,16.2904588 C30.0136488,12.3157592 28.8350748,8.81835729 26.1969972,5.79825295 C23.5675459,2.81034577 20.2536849,1.19633911 16.2554144,0.95623298 Z" id="Layer2_0_MEMBER_8_MEMBER_0_MEMBER_0_MEMBER_0_MEMBER_1_1_STROKES"></path>
                            </g>
                        </g>
                        <g id="Group" transform="translate(158.482236, 33.589426) rotate(-14.998893) translate(-158.482236, -33.589426) translate(154.816594, 28.294610)" stroke="#2A3B4E" stroke-linecap="round" stroke-linejoin="round" stroke-width="0.749998713">
                            <g id="Layer2_0_MEMBER_8_MEMBER_0_MEMBER_0_MEMBER_0_MEMBER_2_1_STROKES-link" transform="translate(3.707715, 5.221845) rotate(14.998715) translate(-3.707715, -5.221845) translate(1.207719, 0.721853)">
                                <polyline id="Layer2_0_MEMBER_8_MEMBER_0_MEMBER_0_MEMBER_0_MEMBER_2_1_STROKES" points="0.709465336 0.805642844 0.216755304 7.93718273 4.80578094 8.22562218"></polyline>
                            </g>
                        </g>
                    </g>
                </g>
            </g>
        </g>
    </g>
</svg>