<?xml version="1.0" encoding="UTF-8"?>
<svg width="172px" height="150px" viewBox="0 0 172 150" version="1.1" xmlns="http://www.w3.org/2000/svg" xmlns:xlink="http://www.w3.org/1999/xlink">
    <!-- Generator: Sketch 53.2 (72643) - https://sketchapp.com -->
    <title>Group 44</title>
    <desc>Created with Sketch.</desc>
    <g id="Page-2" stroke="none" stroke-width="1" fill="none" fill-rule="evenodd">
        <g id="HOME-" transform="translate(-129.000000, -2641.000000)">
            <g id="Group-44" transform="translate(129.000000, 2641.000000)">
                <g id="Group-43">
                    <g id="sol_1" fill="#FAF7F1">
                        <path d="M99.5207255,0.556343304 C116.371752,-1.08267698 132.2043,0.899790765 147.018369,6.50374653 C198.596372,26.0149861 170.223787,184.583758 62.6733472,143.113604 C35.1691767,132.508328 16.4854838,120.227605 6.62226846,106.271437 C18.6266918,117.036972 31.6089678,119.945606 19.4561198,111.388677 C9.01159728,104.034595 2.52622401,89.9452281 -3.27515792e-14,69.1205747 C3.51533211,55.8192326 12.6489319,41.4507031 27.4007993,26.0149861 C42.5850487,17.3064201 57.1544102,10.7842608 71.1088839,6.44850833 C89.4445782,3.53994272 106.112781,3.89917637 121.113492,7.52620928 C143.287009,12.8875602 126.739582,5.55550081 99.5207255,0.556343304 Z" id="Combined-Shape"></path>
                    </g>
                    <g id="Page-1" transform="translate(18.000000, 6.000000)">
                        <path d="M36,53 L36,70 L13,69.6967294 C13,69.6967294 24.5002331,65.4463879 20.4595099,65.4463879 C16.4187866,65.4463879 32.8921817,58.7680604 27.2975493,58.7680604 C21.7029169,58.7680604 25.1217035,53 25.1217035,53 L36,53 Z" id="Fill-1" fill="#FEFEFE"></path>
                        <path d="M68.3121895,75.9763399 L76.1248945,65.972336 L82.0625879,59.6061517 L93,59 L93,74.1574301 C93,74.1574301 89.2499766,74.1574301 89.2499766,84.4647373 C89.2499766,94.7715897 76.7497422,85.3741922 76.4375527,89.0120118 C76.1248945,92.6498314 68,85.070889 68,85.070889" id="Fill-3" fill="#FEFEFE"></path>
                        <path d="M67,40.9365827 L67.3182669,30.1769989 L80.6988571,30.1769989 L81.3363466,21 L103,21.6327492 C103,21.6327492 83.2478595,23.8480832 91.2121779,25.4301935 C99.1769742,27.0127784 93.4424356,33.658306 97.2654614,33.658306 L98.2212178,45.3667762 L74.9643184,46" id="Fill-5" fill="#FEFEFE"></path>
                        <path d="M131,44 C131,45.6571338 129.65666,47 128,47 C126.34334,47 125,45.6571338 125,44 C125,42.3428662 126.34334,41 128,41 C129.65666,41 131,42.3428662 131,44" id="Fill-7" fill="#C08CBE"></path>
                        <path d="M100,125 C100,126.65666 98.6566598,128 97,128 C95.3433402,128 94,126.65666 94,125 C94,123.34334 95.3433402,122 97,122 C98.6566598,122 100,123.34334 100,125" id="Fill-9" fill="#C08CBE"></path>
                        <path d="M8,52 C8,53.6571338 6.65665982,55 5,55 C3.34334018,55 2,53.6571338 2,52 C2,50.3433402 3.34334018,49 5,49 C6.65665982,49 8,50.3433402 8,52" id="Fill-11" fill="#C08CBE"></path>
                        <path d="M28,22 C28,23.6571338 26.6566598,25 25,25 C23.3433402,25 22,23.6571338 22,22 C22,20.3433402 23.3433402,19 25,19 C26.6566598,19 28,20.3433402 28,22" id="Fill-13" fill="#F08080"></path>
                        <path d="M136,69 C136,70.6571338 134.65666,72 133,72 C131.34334,72 130,70.6571338 130,69 C130,67.3433402 131.34334,66 133,66 C134.65666,66 136,67.3433402 136,69" id="Fill-15" fill="#F08080"></path>
                        <path d="M87,130 C87,131.657134 85.6566598,133 84,133 C82.3428662,133 81,131.657134 81,130 C81,128.34334 82.3428662,127 84,127 C85.6566598,127 87,128.34334 87,130" id="Fill-17" fill="#F08080"></path>
                        <path d="M40,81 C40,82.6571338 38.6566598,84 37,84 C35.3433402,84 34,82.6571338 34,81 C34,79.3433402 35.3433402,78 37,78 C38.6566598,78 40,79.3433402 40,81" id="Fill-19" fill="#F08080"></path>
                        <path d="M6,69.000474 C6,70.6571338 4.65665982,72 3,72 C1.34334018,72 0,70.6571338 0,69.000474 C0,67.3433402 1.34334018,66 3,66 C4.65665982,66 6,67.3433402 6,69.000474" id="Fill-21" fill="#F08080"></path>
                        <path d="M71,3 C71,4.65665982 69.6566598,6 68,6 C66.3428662,6 65,4.65665982 65,3 C65,1.34286617 66.3428662,0 68,0 C69.6566598,0 71,1.34286617 71,3" id="Fill-23" fill="#C6E8EF"></path>
                        <path d="M126,35 C126,36.6571338 124.657028,38 123.000237,38 C121.342972,38 120,36.6571338 120,35 C120,33.3433402 121.342972,32 123.000237,32 C124.657028,32 126,33.3433402 126,35" id="Fill-25" fill="#C6E8EF"></path>
                        <path d="M113,117 C113,118.65666 111.65666,120 110,120 C108.342866,120 107,118.65666 107,117 C107,115.34334 108.342866,114 110,114 C111.65666,114 113,115.34334 113,117" id="Fill-27" fill="#C6E8EF"></path>
                        <path d="M12,96 C12,97.6566598 10.6566598,99 9,99 C7.34334018,99 6,97.6566598 6,96 C6,94.3433402 7.34334018,93 9,93 C10.6566598,93 12,94.3433402 12,96" id="Fill-29" fill="#C6E8EF"></path>
                        <path d="M45,88.4058239 L54.8645817,78.7553392 L75.056617,78.4334956 L74.2857803,81.328641 L77.9850563,79.7203877 L85.075181,72 L86,73.125729 L86,76.3427181 L84.4587892,78.5941761 L75.6730088,89.3708723 L57.6390386,89.2097092 L52.5525342,95 C52.5525342,95 52.7065166,90.1747577 50.8568786,91.1398062 C49.0072407,92.1048546 45,88.4058239 45,88.4058239" id="Fill-31" fill="#FCDFDD"></path>
                        <path d="M41.2578465,44 L35.7426364,44 C34.2341864,44 33,42.7882236 33,41.3076376 L33,36.6923624 C33,35.2117764 34.2341864,34 35.7426364,34 L41.2578465,34 C42.7658136,34 44,35.2117764 44,36.6923624 L44,41.3076376 C44,42.7882236 42.7658136,44 41.2578465,44" id="Fill-33" fill="#C6E8EF"></path>
                        <path d="M40,41 C40,41.5519965 39.5524353,42 39.0004388,42 C38.4480035,42 38,41.5519965 38,41 C38,40.4475647 38.4480035,40 39.0004388,40 C39.5524353,40 40,40.4475647 40,41" id="Fill-35" fill="#FEFEFE"></path>
                        <polygon id="Fill-37" fill="#CAE5CA" points="75 54.4420446 67.3465329 63 62 58.0273651 63.4022083 56.4274824 67.1978492 60.005473 73.6202345 53"></polygon>
                        <path d="M79.0618081,59.8178484 C79.0115314,60.4116409 78.1402214,68.6909807 69,72.3787694 C59.8325646,68.6843249 58.9921587,60.5091008 58.9377306,59.8192747 L58.9377306,48.460201 L68.9524908,44.6174273 L79.0618081,48.4635289 L79.0618081,59.8178484 Z M68.9437269,41 L56,45.9671285 L56,60.0593589 C56,60.0593589 56.672048,71.3794485 69,76 C81.3274908,71.3794485 82,60.0593589 82,60.0593589 L82,45.9671285 L68.9437269,41 Z" id="Fill-39" fill="#FFECC0"></path>
                        <path d="M68.9437269,41 L56,45.967196 L56,60.0596178 C56,60.0596178 56.672048,71.3793858 68.9995387,76 C81.3274908,71.3793858 82,60.0596178 82,60.0596178 L82,45.967196 L68.9437269,41 Z" id="Stroke-41" stroke="#2A3B4E" stroke-width="0.75" stroke-linecap="round" stroke-linejoin="round"></path>
                        <path d="M61,83 L60,83" id="Stroke-43" stroke="#2A3B4E" stroke-width="0.75" stroke-linecap="round" stroke-linejoin="round"></path>
                        <path d="M44,89 L53.8129699,79 L73.9653596,79 C73.9653596,79 74.6665183,83.0741468 69.759801,83.0741468 L61.5238575,83.0741468" id="Stroke-45" stroke="#2A3B4E" stroke-width="0.75" stroke-linecap="round" stroke-linejoin="round"></path>
                        <path d="M53,95 L57.992951,89.1590067 L75.3801793,89.1590067 L85.2172697,77.027862 C87.1723628,73.1209596 84.8488923,72 84.8488923,72 L77.6182886,79.6666667 L74.3343894,81.3001894" id="Stroke-47" stroke="#2A3B4E" stroke-width="0.75" stroke-linecap="round" stroke-linejoin="round"></path>
                        <polygon id="Stroke-49" stroke="#2A3B4E" stroke-width="0.75" stroke-linecap="round" stroke-linejoin="round" points="75 54.4420446 67.3465329 63 62 58.0273651 63.4022083 56.4274824 67.1978492 60.005473 73.6202345 53"></polygon>
                        <path d="M71,3 C71,4.65665982 69.6566598,6 68,6 C66.3428662,6 65,4.65665982 65,3 C65,1.34286617 66.3428662,0 68,0 C69.6566598,0 71,1.34286617 71,3 Z" id="Stroke-51" stroke="#2A3B4E" stroke-width="0.75" stroke-linecap="round" stroke-linejoin="round"></path>
                        <path d="M28,22 C28,23.6571338 26.6566598,25 25,25 C23.3433402,25 22,23.6571338 22,22 C22,20.3433402 23.3433402,19 25,19 C26.6566598,19 28,20.3433402 28,22 Z" id="Stroke-53" stroke="#2A3B4E" stroke-width="0.75" stroke-linecap="round" stroke-linejoin="round"></path>
                        <path d="M40,41 C40,41.5519965 39.5524353,42 39.0004388,42 C38.4480035,42 38,41.5519965 38,41 C38,40.4475647 38.4480035,40 39.0004388,40 C39.5524353,40 40,40.4475647 40,41 Z" id="Stroke-55" stroke="#2A3B4E" stroke-width="0.75" stroke-linecap="round" stroke-linejoin="round"></path>
                        <path d="M114,22 C114,23.6571338 112.65666,25 111,25 C109.34334,25 108,23.6571338 108,22 C108,20.3433402 109.34334,19 111,19 C112.65666,19 114,20.3433402 114,22 Z" id="Stroke-57" stroke="#2A3B4E" stroke-width="0.75" stroke-linecap="round" stroke-linejoin="round"></path>
                        <path d="M126,35 C126,36.6571338 124.657028,38 123.000237,38 C121.342972,38 120,36.6571338 120,35 C120,33.3433402 121.342972,32 123.000237,32 C124.657028,32 126,33.3433402 126,35 Z" id="Stroke-59" stroke="#2A3B4E" stroke-width="0.75" stroke-linecap="round" stroke-linejoin="round"></path>
                        <path d="M131,44 C131,45.6571338 129.65666,47 128,47 C126.34334,47 125,45.6571338 125,44 C125,42.3428662 126.34334,41 128,41 C129.65666,41 131,42.3428662 131,44 Z" id="Stroke-61" stroke="#2A3B4E" stroke-width="0.75" stroke-linecap="round" stroke-linejoin="round"></path>
                        <path d="M136,69 C136,70.6571338 134.65666,72 133,72 C131.34334,72 130,70.6571338 130,69 C130,67.3433402 131.34334,66 133,66 C134.65666,66 136,67.3433402 136,69 Z" id="Stroke-63" stroke="#2A3B4E" stroke-width="0.75" stroke-linecap="round" stroke-linejoin="round"></path>
                        <path d="M131,88.000237 C131,89.6570277 129.65666,91 128,91 C126.34334,91 125,89.6570277 125,88.000237 C125,86.3429723 126.34334,85 128,85 C129.65666,85 131,86.3429723 131,88.000237 Z" id="Stroke-65" stroke="#2A3B4E" stroke-width="0.75" stroke-linecap="round" stroke-linejoin="round"></path>
                        <path d="M113,117 C113,118.65666 111.65666,120 110,120 C108.342866,120 107,118.65666 107,117 C107,115.34334 108.342866,114 110,114 C111.65666,114 113,115.34334 113,117 Z" id="Stroke-67" stroke="#2A3B4E" stroke-width="0.75" stroke-linecap="round" stroke-linejoin="round"></path>
                        <path d="M100,125 C100,126.65666 98.6566598,128 97,128 C95.3433402,128 94,126.65666 94,125 C94,123.34334 95.3433402,122 97,122 C98.6566598,122 100,123.34334 100,125 Z" id="Stroke-69" stroke="#2A3B4E" stroke-width="0.75" stroke-linecap="round" stroke-linejoin="round"></path>
                        <path d="M87,130 C87,131.657134 85.6566598,133 84,133 C82.3428662,133 81,131.657134 81,130 C81,128.34334 82.3428662,127 84,127 C85.6566598,127 87,128.34334 87,130 Z" id="Stroke-71" stroke="#2A3B4E" stroke-width="0.75" stroke-linecap="round" stroke-linejoin="round"></path>
                        <path d="M71,133.999763 C71,135.657028 69.6566598,137 68,137 C66.3428662,137 65,135.657028 65,133.999763 C65,132.342972 66.3428662,131 68,131 C69.6566598,131 71,132.342972 71,133.999763 Z" id="Stroke-73" stroke="#2A3B4E" stroke-width="0.75" stroke-linecap="round" stroke-linejoin="round"></path>
                        <path d="M12,96 C12,97.6566598 10.6566598,99 9,99 C7.34334018,99 6,97.6566598 6,96 C6,94.3433402 7.34334018,93 9,93 C10.6566598,93 12,94.3433402 12,96 Z" id="Stroke-75" stroke="#2A3B4E" stroke-width="0.75" stroke-linecap="round" stroke-linejoin="round"></path>
                        <path d="M40,81 C40,82.6571338 38.6566598,84 37,84 C35.3433402,84 34,82.6571338 34,81 C34,79.3433402 35.3433402,78 37,78 C38.6566598,78 40,79.3433402 40,81 Z" id="Stroke-77" stroke="#2A3B4E" stroke-width="0.75" stroke-linecap="round" stroke-linejoin="round"></path>
                        <path d="M6,69.000474 C6,70.6571338 4.65665982,72 3,72 C1.34334018,72 0,70.6571338 0,69.000474 C0,67.3433402 1.34334018,66 3,66 C4.65665982,66 6,67.3433402 6,69.000474 Z" id="Stroke-79" stroke="#2A3B4E" stroke-width="0.75" stroke-linecap="round" stroke-linejoin="round"></path>
                        <path d="M8,52 C8,53.6571338 6.65665982,55 5,55 C3.34334018,55 2,53.6571338 2,52 C2,50.3433402 3.34334018,49 5,49 C6.65665982,49 8,50.3433402 8,52 Z" id="Stroke-81" stroke="#2A3B4E" stroke-width="0.75" stroke-linecap="round" stroke-linejoin="round"></path>
                        <path d="M68,42 L68,6" id="Stroke-83" stroke="#2A3B4E" stroke-width="0.75" stroke-linecap="round" stroke-linejoin="round"></path>
                        <path d="M68,131 L68,90" id="Stroke-85" stroke="#2A3B4E" stroke-width="0.75" stroke-linecap="round" stroke-linejoin="round"></path>
                        <path d="M68,78 L68,75" id="Stroke-87" stroke="#2A3B4E" stroke-width="0.75" stroke-linecap="round" stroke-linejoin="round"></path>
                        <path d="M81,58 L111.60838,58 L111.60838,88 L125,88" id="Stroke-89" stroke="#2A3B4E" stroke-width="0.75" stroke-linecap="round" stroke-linejoin="round" stroke-dasharray="4"></path>
                        <polyline id="Stroke-91" stroke="#2A3B4E" stroke-width="0.75" stroke-linecap="round" stroke-linejoin="round" points="93 59 93 74.3128206 98 74.3128206 98 123"></polyline>
                        <path d="M68,31 L81.5340127,31 L81.5340127,22 L109,22" id="Stroke-93" stroke="#2A3B4E" stroke-width="0.75" stroke-linecap="round" stroke-linejoin="round" stroke-dasharray="4"></path>
                        <polyline id="Stroke-95" stroke="#2A3B4E" stroke-width="0.75" stroke-linecap="round" stroke-linejoin="round" points="68 36 53.8067985 36 53.8067985 22 28 22"></polyline>
                        <path d="M55,52 L9,52" id="Stroke-97" stroke="#2A3B4E" stroke-width="0.75" stroke-linecap="round" stroke-linejoin="round" stroke-dasharray="4"></path>
                        <polyline id="Stroke-99" stroke="#2A3B4E" stroke-width="0.75" stroke-linecap="round" stroke-linejoin="round" points="37 53 37 69 7 69"></polyline>
                        <polyline id="Stroke-101" stroke="#2A3B4E" stroke-width="0.75" stroke-linecap="round" stroke-linejoin="round" points="69 110 37 110 37 84"></polyline>
                        <polyline id="Stroke-103" stroke="#2A3B4E" stroke-width="0.75" stroke-linecap="round" stroke-linejoin="round" points="69 98 84 98 84 126"></polyline>
                        <path d="M81,45 L124,45" id="Stroke-105" stroke="#2A3B4E" stroke-width="0.75" stroke-linecap="round" stroke-linejoin="round"></path>
                        <polyline id="Stroke-107" stroke="#2A3B4E" stroke-width="0.75" stroke-linecap="round" stroke-linejoin="round" points="98 46 98 35 120 35"></polyline>
                        <path d="M112,69 L129,69" id="Stroke-109" stroke="#2A3B4E" stroke-width="0.75" stroke-linecap="round" stroke-linejoin="round"></path>
                        <path d="M36,95 L12,95" id="Stroke-111" stroke="#2A3B4E" stroke-width="0.75" stroke-linecap="round" stroke-linejoin="round"></path>
                        <path d="M97,99 L109,99 L109,113" id="Stroke-113" stroke="#2A3B4E" stroke-width="0.75" stroke-linecap="round" stroke-linejoin="round" stroke-dasharray="4"></path>
                        <path d="M41.2578465,44 L35.7426364,44 C34.2341864,44 33,42.7882236 33,41.3076376 L33,36.6923624 C33,35.2117764 34.2341864,34 35.7426364,34 L41.2578465,34 C42.7658136,34 44,35.2117764 44,36.6923624 L44,41.3076376 C44,42.7882236 42.7658136,44 41.2578465,44 Z" id="Stroke-115" stroke="#2A3B4E" stroke-width="0.75" stroke-linecap="round" stroke-linejoin="round"></path>
                        <path d="M35,34 L35,32.2678488 C35,30.4703686 36.7998001,29 39,29 C41.1996287,29 43,30.4703686 43,32.2678488 L43,34" id="Stroke-117" stroke="#2A3B4E" stroke-width="0.75" stroke-linecap="round" stroke-linejoin="round"></path>
                    </g>
                </g>
            </g>
        </g>
    </g>
</svg>