<?xml version="1.0" encoding="UTF-8"?>
<svg width="220px" height="157px" viewBox="0 0 220 157" version="1.1" xmlns="http://www.w3.org/2000/svg" xmlns:xlink="http://www.w3.org/1999/xlink">
    <!-- Generator: Sketch 53.2 (72643) - https://sketchapp.com -->
    <title>Group 41</title>
    <desc>Created with Sketch.</desc>
    <g id="Page-2" stroke="none" stroke-width="1" fill="none" fill-rule="evenodd">
        <g id="HOME-" transform="translate(-172.000000, -1995.000000)">
            <g id="Group-41" transform="translate(172.000000, 1995.000000)">
                <g id="Group-40">
                    <path d="M99.5207255,7.5563433 C116.371752,5.91732302 132.2043,7.89979077 147.018369,13.5037465 C198.596372,33.0149861 170.223787,191.583758 62.6733472,150.113604 C35.1691767,139.508328 16.4854838,127.227605 6.62226846,113.271437 C18.6266918,124.036972 31.6089678,126.945606 19.4561198,118.388677 C9.01159728,111.034595 2.52622401,96.9452281 -3.27515792e-14,76.1205747 C3.51533211,62.8192326 12.6489319,48.4507031 27.4007993,33.0149861 C42.5850487,24.3064201 57.1544102,17.7842608 71.1088839,13.4485083 C89.4445782,10.5399427 106.112781,10.8991764 121.113492,14.5262093 C143.287009,19.8875602 126.739582,12.5555008 99.5207255,7.5563433 Z" id="Combined-Shape" fill="#FAF7F1"></path>
                    <g id="190308-Incremental" transform="translate(33.000000, 0.000000)">
                        <g id="Group" transform="translate(93.000000, 30.000000)" stroke="#2A3B4E" stroke-linecap="round" stroke-linejoin="round" stroke-width="0.75">
                            <g id="Layer1_0_1_STROKES-link">
                                <path d="M0.15,13.3173077 C0.15,13.5737179 0.15,13.8301282 0.15,14.0865385 C0.183333333,14.5673077 0.283333333,15.5448718 0.45,17.0192308 M1.8,1.34615385 C1.5,2.24358974 1.25,3.15705128 1.05,4.08653846 C0.716666667,5.56089744 0.466666667,7.05128205 0.3,8.55769231 C0.266666667,8.91025641 0.233333333,9.24679487 0.2,9.56730769 M1.25,21.1538462 C1.31666667,21.4102564 1.38333333,21.6666667 1.45,21.9230769 C1.68333333,22.8205128 1.96666667,23.7339744 2.3,24.6634615 M5.475,8.50961538 C5.06341146,13.3832883 5.80507813,18.8640575 7.7,24.9519231 M7.6,0.144230769 C6.88411458,1.484375 6.35078125,3.02283654 6,4.75961538" id="Layer1_0_1_STROKES"></path>
                            </g>
                        </g>
                        <g id="Group" transform="translate(25.000000, 95.000000)">
                            <g id="Layer1_0_MEMBER_0_MEMBER_0_FILL-link" fill="#C5E7EF" fill-rule="nonzero">
                                <g id="Layer1_0_MEMBER_0_MEMBER_0_FILL">
                                    <path d="M3.05454545,0.717391304 C1.01818182,0.717391304 0,1.75362319 0,3.82608696 L0,18.173913 C0,20.2463768 1.01818182,21.2826087 3.05454545,21.2826087 L17.4204545,21.2826087 C19.4886364,21.2826087 20.5227273,20.2463768 20.5227273,18.173913 L20.5227273,3.82608696 C20.5227273,1.75362319 19.4886364,0.717391304 17.4204545,0.717391304 L3.05454545,0.717391304 Z" id="Path"></path>
                                </g>
                            </g>
                            <g id="Layer1_0_MEMBER_0_MEMBER_0_1_STROKES-link" stroke="#2A3B4E" stroke-linecap="round" stroke-linejoin="round" stroke-width="0.75">
                                <path d="M3.05454545,0.717391304 L17.4204545,0.717391304 C19.4886364,0.717391304 20.5227273,1.75362319 20.5227273,3.82608696 L20.5227273,18.173913 C20.5227273,20.2463768 19.4886364,21.2826087 17.4204545,21.2826087 L3.05454545,21.2826087 C1.01818182,21.2826087 0,20.2463768 0,18.173913 L0,3.82608696 C0,1.75362319 1.01818182,0.717391304 3.05454545,0.717391304 Z" id="Layer1_0_MEMBER_0_MEMBER_0_1_STROKES"></path>
                            </g>
                        </g>
                        <g id="Group" transform="translate(51.000000, 95.000000)">
                            <g id="Layer1_0_MEMBER_0_MEMBER_1_FILL-link" fill="#C5E7EF" fill-rule="nonzero">
                                <g id="Layer1_0_MEMBER_0_MEMBER_1_FILL">
                                    <path d="M21.0913043,3.82608696 C21.0913043,1.75362319 20.0710145,0.717391304 18.0304348,0.717391304 L3.63478261,0.717391304 C1.56231884,0.717391304 0.526086957,1.75362319 0.526086957,3.82608696 L0.526086957,18.173913 C0.526086957,20.2463768 1.56231884,21.2826087 3.63478261,21.2826087 L18.0304348,21.2826087 C20.0710145,21.2826087 21.0913043,20.2463768 21.0913043,18.173913 L21.0913043,3.82608696 Z" id="Path"></path>
                                </g>
                            </g>
                            <g id="Layer1_0_MEMBER_0_MEMBER_1_1_STROKES-link" stroke="#2A3B4E" stroke-linecap="round" stroke-linejoin="round" stroke-width="0.75">
                                <path d="M3.63478261,0.717391304 L18.0304348,0.717391304 C20.0710145,0.717391304 21.0913043,1.75362319 21.0913043,3.82608696 L21.0913043,18.173913 C21.0913043,20.2463768 20.0710145,21.2826087 18.0304348,21.2826087 L3.63478261,21.2826087 C1.56231884,21.2826087 0.526086957,20.2463768 0.526086957,18.173913 L0.526086957,3.82608696 C0.526086957,1.75362319 1.56231884,0.717391304 3.63478261,0.717391304 Z" id="Layer1_0_MEMBER_0_MEMBER_1_1_STROKES"></path>
                            </g>
                        </g>
                        <g id="Group" transform="translate(77.000000, 95.000000)">
                            <g id="Layer1_0_MEMBER_0_MEMBER_2_FILL-link" fill="#C5E7EF" fill-rule="nonzero">
                                <g id="Layer1_0_MEMBER_0_MEMBER_2_FILL">
                                    <path d="M3.34090909,0.717391304 C1.27272727,0.717391304 0.238636364,1.75362319 0.238636364,3.82608696 L0.238636364,18.173913 C0.238636364,20.2463768 1.27272727,21.2826087 3.34090909,21.2826087 L17.7068182,21.2826087 C19.7431818,21.2826087 20.7613636,20.2463768 20.7613636,18.173913 L20.7613636,3.82608696 C20.7613636,1.75362319 19.7431818,0.717391304 17.7068182,0.717391304 L3.34090909,0.717391304 Z" id="Path"></path>
                                </g>
                            </g>
                            <g id="Layer1_0_MEMBER_0_MEMBER_2_1_STROKES-link" stroke="#2A3B4E" stroke-linecap="round" stroke-linejoin="round" stroke-width="0.75">
                                <path d="M3.34090909,0.717391304 L17.7068182,0.717391304 C19.7431818,0.717391304 20.7613636,1.75362319 20.7613636,3.82608696 L20.7613636,18.173913 C20.7613636,20.2463768 19.7431818,21.2826087 17.7068182,21.2826087 L3.34090909,21.2826087 C1.27272727,21.2826087 0.238636364,20.2463768 0.238636364,18.173913 L0.238636364,3.82608696 C0.238636364,1.75362319 1.27272727,0.717391304 3.34090909,0.717391304 Z" id="Layer1_0_MEMBER_0_MEMBER_2_1_STROKES"></path>
                            </g>
                        </g>
                        <g id="Group" transform="translate(103.000000, 95.000000)">
                            <g id="Layer1_0_MEMBER_0_MEMBER_3_FILL-link" fill="#C5E7EF" fill-rule="nonzero">
                                <g id="Layer1_0_MEMBER_0_MEMBER_3_FILL">
                                    <path d="M21.426087,3.82608696 C21.426087,1.75362319 20.4057971,0.717391304 18.3652174,0.717391304 L3.96956522,0.717391304 C1.89710145,0.717391304 0.860869565,1.75362319 0.860869565,3.82608696 L0.860869565,18.173913 C0.860869565,20.2463768 1.89710145,21.2826087 3.96956522,21.2826087 L18.3652174,21.2826087 C20.4057971,21.2826087 21.426087,20.2463768 21.426087,18.173913 L21.426087,3.82608696 Z" id="Path"></path>
                                </g>
                            </g>
                            <g id="Layer1_0_MEMBER_0_MEMBER_3_1_STROKES-link" stroke="#2A3B4E" stroke-linecap="round" stroke-linejoin="round" stroke-width="0.75">
                                <path d="M3.96956522,0.717391304 L18.3652174,0.717391304 C20.4057971,0.717391304 21.426087,1.75362319 21.426087,3.82608696 L21.426087,18.173913 C21.426087,20.2463768 20.4057971,21.2826087 18.3652174,21.2826087 L3.96956522,21.2826087 C1.89710145,21.2826087 0.860869565,20.2463768 0.860869565,18.173913 L0.860869565,3.82608696 C0.860869565,1.75362319 1.89710145,0.717391304 3.96956522,0.717391304 Z" id="Layer1_0_MEMBER_0_MEMBER_3_1_STROKES"></path>
                            </g>
                        </g>
                        <g id="Group" transform="translate(104.000000, 41.000000)">
                            <g id="Layer1_0_MEMBER_0_MEMBER_4_FILL-link" fill="#EF7F80" fill-rule="nonzero">
                                <g id="Layer1_0_MEMBER_0_MEMBER_4_FILL">
                                    <path d="M24.4711538,8.46153846 C25.0160256,6.44230769 24.2788462,5.16025641 22.2596154,4.61538462 L8.31730769,0.865384615 C6.33012821,0.320512821 5.06410256,1.05769231 4.51923077,3.07692308 L0.769230769,17.0192308 C0.256410256,19.0384615 0.993589744,20.3205128 2.98076923,20.8653846 L16.9230769,24.6153846 C18.9423077,25.1602564 20.2083333,24.4230769 20.7211538,22.4038462 L24.4711538,8.46153846 Z" id="Path"></path>
                                </g>
                            </g>
                            <g id="Layer1_0_MEMBER_0_MEMBER_4_1_STROKES-link" stroke="#2A3B4E" stroke-linecap="round" stroke-linejoin="round" stroke-width="0.75">
                                <path d="M8.31730769,0.865384615 L22.2596154,4.61538462 C24.2788462,5.16025641 25.0160256,6.44230769 24.4711538,8.46153846 L20.7211538,22.4038462 C20.2083333,24.4230769 18.9423077,25.1602564 16.9230769,24.6153846 L2.98076923,20.8653846 C0.993589744,20.3205128 0.256410256,19.0384615 0.769230769,17.0192308 L4.51923077,3.07692308 C5.06410256,1.05769231 6.33012821,0.320512821 8.31730769,0.865384615 Z" id="Layer1_0_MEMBER_0_MEMBER_4_1_STROKES"></path>
                            </g>
                        </g>
                        <g id="Group" transform="translate(126.000000, 19.000000)">
                            <g id="Layer1_0_MEMBER_0_MEMBER_5_MEMBER_0_FILL-link" fill="#D9C0BF" fill-rule="nonzero">
                                <g id="Layer1_0_MEMBER_0_MEMBER_5_MEMBER_0_FILL">
                                    <path d="M16.3086957,5.198 C13.1202899,2.92866667 10.2347826,1.472 7.65217391,0.828 L4.73478261,5.474 C2.75797101,8.694 1.4826087,10.8713333 0.908695652,12.006 C0.239130435,13.1406667 0.015942029,13.9533333 0.239130435,14.444 C0.334782609,14.5973333 0.956521739,15.18 2.10434783,16.192 C2.77391304,16.8053333 4.41594203,17.8786667 7.03043478,19.412 C10.5057971,21.3746667 12.7376812,22.2946667 13.726087,22.172 C14.8101449,22.08 16.4362319,20.6846667 18.6043478,17.986 C20.9956522,15.1033333 22.0637681,12.8493333 21.8086957,11.224 C21.5217391,9.476 19.6884058,7.46733333 16.3086957,5.198 Z" id="Path"></path>
                                </g>
                            </g>
                            <g id="Layer1_0_MEMBER_0_MEMBER_5_MEMBER_0_1_STROKES-link" stroke="#2A3B4E" stroke-linecap="round" stroke-linejoin="round" stroke-width="0.75">
                                <path d="M7.65217391,0.828 L4.73478261,5.474 C2.75797101,8.694 1.4826087,10.8713333 0.908695652,12.006 C0.239130435,13.1406667 0.015942029,13.9533333 0.239130435,14.444 C0.334782609,14.5973333 0.956521739,15.18 2.10434783,16.192 C2.77391304,16.8053333 4.41594203,17.8786667 7.03043478,19.412 C10.5057971,21.3746667 12.7376812,22.2946667 13.726087,22.172 C14.8101449,22.08 16.4362319,20.6846667 18.6043478,17.986 C20.9956522,15.1033333 22.0637681,12.8493333 21.8086957,11.224 C21.5217391,9.476 19.6884058,7.46733333 16.3086957,5.198 C13.1202899,2.92866667 10.2347826,1.472 7.65217391,0.828 Z" id="Layer1_0_MEMBER_0_MEMBER_5_MEMBER_0_1_STROKES"></path>
                            </g>
                        </g>
                        <g id="Group" transform="translate(139.190799, 31.617624) scale(-1, 1) rotate(50.543598) translate(-139.190799, -31.617624) translate(134.690799, 26.617624)" fill="#B5A19F" fill-rule="nonzero">
                            <g id="Layer1_0_MEMBER_0_MEMBER_5_MEMBER_1_FILL-link" transform="translate(0.027435, 0.032184)">
                                <g id="Layer1_0_MEMBER_0_MEMBER_5_MEMBER_1_FILL">
                                    <path d="M0.143113555,5.69319565 L3.05308917,8.89860833 L4.62733827,8.27666258 C5.86765575,7.86203209 6.86945063,7.59092753 7.63272293,7.46334892 C6.7740416,6.28324674 6.82174612,4.19414693 7.77583648,1.19604951 C6.94895816,1.48310139 5.7404437,1.49904871 4.15029309,1.24389149 L2.05129429,0.717629704 L0.143113555,5.69319565 Z" id="Path"></path>
                                </g>
                            </g>
                        </g>
                        <g id="Group" transform="translate(107.000000, 0.000000)">
                            <g id="Layer1_0_MEMBER_0_MEMBER_5_MEMBER_2_FILL-link" fill-rule="nonzero">
                                <g id="Layer1_0_MEMBER_0_MEMBER_5_MEMBER_2_FILL">
                                    <path d="M67.0117647,28.0409091 L56.1411765,11.6015152 C55.6392157,11.9146465 55.2470588,12.1494949 54.9647059,12.3060606 C54.054902,12.8383838 51.0901961,12.6348485 46.0705882,11.6954545 C42.8078431,11.0378788 39.372549,10.2550505 35.7647059,9.3469697 C31.8117647,8.34494949 28.454902,8.43888889 25.6941176,9.62878788 C23.9686275,10.3176768 21.6156863,10.9909091 18.6352941,11.6484848 C16.2196078,12.0555556 13.6313725,12.7444444 10.8705882,13.7151515 C9.30196078,14.8111111 8.42352941,15.4843434 8.23529412,15.7348485 C4.21960784,21.5277778 2.10196078,25.9272727 1.88235294,28.9333333 C1.56862745,32.8787879 1.17647059,37.4974747 0.705882353,42.7893939 L2.91764706,42.4136364 C4.64313725,41.9752525 5.74117647,41.2080808 6.21176471,40.1121212 C6.77647059,38.7656566 7.12156863,37.7010101 7.24705882,36.9181818 C7.68627451,35.3838384 7.85882353,33.8651515 7.76470588,32.3621212 C9.11372549,30.8277778 10.5411765,28.5888889 12.0470588,25.6454545 C13.0329657,24.6411103 13.6761029,23.2946457 13.9764706,21.6060606 C17.2078431,22.1070707 19.6705882,22.169697 21.3647059,21.7939394 C22.4313725,21.5434343 23.6862745,21.2929293 25.1294118,21.0424242 L26.9176471,20.7606061 L29.5529412,22.6863636 C31.372549,23.8762626 32.5647059,24.7060606 33.1294118,25.1757576 C33.8509804,25.7707071 34.4156863,27.2111111 34.8235294,29.4969697 C35.2313725,31.8141414 35.2627451,33.6146465 34.9176471,34.8984848 C34.7294118,35.8065657 33.1921569,38.2489899 30.3058824,42.2257576 C29.5843137,43.1964646 28.9882353,44.2767677 28.5176471,45.4666667 C25.4431373,47.8151515 23.4980392,49.3025253 22.6823529,49.9287879 C21.3019608,51.2752525 20.3607843,52.4651515 19.8588235,53.4984848 C19.3254902,54.719697 19.1372549,56.0191919 19.2941176,57.3969697 C19.3254902,58.2111111 19.7647059,59.1191919 20.6117647,60.1212121 C21.2078431,60.559596 21.7254902,60.9353535 22.1647059,61.2484848 C25.0823529,58.0858586 27.9529412,55.5808081 30.7764706,53.7333333 C32.1882353,52.7939394 33.2235294,51.7762626 33.8823529,50.680303 C33.945098,50.5237374 34.0078431,50.3828283 34.0705882,50.2575758 C34.0705882,50.2262626 34.0862745,50.2106061 34.1176471,50.2106061 C34.2431373,50.0227273 34.3686275,49.8661616 34.4941176,49.7409091 C36.2196078,47.7055556 37.2392157,46.5 37.5529412,46.1242424 C39.0901961,44.4646465 40.5803922,43.4313131 42.0235294,43.0242424 C47.7960784,41.3333333 52.1411765,39.0787879 55.0588235,36.2606061 C56.3764706,34.9141414 60.3607843,32.1742424 67.0117647,28.0409091 Z" id="Path" fill="#FCDFDD"></path>
                                    <polygon id="Path" fill="#FFFFFF" points="62.9176471 0.892424242 53.6941176 7.7969697 56.1411765 11.6015152 67.0117647 28.0409091 68.8470588 30.9530303 79.2 24.9409091"></polygon>
                                </g>
                            </g>
                            <g id="Layer1_0_MEMBER_0_MEMBER_5_MEMBER_2_1_STROKES-link" stroke="#2A3B4E" stroke-linecap="round" stroke-linejoin="round" stroke-width="0.75">
                                <path d="M67.0117647,28.0409091 L68.8470588,30.9530303 L79.2,24.9409091 L62.9176471,0.892424242 L53.6941176,7.7969697 L56.1411765,11.6015152 L67.0117647,28.0409091 C60.3607843,32.1742424 56.3764706,34.9141414 55.0588235,36.2606061 C52.1411765,39.0787879 47.7960784,41.3333333 42.0235294,43.0242424 C40.5803922,43.4313131 39.0901961,44.4646465 37.5529412,46.1242424 C37.2392157,46.5 36.2196078,47.7055556 34.4941176,49.7409091 C34.3686275,49.8661616 34.2431373,50.0227273 34.1176471,50.2106061 C34.0862745,50.2106061 34.0705882,50.2262626 34.0705882,50.2575758 C34.0078431,50.3828283 33.945098,50.5237374 33.8823529,50.680303 C33.2235294,51.7762626 32.1882353,52.7939394 30.7764706,53.7333333 C27.9529412,55.5808081 25.0823529,58.0858586 22.1647059,61.2484848 C21.7254902,60.9353535 21.2078431,60.559596 20.6117647,60.1212121 C19.7647059,59.1191919 19.3254902,58.2111111 19.2941176,57.3969697 C19.1372549,56.0191919 19.3254902,54.719697 19.8588235,53.4984848 C20.3607843,52.4651515 21.3019608,51.2752525 22.6823529,49.9287879 C23.4980392,49.3025253 25.4431373,47.8151515 28.5176471,45.4666667 C28.9882353,44.2767677 29.5843137,43.1964646 30.3058824,42.2257576 C33.1921569,38.2489899 34.7294118,35.8065657 34.9176471,34.8984848 C35.2627451,33.6146465 35.2313725,31.8141414 34.8235294,29.4969697 C34.4156863,27.2111111 33.8509804,25.7707071 33.1294118,25.1757576 C32.5647059,24.7060606 31.372549,23.8762626 29.5529412,22.6863636 L26.9176471,20.7606061 L25.1294118,21.0424242 C23.6862745,21.2929293 22.4313725,21.5434343 21.3647059,21.7939394 C19.6705882,22.169697 17.2078431,22.1070707 13.9764706,21.6060606 C13.6761029,23.2946457 13.0329657,24.6411103 12.0470588,25.6454545 C10.5411765,28.5888889 9.11372549,30.8277778 7.76470588,32.3621212 C7.85882353,33.8651515 7.68627451,35.3838384 7.24705882,36.9181818 C7.12156863,37.7010101 6.77647059,38.7656566 6.21176471,40.1121212 C5.74117647,41.2080808 4.64313725,41.9752525 2.91764706,42.4136364 L0.705882353,42.7893939 C1.17647059,37.4974747 1.56862745,32.8787879 1.88235294,28.9333333 C2.10196078,25.9272727 4.21960784,21.5277778 8.23529412,15.7348485 C8.42352941,15.4843434 9.30196078,14.8111111 10.8705882,13.7151515 C13.6313725,12.7444444 16.2196078,12.0555556 18.6352941,11.6484848 C21.6156863,10.9909091 23.9686275,10.3176768 25.6941176,9.62878788 C28.454902,8.43888889 31.8117647,8.34494949 35.7647059,9.3469697 C39.372549,10.2550505 42.8078431,11.0378788 46.0705882,11.6954545 C51.0901961,12.6348485 54.054902,12.8383838 54.9647059,12.3060606 C55.2470588,12.1494949 55.6392157,11.9146465 56.1411765,11.6015152" id="Layer1_0_MEMBER_0_MEMBER_5_MEMBER_2_1_STROKES"></path>
                            </g>
                        </g>
                        <g id="Group" transform="translate(130.730785, 56.799486) rotate(-33.801728) translate(-130.730785, -56.799486) translate(126.230785, 53.299486)" fill="#FFFFFF" fill-rule="nonzero">
                            <g id="Layer1_0_MEMBER_0_MEMBER_5_MEMBER_3_FILL-link" transform="translate(0.031191, 0.030966)">
                                <g id="Layer1_0_MEMBER_0_MEMBER_5_MEMBER_3_FILL">
                                    <path d="M1.01285923,5.43466758 L7.09001464,4.21464016 C7.24006786,3.91887594 7.24006786,3.17946539 7.09001464,1.9964085 L6.86493481,0.221823167 L5.73953566,0.110911583 C4.83921634,0.110911583 3.93889702,0.295764222 3.0385777,0.6654695 C1.98820516,1.18305689 1.27545237,1.92246744 0.900319319,2.88370117 C0.52518627,3.84493489 0.562699575,4.69525703 1.01285923,5.43466758 Z" id="Path"></path>
                                </g>
                            </g>
                        </g>
                        <g id="Group" transform="translate(110.924472, 39.431627) rotate(-3.476328) translate(-110.924472, -39.431627) translate(107.924472, 34.931627)" fill="#FFFFFF" fill-rule="nonzero">
                            <g id="Layer1_0_MEMBER_0_MEMBER_5_MEMBER_4_FILL-link" transform="translate(0.034846, 0.025458)">
                                <g id="Layer1_0_MEMBER_0_MEMBER_5_MEMBER_4_FILL">
                                    <path d="M1.27384397,0.426886856 L0.0943588126,7.25707656 C0.471794063,7.22545531 0.864955782,7.08315969 1.27384397,6.8301897 C2.2174321,6.32424972 2.81503791,5.596961 3.06666141,4.64832355 L4.05742894,0.901205585 L1.27384397,0.426886856 Z" id="Path"></path>
                                </g>
                            </g>
                        </g>
                        <g id="Group" transform="translate(25.000000, 119.000000)">
                            <g id="Layer1_0_MEMBER_0_MEMBER_6_FILL-link" fill="#C5E7EF" fill-rule="nonzero">
                                <g id="Layer1_0_MEMBER_0_MEMBER_6_FILL">
                                    <path d="M3.05454545,0.717391304 C1.01818182,0.717391304 0,1.75362319 0,3.82608696 L0,18.173913 C0,20.2463768 1.01818182,21.2826087 3.05454545,21.2826087 L17.4204545,21.2826087 C19.4886364,21.2826087 20.5227273,20.2463768 20.5227273,18.173913 L20.5227273,3.82608696 C20.5227273,1.75362319 19.4886364,0.717391304 17.4204545,0.717391304 L3.05454545,0.717391304 Z" id="Path"></path>
                                </g>
                            </g>
                            <g id="Layer1_0_MEMBER_0_MEMBER_6_1_STROKES-link" stroke="#2A3B4E" stroke-linecap="round" stroke-linejoin="round" stroke-width="0.75">
                                <path d="M3.05454545,0.717391304 L17.4204545,0.717391304 C19.4886364,0.717391304 20.5227273,1.75362319 20.5227273,3.82608696 L20.5227273,18.173913 C20.5227273,20.2463768 19.4886364,21.2826087 17.4204545,21.2826087 L3.05454545,21.2826087 C1.01818182,21.2826087 0,20.2463768 0,18.173913 L0,3.82608696 C0,1.75362319 1.01818182,0.717391304 3.05454545,0.717391304 Z" id="Layer1_0_MEMBER_0_MEMBER_6_1_STROKES"></path>
                            </g>
                        </g>
                        <g id="Group" transform="translate(51.000000, 119.000000)">
                            <g id="Layer1_0_MEMBER_0_MEMBER_7_FILL-link" fill="#C5E7EF" fill-rule="nonzero">
                                <g id="Layer1_0_MEMBER_0_MEMBER_7_FILL">
                                    <path d="M3.63478261,0.717391304 C1.56231884,0.717391304 0.526086957,1.75362319 0.526086957,3.82608696 L0.526086957,18.173913 C0.526086957,20.2463768 1.56231884,21.2826087 3.63478261,21.2826087 L18.0304348,21.2826087 C20.0710145,21.2826087 21.0913043,20.2463768 21.0913043,18.173913 L21.0913043,3.82608696 C21.0913043,1.75362319 20.0710145,0.717391304 18.0304348,0.717391304 L3.63478261,0.717391304 Z" id="Path"></path>
                                </g>
                            </g>
                            <g id="Layer1_0_MEMBER_0_MEMBER_7_1_STROKES-link" stroke="#2A3B4E" stroke-linecap="round" stroke-linejoin="round" stroke-width="0.75">
                                <path d="M3.63478261,0.717391304 L18.0304348,0.717391304 C20.0710145,0.717391304 21.0913043,1.75362319 21.0913043,3.82608696 L21.0913043,18.173913 C21.0913043,20.2463768 20.0710145,21.2826087 18.0304348,21.2826087 L3.63478261,21.2826087 C1.56231884,21.2826087 0.526086957,20.2463768 0.526086957,18.173913 L0.526086957,3.82608696 C0.526086957,1.75362319 1.56231884,0.717391304 3.63478261,0.717391304 Z" id="Layer1_0_MEMBER_0_MEMBER_7_1_STROKES"></path>
                            </g>
                        </g>
                        <g id="Group" transform="translate(77.000000, 119.000000)">
                            <g id="Layer1_0_MEMBER_0_MEMBER_8_FILL-link" fill="#C5E7EF" fill-rule="nonzero">
                                <g id="Layer1_0_MEMBER_0_MEMBER_8_FILL">
                                    <path d="M3.34090909,0.717391304 C1.27272727,0.717391304 0.238636364,1.75362319 0.238636364,3.82608696 L0.238636364,18.173913 C0.238636364,20.2463768 1.27272727,21.2826087 3.34090909,21.2826087 L17.7068182,21.2826087 C19.7431818,21.2826087 20.7613636,20.2463768 20.7613636,18.173913 L20.7613636,3.82608696 C20.7613636,1.75362319 19.7431818,0.717391304 17.7068182,0.717391304 L3.34090909,0.717391304 Z" id="Path"></path>
                                </g>
                            </g>
                            <g id="Layer1_0_MEMBER_0_MEMBER_8_1_STROKES-link" stroke="#2A3B4E" stroke-linecap="round" stroke-linejoin="round" stroke-width="0.75">
                                <path d="M3.34090909,0.717391304 L17.7068182,0.717391304 C19.7431818,0.717391304 20.7613636,1.75362319 20.7613636,3.82608696 L20.7613636,18.173913 C20.7613636,20.2463768 19.7431818,21.2826087 17.7068182,21.2826087 L3.34090909,21.2826087 C1.27272727,21.2826087 0.238636364,20.2463768 0.238636364,18.173913 L0.238636364,3.82608696 C0.238636364,1.75362319 1.27272727,0.717391304 3.34090909,0.717391304 Z" id="Layer1_0_MEMBER_0_MEMBER_8_1_STROKES"></path>
                            </g>
                        </g>
                        <g id="Group" transform="translate(103.000000, 119.000000)">
                            <g id="Layer1_0_MEMBER_0_MEMBER_9_FILL-link" fill="#C5E7EF" fill-rule="nonzero">
                                <g id="Layer1_0_MEMBER_0_MEMBER_9_FILL">
                                    <path d="M3.96956522,0.717391304 C1.89710145,0.717391304 0.860869565,1.75362319 0.860869565,3.82608696 L0.860869565,18.173913 C0.860869565,20.2463768 1.89710145,21.2826087 3.96956522,21.2826087 L18.3652174,21.2826087 C20.4057971,21.2826087 21.426087,20.2463768 21.426087,18.173913 L21.426087,3.82608696 C21.426087,1.75362319 20.4057971,0.717391304 18.3652174,0.717391304 L3.96956522,0.717391304 Z" id="Path"></path>
                                </g>
                            </g>
                            <g id="Layer1_0_MEMBER_0_MEMBER_9_1_STROKES-link" stroke="#2A3B4E" stroke-linecap="round" stroke-linejoin="round" stroke-width="0.75">
                                <path d="M3.96956522,0.717391304 L18.3652174,0.717391304 C20.4057971,0.717391304 21.426087,1.75362319 21.426087,3.82608696 L21.426087,18.173913 C21.426087,20.2463768 20.4057971,21.2826087 18.3652174,21.2826087 L3.96956522,21.2826087 C1.89710145,21.2826087 0.860869565,20.2463768 0.860869565,18.173913 L0.860869565,3.82608696 C0.860869565,1.75362319 1.89710145,0.717391304 3.96956522,0.717391304 Z" id="Layer1_0_MEMBER_0_MEMBER_9_1_STROKES"></path>
                            </g>
                        </g>
                        <g id="Group" transform="translate(0.000000, 119.000000)">
                            <g id="Layer1_0_MEMBER_0_MEMBER_10_FILL-link" fill="#C5E7EF" fill-rule="nonzero">
                                <g id="Layer1_0_MEMBER_0_MEMBER_10_FILL">
                                    <path d="M3.05454545,0.717391304 C1.01818182,0.717391304 0,1.75362319 0,3.82608696 L0,18.173913 C0,20.2463768 1.01818182,21.2826087 3.05454545,21.2826087 L17.4204545,21.2826087 C19.4886364,21.2826087 20.5227273,20.2463768 20.5227273,18.173913 L20.5227273,3.82608696 C20.5227273,1.75362319 19.4886364,0.717391304 17.4204545,0.717391304 L3.05454545,0.717391304 Z" id="Path"></path>
                                </g>
                            </g>
                            <g id="Layer1_0_MEMBER_0_MEMBER_10_1_STROKES-link" stroke="#2A3B4E" stroke-linecap="round" stroke-linejoin="round" stroke-width="0.75">
                                <path d="M3.05454545,0.717391304 L17.4204545,0.717391304 C19.4886364,0.717391304 20.5227273,1.75362319 20.5227273,3.82608696 L20.5227273,18.173913 C20.5227273,20.2463768 19.4886364,21.2826087 17.4204545,21.2826087 L3.05454545,21.2826087 C1.01818182,21.2826087 0,20.2463768 0,18.173913 L0,3.82608696 C0,1.75362319 1.01818182,0.717391304 3.05454545,0.717391304 Z" id="Layer1_0_MEMBER_0_MEMBER_10_1_STROKES"></path>
                            </g>
                        </g>
                        <g id="Group" transform="translate(51.000000, 70.000000)">
                            <g id="Layer1_0_MEMBER_0_MEMBER_11_FILL-link" fill="#C5E7EF" fill-rule="nonzero">
                                <g id="Layer1_0_MEMBER_0_MEMBER_11_FILL">
                                    <path d="M3.63478261,0.717391304 C1.56231884,0.717391304 0.526086957,1.75362319 0.526086957,3.82608696 L0.526086957,18.173913 C0.526086957,20.2463768 1.56231884,21.2826087 3.63478261,21.2826087 L18.0304348,21.2826087 C20.0710145,21.2826087 21.0913043,20.2463768 21.0913043,18.173913 L21.0913043,3.82608696 C21.0913043,1.75362319 20.0710145,0.717391304 18.0304348,0.717391304 L3.63478261,0.717391304 Z" id="Path"></path>
                                </g>
                            </g>
                            <g id="Layer1_0_MEMBER_0_MEMBER_11_1_STROKES-link" stroke="#2A3B4E" stroke-linecap="round" stroke-linejoin="round" stroke-width="0.75">
                                <path d="M3.63478261,0.717391304 L18.0304348,0.717391304 C20.0710145,0.717391304 21.0913043,1.75362319 21.0913043,3.82608696 L21.0913043,18.173913 C21.0913043,20.2463768 20.0710145,21.2826087 18.0304348,21.2826087 L3.63478261,21.2826087 C1.56231884,21.2826087 0.526086957,20.2463768 0.526086957,18.173913 L0.526086957,3.82608696 C0.526086957,1.75362319 1.56231884,0.717391304 3.63478261,0.717391304 Z" id="Layer1_0_MEMBER_0_MEMBER_11_1_STROKES"></path>
                            </g>
                        </g>
                        <g id="Group" transform="translate(78.000000, 70.000000)">
                            <g id="Layer1_0_MEMBER_0_MEMBER_12_FILL-link" fill="#C5E7EF" fill-rule="nonzero">
                                <g id="Layer1_0_MEMBER_0_MEMBER_12_FILL">
                                    <path d="M3.34090909,0.717391304 C1.27272727,0.717391304 0.238636364,1.75362319 0.238636364,3.82608696 L0.238636364,18.173913 C0.238636364,20.2463768 1.27272727,21.2826087 3.34090909,21.2826087 L17.7068182,21.2826087 C19.7431818,21.2826087 20.7613636,20.2463768 20.7613636,18.173913 L20.7613636,3.82608696 C20.7613636,1.75362319 19.7431818,0.717391304 17.7068182,0.717391304 L3.34090909,0.717391304 Z" id="Path"></path>
                                </g>
                            </g>
                            <g id="Layer1_0_MEMBER_0_MEMBER_12_1_STROKES-link" stroke="#2A3B4E" stroke-linecap="round" stroke-linejoin="round" stroke-width="0.75">
                                <path d="M3.34090909,0.717391304 L17.7068182,0.717391304 C19.7431818,0.717391304 20.7613636,1.75362319 20.7613636,3.82608696 L20.7613636,18.173913 C20.7613636,20.2463768 19.7431818,21.2826087 17.7068182,21.2826087 L3.34090909,21.2826087 C1.27272727,21.2826087 0.238636364,20.2463768 0.238636364,18.173913 L0.238636364,3.82608696 C0.238636364,1.75362319 1.27272727,0.717391304 3.34090909,0.717391304 Z" id="Layer1_0_MEMBER_0_MEMBER_12_1_STROKES"></path>
                            </g>
                        </g>
                        <g id="Group" transform="translate(103.000000, 70.000000)">
                            <g id="Layer1_0_MEMBER_0_MEMBER_13_FILL-link" fill="#C5E7EF" fill-rule="nonzero">
                                <g id="Layer1_0_MEMBER_0_MEMBER_13_FILL">
                                    <path d="M3.96956522,0.717391304 C1.89710145,0.717391304 0.860869565,1.75362319 0.860869565,3.82608696 L0.860869565,18.173913 C0.860869565,20.2463768 1.89710145,21.2826087 3.96956522,21.2826087 L18.3652174,21.2826087 C20.4057971,21.2826087 21.426087,20.2463768 21.426087,18.173913 L21.426087,3.82608696 C21.426087,1.75362319 20.4057971,0.717391304 18.3652174,0.717391304 L3.96956522,0.717391304 Z" id="Path"></path>
                                </g>
                            </g>
                            <g id="Layer1_0_MEMBER_0_MEMBER_13_1_STROKES-link" stroke="#2A3B4E" stroke-linecap="round" stroke-linejoin="round" stroke-width="0.75">
                                <path d="M3.96956522,0.717391304 L18.3652174,0.717391304 C20.4057971,0.717391304 21.426087,1.75362319 21.426087,3.82608696 L21.426087,18.173913 C21.426087,20.2463768 20.4057971,21.2826087 18.3652174,21.2826087 L3.96956522,21.2826087 C1.89710145,21.2826087 0.860869565,20.2463768 0.860869565,18.173913 L0.860869565,3.82608696 C0.860869565,1.75362319 1.89710145,0.717391304 3.96956522,0.717391304 Z" id="Layer1_0_MEMBER_0_MEMBER_13_1_STROKES"></path>
                            </g>
                        </g>
                        <g id="Group" transform="translate(138.000000, 67.000000)" stroke="#2A3B4E" stroke-linecap="round" stroke-linejoin="round" stroke-width="0.876617432">
                            <g id="Layer1_0_MEMBER_1_1_STROKES-link" transform="translate(0.055536, 0.264814)">
                                <path d="M0.531999344,0.418887212 L0.531999344,7.52887844" id="Layer1_0_MEMBER_1_1_STROKES"></path>
                            </g>
                        </g>
                        <g id="Group" transform="translate(136.000000, 71.000000)" stroke="#2A3B4E" stroke-linecap="round" stroke-linejoin="round" stroke-width="0.75">
                            <g id="Layer1_0_MEMBER_2_1_STROKES-link">
                                <path d="M0,1.1 L5.87142857,1.1" id="Layer1_0_MEMBER_2_1_STROKES"></path>
                            </g>
                        </g>
                        <g id="Group" transform="translate(140.000000, 60.000000)" stroke="#2A3B4E" stroke-linecap="round" stroke-linejoin="round" stroke-width="0.876617432">
                            <g id="Layer1_0_MEMBER_3_1_STROKES-link" transform="translate(0.296285, 0.257507)">
                                <path d="M3.02319326,2.2922223 C3.02319326,2.73666619 2.88430454,3.09777686 2.6065271,3.37555429 C2.32874967,3.65333173 1.967639,3.79222045 1.5231951,3.79222045 C1.1343067,3.79222045 0.773196029,3.65333173 0.439863107,3.37555429 C0.162085672,3.09777686 0.0231969543,2.73666619 0.0231969543,2.2922223 C0.0231969543,1.90333389 0.162085672,1.54222322 0.439863107,1.2088903 C0.773196029,0.931112864 1.1343067,0.792224146 1.5231951,0.792224146 C1.967639,0.792224146 2.32874967,0.931112864 2.6065271,1.2088903 C2.88430454,1.54222322 3.02319326,1.90333389 3.02319326,2.2922223 Z" id="Layer1_0_MEMBER_3_1_STROKES"></path>
                            </g>
                        </g>
                    </g>
                </g>
            </g>
        </g>
    </g>
</svg>