<?xml version="1.0" encoding="UTF-8"?>
<svg width="221px" height="160px" viewBox="0 0 221 160" version="1.1" xmlns="http://www.w3.org/2000/svg" xmlns:xlink="http://www.w3.org/1999/xlink">
    <!-- Generator: Sketch 53.2 (72643) - https://sketchapp.com -->
    <title>Group 39</title>
    <desc>Created with Sketch.</desc>
    <g id="Page-2" stroke="none" stroke-width="1" fill="none" fill-rule="evenodd">
        <g id="HOME-" transform="translate(-589.000000, -1993.000000)">
            <g id="Group-39" transform="translate(590.000000, 1993.000000)">
                <g id="Group-38">
                    <g id="Group-30" transform="translate(27.000000, 0.000000)" fill="#FAF7F1">
                        <path d="M104.232639,0.776807585 C122.84367,-1.28867606 140.297723,0.764830985 156.5948,6.93732871 C211.544122,27.7493176 181.317006,196.889341 66.7366912,152.65451 C37.1038069,141.214451 17.0814015,127.946652 6.66947497,112.851114 C19.7148647,124.609289 34.2100778,127.885916 20.9708597,118.711829 C9.67491701,110.884331 2.68463044,95.8481785 4.44422277e-13,73.6033722 C3.76920087,59.4503332 13.4887361,44.1656484 29.1586057,27.7493176 C43.9899082,19.2327712 58.2705677,12.6765854 72.0005844,8.08076032 C93.1301466,4.26111439 112.224369,4.39595443 129.283252,8.48528045 C153.360746,14.2570958 134.346402,6.02372464 104.232619,0.77680978 Z" id="Combined-Shape-Copy-4"></path>
                    </g>
                    <g id="190308-Rapid01" transform="translate(0.000000, 18.000000)">
                        <g id="Group" transform="translate(26.000000, 81.927835)" stroke="#2A3B4E" stroke-linecap="round" stroke-linejoin="round" stroke-width="0.75">
                            <g id="Layer2_0_1_STROKES-link">
                                <path d="M2.34285714,7.59333333 C3.02857143,5.74222222 4.01904762,4.00444444 5.31428571,2.38 C5.65714286,1.92666667 6.01904762,1.49222222 6.4,1.07666667 C6.59047619,0.887777778 6.78095238,0.698888889 6.97142857,0.51 M0.971428571,16.7733333 C0.933333333,16.32 0.914285714,15.8666667 0.914285714,15.4133333 C0.914285714,14.6955556 0.952380952,13.9966667 1.02857143,13.3166667" id="Layer2_0_1_STROKES"></path>
                            </g>
                        </g>
                        <g id="Group" transform="translate(50.000000, 3.927835)" fill-rule="nonzero">
                            <g id="Layer1_0_FILL-link">
                                <g id="Layer1_0_FILL">
                                    <polygon id="Path" fill="#DAF2F6" points="32.4268657 10.3762887 1.08470149 10.3762887 1.08470149 108.185567 1.08470149 109.716495 32.4268657 109.716495"></polygon>
                                    <path d="M150.944776,1.41752577 C150.259701,0.737113402 149.422388,0.396907216 148.432836,0.396907216 L3.99626866,0.396907216 C3.04477612,0.396907216 2.20746269,0.737113402 1.48432836,1.41752577 C0.799253731,2.13573883 0.456716418,2.96735395 0.456716418,3.91237113 L0.456716418,106.14433 C0.456716418,106.328461 0.456716418,106.498564 0.456716418,106.654639 C0.500722948,106.842314 0.538782649,107.012417 0.570895522,107.164948 C0.640919426,107.345831 0.717038829,107.515934 0.799253731,107.675258 C0.877157183,107.856435 0.972306437,108.026538 1.08470149,108.185567 L1.08470149,10.3762887 L32.4268657,10.3762887 L151.972388,10.3762887 L151.972388,3.91237113 C151.972388,2.96735395 151.629851,2.13573883 150.944776,1.41752577 Z" id="Path" fill="#FEFEFE"></path>
                                </g>
                            </g>
                        </g>
                        <g id="Group" transform="translate(169.000000, 17.927835)" fill="#D2D5D4" fill-rule="nonzero">
                            <g id="Layer1_0_MEMBER_0_FILL-link">
                                <g id="Layer1_0_MEMBER_0_FILL">
                                    <path d="M10.285,0.95 C10.5416667,0.95 10.67,0.833333333 10.67,0.6 C10.67,0.366666667 10.5416667,0.25 10.285,0.25 L1.1,0.25 C0.88,0.25 0.77,0.366666667 0.77,0.6 C0.77,0.833333333 0.88,0.95 1.1,0.95 L10.285,0.95 Z" id="Path"></path>
                                </g>
                            </g>
                        </g>
                        <g id="Group" transform="translate(187.000000, 17.927835)" fill="#D2D5D4" fill-rule="nonzero">
                            <g id="Layer1_0_MEMBER_1_FILL-link">
                                <g id="Layer1_0_MEMBER_1_FILL">
                                    <path d="M9.845,0.95 C10.1016667,0.95 10.23,0.833333333 10.23,0.6 C10.23,0.366666667 10.1016667,0.25 9.845,0.25 L0.715,0.25 C0.458333333,0.25 0.33,0.366666667 0.33,0.6 C0.33,0.833333333 0.458333333,0.95 0.715,0.95 L9.845,0.95 Z" id="Path"></path>
                                </g>
                            </g>
                        </g>
                        <g id="Group" transform="translate(165.000000, 16.927835)" fill="#F08080" fill-rule="nonzero">
                            <g id="Layer1_0_MEMBER_2_FILL-link">
                                <g id="Layer1_0_MEMBER_2_FILL">
                                    <path d="M2.65,1.65 C2.65,1.35 2.55,1.1 2.35,0.9 C2.15,0.7 1.9,0.6 1.6,0.6 C1.33333333,0.6 1.1,0.7 0.9,0.9 C0.7,1.1 0.6,1.35 0.6,1.65 C0.6,1.91666667 0.7,2.15 0.9,2.35 C1.1,2.55 1.33333333,2.65 1.6,2.65 C1.9,2.65 2.15,2.55 2.35,2.35 C2.55,2.15 2.65,1.91666667 2.65,1.65 Z" id="Path"></path>
                                </g>
                            </g>
                        </g>
                        <g id="Group" transform="translate(183.000000, 16.927835)" fill="#AACDAA" fill-rule="nonzero">
                            <g id="Layer1_0_MEMBER_3_FILL-link">
                                <g id="Layer1_0_MEMBER_3_FILL">
                                    <path d="M2.65,1.65 C2.65,1.35 2.55,1.1 2.35,0.9 C2.11666667,0.7 1.86666667,0.6 1.6,0.6 C1.3,0.6 1.05,0.7 0.85,0.9 C0.65,1.1 0.55,1.35 0.55,1.65 C0.55,1.91666667 0.65,2.15 0.85,2.35 C1.05,2.55 1.3,2.65 1.6,2.65 C1.86666667,2.65 2.11666667,2.55 2.35,2.35 C2.55,2.15 2.65,1.91666667 2.65,1.65 Z" id="Path"></path>
                                </g>
                            </g>
                        </g>
                        <g id="Group" transform="translate(14.000000, 3.927835)" stroke="#2A3B4E" stroke-linecap="round" stroke-linejoin="round" stroke-width="0.75">
                            <g id="Layer1_0_MEMBER_4_1_STROKES-link">
                                <path d="M48.9772727,0.5 L0.397727273,0.5" id="Layer1_0_MEMBER_4_1_STROKES"></path>
                            </g>
                        </g>
                        <g id="Group" transform="translate(208.000000, 8.927835)" stroke="#2A3B4E" stroke-linecap="round" stroke-linejoin="round" stroke-width="0.876617432">
                            <g id="Layer1_0_MEMBER_4_MEMBER_0_1_STROKES-link" transform="translate(0.654858, 0.494238)">
                                <path d="M1.05155658,0.237280821 L1.05155658,8.13727108" id="Layer1_0_MEMBER_4_MEMBER_0_1_STROKES"></path>
                            </g>
                        </g>
                        <g id="Group" transform="translate(205.000000, 11.927835)" stroke="#2A3B4E" stroke-linecap="round" stroke-linejoin="round" stroke-width="0.876617432">
                            <g id="Layer1_0_MEMBER_4_MEMBER_1_1_STROKES-link" transform="translate(0.232617, 0.916479)">
                                <path d="M0.5738026,0.715034802 L8.37379298,0.715034802" id="Layer1_0_MEMBER_4_MEMBER_1_1_STROKES"></path>
                            </g>
                        </g>
                        <g id="Group" transform="translate(210.000000, 0.927835)" stroke="#2A3B4E" stroke-linecap="round" stroke-linejoin="round" stroke-width="0.876617432">
                            <g id="Layer1_0_MEMBER_4_MEMBER_2_1_STROKES-link" transform="translate(0.936353, 0.509009)">
                                <path d="M3.97005603,2.52251734 C3.97005603,3.05585002 3.80338957,3.48918282 3.47005664,3.82251574 C3.13672372,4.15584866 2.70339092,4.32251512 2.17005825,4.32251512 C1.70339216,4.32251512 1.27005936,4.15584866 0.87005985,3.82251574 C0.536726927,3.48918282 0.370060466,3.05585002 0.370060466,2.52251734 C0.370060466,2.05585125 0.536726927,1.62251845 0.87005985,1.22251895 C1.27005936,0.889186023 1.70339216,0.722519562 2.17005825,0.722519562 C2.70339092,0.722519562 3.13672372,0.889186023 3.47005664,1.22251895 C3.80338957,1.62251845 3.97005603,2.05585125 3.97005603,2.52251734 Z" id="Layer1_0_MEMBER_4_MEMBER_2_1_STROKES"></path>
                            </g>
                        </g>
                        <g id="Group" transform="translate(22.000000, 10.927835)" stroke="#2A3B4E" stroke-linecap="round" stroke-linejoin="round" stroke-width="0.75">
                            <g id="Layer1_0_MEMBER_5_1_STROKES-link">
                                <path d="M41.0351351,0.8 L0.964864865,0.8" id="Layer1_0_MEMBER_5_1_STROKES"></path>
                            </g>
                        </g>
                        <g id="Group" transform="translate(36.000000, 18.927835)" stroke="#2A3B4E" stroke-linecap="round" stroke-linejoin="round" stroke-width="0.75">
                            <g id="Layer1_0_MEMBER_6_1_STROKES-link">
                                <path d="M27.048,0.65 L0,0.65" id="Layer1_0_MEMBER_6_1_STROKES"></path>
                            </g>
                        </g>
                        <g id="Group" transform="translate(0.000000, 2.927835)" stroke="#2A3B4E" stroke-linecap="round" stroke-linejoin="round" stroke-width="0.75">
                            <g id="Layer1_0_MEMBER_7_1_STROKES-link">
                                <path d="M8.1,0.9 L0.16875,0.9" id="Layer1_0_MEMBER_7_1_STROKES"></path>
                            </g>
                        </g>
                        <g id="Group" transform="translate(11.000000, 10.927835)" stroke="#2A3B4E" stroke-linecap="round" stroke-linejoin="round" stroke-width="0.75">
                            <g id="Layer1_0_MEMBER_8_1_STROKES-link">
                                <path d="M6.71428571,0.8 L0.0857142857,0.8" id="Layer1_0_MEMBER_8_1_STROKES"></path>
                            </g>
                        </g>
                        <g id="Group" transform="translate(50.000000, 2.927835)" fill="#8CC0CF" fill-rule="nonzero">
                            <g id="Layer1_0_MEMBER_9_FILL-link">
                                <g id="Layer1_0_MEMBER_9_FILL">
                                    <path d="M150.887687,1.925 C150.088433,1.19166667 149.13694,0.825 148.033209,0.825 L4.51007463,0.825 C3.40634328,0.825 2.4738806,1.19166667 1.71268657,1.925 C0.913432836,2.695 0.51380597,3.61166667 0.51380597,4.675 L0.51380597,10.285 L152.029478,10.285 L152.029478,4.675 C152.029478,3.61166667 151.648881,2.695 150.887687,1.925 Z" id="Path"></path>
                                </g>
                            </g>
                        </g>
                        <g id="Group" transform="translate(82.000000, 18.927835)" fill="#EFF8FB" fill-rule="nonzero">
                            <g id="Layer1_0_MEMBER_10_FILL-link">
                                <g id="Layer1_0_MEMBER_10_FILL">
                                    <polygon id="Path" points="119.615625 0.113095238 0.2671875 0.113095238 0.2671875 94.3214286 119.615625 94.3214286"></polygon>
                                </g>
                            </g>
                        </g>
                        <g id="Group" transform="translate(50.000000, 12.927835)" fill="#EAEAEA" fill-rule="nonzero">
                            <g id="Layer1_0_MEMBER_11_FILL-link">
                                <g id="Layer1_0_MEMBER_11_FILL">
                                    <polygon id="Path" points="151.885714 7.6 151.885714 0.571428571 0.4 0.571428571 0.4 7.6"></polygon>
                                </g>
                            </g>
                        </g>
                        <g id="Group" transform="translate(50.000000, 3.927835)" fill="#8CC0CF" fill-rule="nonzero">
                            <g id="Layer1_0_MEMBER_12_FILL-link">
                                <g id="Layer1_0_MEMBER_12_FILL">
                                    <path d="M150.830597,1.5 C150.031343,0.759259259 149.079851,0.388888889 147.976119,0.388888889 L4.45298507,0.388888889 C3.34925373,0.388888889 2.41679104,0.759259259 1.65559701,1.5 C0.856343284,2.27777778 0.456716418,3.2037037 0.456716418,4.27777778 L0.456716418,9.94444444 L151.972388,9.94444444 L151.972388,4.27777778 C151.972388,3.2037037 151.591791,2.27777778 150.830597,1.5 Z" id="Path"></path>
                                </g>
                            </g>
                        </g>
                        <g id="Group" transform="translate(193.000000, 7.927835)" stroke="#2A3B4E" stroke-linecap="round" stroke-linejoin="round" stroke-width="0.25">
                            <g id="Layer1_0_MEMBER_13_1_STROKES-link">
                                <path d="M2.65,1.1 C2.65,1.4 2.55,1.65 2.35,1.85 C2.11666667,2.05 1.85,2.15 1.55,2.15 C1.25,2.15 1,2.05 0.8,1.85 C0.566666667,1.65 0.45,1.4 0.45,1.1 C0.45,0.766666667 0.566666667,0.5 0.8,0.3 C1,0.1 1.25,0 1.55,0 C1.85,0 2.11666667,0.1 2.35,0.3 C2.55,0.5 2.65,0.766666667 2.65,1.1 Z" id="Layer1_0_MEMBER_13_1_STROKES"></path>
                            </g>
                        </g>
                        <g id="Group" transform="translate(119.000000, 46.927835)">
                            <g id="Layer1_0_MEMBER_14_FILL-link" transform="translate(0.000000, 0.100000)" fill="#FFFFFF" fill-rule="nonzero">
                                <g id="Layer1_0_MEMBER_14_FILL">
                                    <polygon id="Path" points="40.4824561 0.495 37.1184211 0.495 21.4385965 0.495 9.63596491 0.495 0.228070175 0.495 0.228070175 3.025 0.228070175 6.27 0.228070175 8.965 4.21929825 8.965 6.55701754 8.965 16.6491228 8.965 18.0745614 8.965 24.5745614 8.965 33.3552632 8.965 42.9912281 8.965 46.0131579 8.965 50.2894737 8.965 56.5614035 8.965 59.8684211 8.965 62.8903509 8.965 64.6008772 8.965 64.6008772 0.495 57.4736842 0.495 53.1973684 0.495"></polygon>
                                </g>
                            </g>
                            <g id="Layer1_0_MEMBER_14_1_STROKES-link" stroke="#2A3B4E" stroke-linecap="round" stroke-linejoin="round" stroke-width="0.1">
                                <path d="M37.1184211,0.595 L21.4385965,0.595 M9.63596491,0.595 L0.228070175,0.595 L0.228070175,3.125 M0.228070175,6.37 L0.228070175,9.065 L4.21929825,9.065 M6.55701754,9.065 L16.6491228,9.065 M18.0745614,9.065 L24.5745614,9.065 M33.3552632,9.065 L42.9912281,9.065 M46.0131579,9.065 L50.2894737,9.065 M56.5614035,9.065 L59.8684211,9.065 M62.8903509,9.065 L64.6008772,9.065 L64.6008772,0.595 L57.4736842,0.595 M53.1973684,0.595 L40.4824561,0.595" id="Layer1_0_MEMBER_14_1_STROKES"></path>
                            </g>
                        </g>
                        <g id="Group" transform="translate(115.000000, 52.927835)" fill="#B6D5DA" fill-rule="nonzero">
                            <g id="Layer1_0_MEMBER_15_FILL-link">
                                <g id="Layer1_0_MEMBER_15_FILL">
                                    <polygon id="Path" points="64.5975 9.08333333 64.5975 0.466666667 0.495 0.466666667 0.495 9.08333333"></polygon>
                                </g>
                            </g>
                        </g>
                        <g id="Group" transform="translate(93.000000, 28.927835)" fill="#B6D5DA" fill-rule="nonzero">
                            <g id="Layer1_0_MEMBER_16_FILL-link">
                                <g id="Layer1_0_MEMBER_16_FILL">
                                    <polygon id="Path" points="31.32 10 31.32 0.6 0.24 0.6 0.24 10"></polygon>
                                </g>
                            </g>
                        </g>
                        <g id="Group" transform="translate(133.000000, 28.927835)" fill="#BCE1BC" fill-rule="nonzero">
                            <g id="Layer1_0_MEMBER_17_FILL-link">
                                <g id="Layer1_0_MEMBER_17_FILL">
                                    <polygon id="Path" points="50.895 10 50.895 0.6 0.39 0.6 0.39 10"></polygon>
                                </g>
                            </g>
                        </g>
                        <g id="Group" transform="translate(56.000000, 24.927835)" fill="#B6D5DA" fill-rule="nonzero">
                            <g id="Layer1_0_MEMBER_18_MEMBER_0_FILL-link">
                                <g id="Layer1_0_MEMBER_18_MEMBER_0_FILL">
                                    <polygon id="Path" points="7.83 7.25 7.83 0.2 0.06 0.2 0.06 7.25"></polygon>
                                </g>
                            </g>
                        </g>
                        <g id="Group" transform="translate(56.000000, 32.927835)" stroke="#B9C4C6" stroke-linecap="round" stroke-linejoin="round" stroke-width="1.37766712">
                            <g id="Layer1_0_MEMBER_18_MEMBER_1_1_STROKES-link" transform="translate(0.254471, 0.734290)">
                                <path d="M7.22880185,0.926467332 L0.328823986,0.926467332" id="Layer1_0_MEMBER_18_MEMBER_1_1_STROKES"></path>
                            </g>
                        </g>
                        <g id="Group" transform="translate(56.000000, 39.927835)" fill="#B6D5DA" fill-rule="nonzero">
                            <g id="Layer1_0_MEMBER_19_MEMBER_0_FILL-link">
                                <g id="Layer1_0_MEMBER_19_MEMBER_0_FILL">
                                    <polygon id="Path" points="7.83 7.25 7.83 0.2 0.06 0.2 0.06 7.25"></polygon>
                                </g>
                            </g>
                        </g>
                        <g id="Group" transform="translate(56.000000, 47.927835)" stroke="#B9C4C6" stroke-linecap="round" stroke-linejoin="round" stroke-width="1.37766712">
                            <g id="Layer1_0_MEMBER_19_MEMBER_1_1_STROKES-link" transform="translate(0.254471, 0.978778)">
                                <path d="M7.22880185,0.704244432 L0.328823986,0.704244432" id="Layer1_0_MEMBER_19_MEMBER_1_1_STROKES"></path>
                            </g>
                        </g>
                        <g id="Group" transform="translate(68.000000, 39.927835)" fill="#B6D5DA" fill-rule="nonzero">
                            <g id="Layer1_0_MEMBER_20_MEMBER_0_FILL-link">
                                <g id="Layer1_0_MEMBER_20_MEMBER_0_FILL">
                                    <polygon id="Path" points="7.83 7.25 7.83 0.2 0.06 0.2 0.06 7.25"></polygon>
                                </g>
                            </g>
                        </g>
                        <g id="Group" transform="translate(67.000000, 47.927835)" stroke="#B9C4C6" stroke-linecap="round" stroke-linejoin="round" stroke-width="1.37766712">
                            <g id="Layer1_0_MEMBER_20_MEMBER_1_1_STROKES-link" transform="translate(0.209371, 0.978778)">
                                <path d="M7.67227413,0.704244432 L0.6610063,0.704244432" id="Layer1_0_MEMBER_20_MEMBER_1_1_STROKES"></path>
                            </g>
                        </g>
                        <g id="Group" transform="translate(68.000000, 24.927835)" fill="#B6D5DA" fill-rule="nonzero">
                            <g id="Layer1_0_MEMBER_21_MEMBER_0_FILL-link">
                                <g id="Layer1_0_MEMBER_21_MEMBER_0_FILL">
                                    <polygon id="Path" points="7.83 7.25 7.83 0.2 0.06 0.2 0.06 7.25"></polygon>
                                </g>
                            </g>
                        </g>
                        <g id="Group" transform="translate(67.000000, 32.927835)" stroke="#B9C4C6" stroke-linecap="round" stroke-linejoin="round" stroke-width="1.37766712">
                            <g id="Layer1_0_MEMBER_21_MEMBER_1_1_STROKES-link" transform="translate(0.035901, 0.734290)">
                                <path d="M7.71893832,0.926467332 L0.563405719,0.926467332" id="Layer1_0_MEMBER_21_MEMBER_1_1_STROKES"></path>
                            </g>
                        </g>
                        <g id="Group" transform="translate(56.000000, 54.927835)" fill="#B6D5DA" fill-rule="nonzero">
                            <g id="Layer1_0_MEMBER_22_MEMBER_0_FILL-link">
                                <g id="Layer1_0_MEMBER_22_MEMBER_0_FILL">
                                    <polygon id="Path" points="7.83 7.25 7.83 0.2 0.06 0.2 0.06 7.25"></polygon>
                                </g>
                            </g>
                        </g>
                        <g id="Group" transform="translate(56.000000, 62.927835)" stroke="#B9C4C6" stroke-linecap="round" stroke-linejoin="round" stroke-width="1.37766712">
                            <g id="Layer1_0_MEMBER_22_MEMBER_1_1_STROKES-link" transform="translate(0.254471, 0.523267)">
                                <path d="M7.22880185,1.14869023 L0.328823986,1.14869023" id="Layer1_0_MEMBER_22_MEMBER_1_1_STROKES"></path>
                            </g>
                        </g>
                        <g id="Group" transform="translate(68.000000, 54.927835)" fill="#B6D5DA" fill-rule="nonzero">
                            <g id="Layer1_0_MEMBER_23_MEMBER_0_FILL-link">
                                <g id="Layer1_0_MEMBER_23_MEMBER_0_FILL">
                                    <polygon id="Path" points="7.83 7.25 7.83 0.2 0.06 0.2 0.06 7.25"></polygon>
                                </g>
                            </g>
                        </g>
                        <g id="Group" transform="translate(67.000000, 62.927835)" stroke="#B9C4C6" stroke-linecap="round" stroke-linejoin="round" stroke-width="1.37766712">
                            <g id="Layer1_0_MEMBER_23_MEMBER_1_1_STROKES-link" transform="translate(0.209371, 0.523267)">
                                <path d="M7.67227413,1.14869023 L0.6610063,1.14869023" id="Layer1_0_MEMBER_23_MEMBER_1_1_STROKES"></path>
                            </g>
                        </g>
                        <g id="Group" transform="translate(50.000000, 2.927835)" stroke="#2A3B4E" stroke-linecap="round" stroke-linejoin="round" stroke-width="0.75">
                            <g id="Layer1_0_MEMBER_24_1_STROKES-link">
                                <path d="M0.5,106.544681 L0.5,3.92712766 C0.5,2.9785461 0.875,2.14379433 1.625,1.42287234 C2.41666667,0.739893617 3.33333333,0.398404255 4.375,0.398404255" id="Layer1_0_MEMBER_24_1_STROKES"></path>
                            </g>
                        </g>
                        <g id="Group" transform="translate(50.000000, 2.927835)" stroke="#2A3B4E" stroke-linecap="round" stroke-linejoin="round" stroke-width="0.75">
                            <g id="Layer1_0_MEMBER_25_1_STROKES-link">
                                <path d="M3.99626866,0.396907216 L148.432836,0.396907216 C149.422388,0.396907216 150.259701,0.737113402 150.944776,1.41752577 C151.629851,2.13573883 151.972388,2.96735395 151.972388,3.91237113 L151.972388,106.14433 C151.972388,107.127148 151.629851,107.958763 150.944776,108.639175 C150.259701,109.319588 149.422388,109.659794 148.432836,109.659794 L3.99626866,109.659794 C3.04477612,109.659794 2.20746269,109.319588 1.48432836,108.639175 C1.33461695,108.490483 1.201408,108.32983 1.08470149,108.157216 C0.974685168,108.00749 0.879535914,107.846837 0.799253731,107.675258 C0.717038829,107.515934 0.650434352,107.345831 0.599440299,107.164948 C0.548297575,107.012417 0.510237873,106.851764 0.485261194,106.68299 C0.466231343,106.508014 0.456716418,106.328461 0.456716418,106.14433" id="Layer1_0_MEMBER_25_1_STROKES"></path>
                            </g>
                        </g>
                        <g id="Group" transform="translate(36.000000, 83.927835)" fill="#FAFAFA" fill-rule="nonzero">
                            <g id="Layer1_0_MEMBER_26_MEMBER_0_MEMBER_0_FILL-link">
                                <g id="Layer1_0_MEMBER_26_MEMBER_0_MEMBER_0_FILL">
                                    <path d="M0.106422018,14.4068807 C0.106422018,18.3888379 1.51207951,21.785474 4.3233945,24.596789 C7.13470948,27.408104 10.5269113,28.8137615 14.5,28.8137615 C18.4819572,28.8137615 21.8785933,27.408104 24.6899083,24.596789 C27.5012232,21.785474 28.9068807,18.3888379 28.9068807,14.4068807 C28.9068807,10.433792 27.5012232,7.03715596 24.6899083,4.21697248 C21.8785933,1.40565749 18.4819572,0 14.5,0 C10.5269113,0 7.13470948,1.40565749 4.3233945,4.21697248 C1.51207951,7.02828746 0.106422018,10.4249235 0.106422018,14.4068807 Z" id="Path"></path>
                                </g>
                            </g>
                        </g>
                        <g id="Group" transform="translate(47.000000, 73.927835)">
                            <g id="Layer1_0_MEMBER_26_MEMBER_1_FILL-link" fill="#D0D9DC" fill-rule="nonzero">
                                <g id="Layer1_0_MEMBER_26_MEMBER_1_FILL">
                                    <polygon id="Path" points="2.57142857 3.34285714 2.57142857 6.48571429 5.08571429 6.48571429 5.08571429 3.34285714 7.08571429 3.34285714 7.08571429 0.0857142857 0.685714286 0.0857142857 0.685714286 3.34285714"></polygon>
                                </g>
                            </g>
                            <g id="Layer1_0_MEMBER_26_MEMBER_1_1_STROKES-link" stroke="#293B4F" stroke-linecap="round" stroke-linejoin="round" stroke-width="0.75">
                                <polyline id="Layer1_0_MEMBER_26_MEMBER_1_1_STROKES" points="2.57142857 6.48571429 2.57142857 3.34285714 0.685714286 3.34285714 0.685714286 0.0857142857 7.08571429 0.0857142857 7.08571429 3.34285714 5.08571429 3.34285714 5.08571429 6.48571429"></polyline>
                            </g>
                        </g>
                        <g id="Group" transform="translate(32.000000, 78.927835)">
                            <g id="Layer1_0_MEMBER_26_MEMBER_2_MEMBER_0_MEMBER_0_FILL-link" transform="translate(0.344828, 1.321429)" fill="#D1D9DC" fill-rule="nonzero">
                                <g id="Layer1_0_MEMBER_26_MEMBER_2_MEMBER_0_MEMBER_0_FILL">
                                    <path d="M36.7137931,17.7732143 C36.7137931,12.839881 34.9431034,8.65535714 31.4017241,5.21964286 C27.8603448,1.73988095 23.6017241,0 18.6258621,0 C13.65,0 9.39137931,1.73988095 5.85,5.21964286 C2.30862069,8.65535714 0.537931034,12.839881 0.537931034,17.7732143 C0.537931034,22.6625 2.30862069,26.8470238 5.85,30.3267857 C9.39137931,33.8065476 13.65,35.5464286 18.6258621,35.5464286 C23.6017241,35.5464286 27.8603448,33.8065476 31.4017241,30.3267857 C34.9431034,26.8470238 36.7137931,22.6625 36.7137931,17.7732143 Z" id="Path"></path>
                                </g>
                            </g>
                            <g id="Layer1_0_MEMBER_26_MEMBER_2_MEMBER_0_MEMBER_0_1_STROKES-link" transform="translate(0.187756, 0.721382)" stroke="#293B4F" stroke-linecap="round" stroke-linejoin="round" stroke-width="0.74998902">
                                <path d="M36.8316819,18.3635132 C36.8316819,23.2527274 35.0610182,27.4371899 31.5196907,30.9169009 C27.9783633,34.3966118 23.7198049,36.1364673 18.7440157,36.1364673 C13.7682265,36.1364673 9.50966814,34.3966118 5.96834067,30.9169009 C2.42701321,27.4371899 0.656349479,23.2527274 0.656349479,18.3635132 C0.656349479,13.4302521 2.42701321,9.24578956 5.96834067,5.81012558 C9.50966814,2.33041462 13.7682265,0.590559139 18.7440157,0.590559139 C23.7198049,0.590559139 27.9783633,2.33041462 31.5196907,5.81012558 C35.0610182,9.24578956 36.8316819,13.4302521 36.8316819,18.3635132 Z" id="Layer1_0_MEMBER_26_MEMBER_2_MEMBER_0_MEMBER_0_1_STROKES"></path>
                            </g>
                        </g>
                        <g id="Group" transform="translate(36.000000, 83.927835)" fill="#FAFAFA" fill-rule="nonzero">
                            <g id="Layer1_0_MEMBER_26_MEMBER_2_MEMBER_1_MEMBER_0_FILL-link">
                                <g id="Layer1_0_MEMBER_26_MEMBER_2_MEMBER_1_MEMBER_0_FILL">
                                    <path d="M0.133027523,14.4600917 C0.133027523,18.4420489 1.53868502,21.838685 4.35,24.65 C7.17018349,27.461315 10.5668196,28.8669725 14.5399083,28.8669725 C18.5218654,28.8669725 21.9185015,27.461315 24.7298165,24.65 C27.5411315,21.838685 28.946789,18.4420489 28.946789,14.4600917 C28.946789,10.4870031 27.5411315,7.09036697 24.7298165,4.27018349 C21.9185015,1.4588685 18.5218654,0.0532110092 14.5399083,0.0532110092 C10.5668196,0.0532110092 7.17018349,1.4588685 4.35,4.27018349 C1.53868502,7.09036697 0.133027523,10.4870031 0.133027523,14.4600917 Z" id="Path"></path>
                                </g>
                            </g>
                        </g>
                        <g id="Group" transform="translate(50.000000, 80.927835)" fill="#D1D9DC" fill-rule="nonzero">
                            <g id="Layer1_0_MEMBER_26_MEMBER_2_MEMBER_2_MEMBER_0_FILL-link">
                                <g id="Layer1_0_MEMBER_26_MEMBER_2_MEMBER_2_MEMBER_0_FILL">
                                    <path d="M0.93762207,0.2875 C0.93762207,0.2125 0.890740967,0.15 0.79697876,0.1 C0.703216553,0.05 0.593827311,0.025 0.468811035,0.025 C0.156270345,0.025 0,0.1125 0,0.2875 L0,4.575 C0,4.65 0.0468811035,4.71666667 0.140643311,4.775 C0.218778483,4.825 0.328167725,4.85 0.468811035,4.85 C0.593827311,4.85 0.703216553,4.825 0.79697876,4.775 C0.890740967,4.71666667 0.93762207,4.65 0.93762207,4.575 L0.93762207,0.2875 Z" id="Path"></path>
                                </g>
                            </g>
                        </g>
                        <g id="Group" transform="translate(50.000000, 108.927835)" fill="#D1D9DC" fill-rule="nonzero">
                            <g id="Layer1_0_MEMBER_26_MEMBER_2_MEMBER_2_MEMBER_1_FILL-link">
                                <g id="Layer1_0_MEMBER_26_MEMBER_2_MEMBER_2_MEMBER_1_FILL">
                                    <path d="M0.93762207,0.514285714 C0.93762207,0.428571429 0.890740967,0.357142857 0.79697876,0.3 C0.703216553,0.233333333 0.593827311,0.2 0.468811035,0.2 C0.328167725,0.2 0.218778483,0.233333333 0.140643311,0.3 C0.0468811035,0.357142857 0,0.428571429 0,0.514285714 L0,5.41428571 C0,5.61428571 0.156270345,5.71428571 0.468811035,5.71428571 C0.593827311,5.71428571 0.703216553,5.68571429 0.79697876,5.62857143 C0.890740967,5.57142857 0.93762207,5.5 0.93762207,5.41428571 L0.93762207,0.514285714 Z" id="Path"></path>
                                </g>
                            </g>
                        </g>
                        <g id="Group" transform="translate(62.000000, 96.927835)" fill="#D1D9DC" fill-rule="nonzero">
                            <g id="Layer1_0_MEMBER_26_MEMBER_2_MEMBER_2_MEMBER_2_FILL-link">
                                <g id="Layer1_0_MEMBER_26_MEMBER_2_MEMBER_2_MEMBER_2_FILL">
                                    <path d="M5.4,1 C5.47619048,1 5.55238095,0.938888889 5.62857143,0.816666667 C5.68571429,0.705555556 5.71428571,0.6 5.71428571,0.5 C5.71428571,0.388888889 5.68571429,0.283333333 5.62857143,0.183333333 C5.56190476,0.0611111111 5.48571429,0 5.4,0 L0.5,0 C0.423809524,0 0.352380952,0.0611111111 0.285714286,0.183333333 C0.228571429,0.283333333 0.2,0.388888889 0.2,0.5 C0.2,0.6 0.228571429,0.705555556 0.285714286,0.816666667 C0.352380952,0.938888889 0.423809524,1 0.5,1 L5.4,1 Z" id="Path"></path>
                                </g>
                            </g>
                        </g>
                        <g id="Group" transform="translate(34.000000, 96.927835)" fill="#D1D9DC" fill-rule="nonzero">
                            <g id="Layer1_0_MEMBER_26_MEMBER_2_MEMBER_2_MEMBER_3_FILL-link">
                                <g id="Layer1_0_MEMBER_26_MEMBER_2_MEMBER_2_MEMBER_3_FILL">
                                    <path d="M0.0625,1.175 C0.104166667,1.275 0.166666667,1.325 0.25,1.325 L4.5625,1.325 C4.64583333,1.325 4.70833333,1.275 4.75,1.175 C4.79166667,1.075 4.8125,0.975 4.8125,0.875 C4.8125,0.775 4.79166667,0.675 4.75,0.575 C4.70833333,0.475 4.64583333,0.425 4.5625,0.425 L0.25,0.425 C0.166666667,0.425 0.104166667,0.475 0.0625,0.575 C0.0208333333,0.675 0,0.775 0,0.875 C0,0.975 0.0208333333,1.075 0.0625,1.175 Z" id="Path"></path>
                                </g>
                            </g>
                        </g>
                        <g id="Group" transform="translate(40.000000, 87.927835)" fill="#F78E8F" fill-rule="nonzero">
                            <g id="Layer1_0_MEMBER_26_MEMBER_3_MEMBER_0_FILL-link">
                                <g id="Layer1_0_MEMBER_26_MEMBER_3_MEMBER_0_FILL">
                                    <path d="M0.151162791,10.0348837 C0.151162791,12.7790698 1.12015504,15.120155 3.05813953,17.0581395 C4.99612403,18.996124 7.3372093,19.9651163 10.0813953,19.9651163 C12.8178295,19.9651163 15.1550388,18.996124 17.0930233,17.0581395 C19.0310078,15.120155 20,12.7790698 20,10.0348837 C20,7.29844961 19.0310078,4.95736434 17.0930233,3.01162791 C15.1550388,1.07364341 12.8178295,0.104651163 10.0813953,0.104651163 L10.1162791,10.0348837 L1.5,5.02325581 C0.600775194,6.56589147 0.151162791,8.23643411 0.151162791,10.0348837 Z" id="Path"></path>
                                </g>
                            </g>
                        </g>
                        <g id="Group" transform="translate(45.000000, 91.927835)" fill="#FAFAFA" fill-rule="nonzero">
                            <g id="Layer1_0_MEMBER_26_MEMBER_4_MEMBER_0_FILL-link">
                                <g id="Layer1_0_MEMBER_26_MEMBER_4_MEMBER_0_FILL">
                                    <path d="M0.0234042553,5.534375 C0.0234042553,7.01631944 0.557801418,8.28055556 1.62659574,9.32708333 C2.70319149,10.3736111 3.99432624,10.896875 5.5,10.896875 C7.01347518,10.896875 8.30460993,10.3736111 9.37340426,9.32708333 C10.4421986,8.28055556 10.9765957,7.01631944 10.9765957,5.534375 C10.9765957,4.05243056 10.4421986,2.78819444 9.37340426,1.74166667 C8.30460993,0.695138889 7.01347518,0.171875 5.5,0.171875 C3.99432624,0.171875 2.70319149,0.695138889 1.62659574,1.74166667 C0.557801418,2.79583333 0.0234042553,4.06006944 0.0234042553,5.534375 Z" id="Path"></path>
                                </g>
                            </g>
                        </g>
                        <g id="Group" transform="translate(34.000000, 65.927835)" stroke="#2A3B4E" stroke-linecap="round" stroke-linejoin="round" stroke-width="0.876617432">
                            <g id="Layer1_0_MEMBER_27_1_STROKES-link" transform="translate(0.079810, 0.031592)">
                                <path d="M0.621930115,0.750617003 L0.621930115,8.65060726" id="Layer1_0_MEMBER_27_1_STROKES"></path>
                            </g>
                        </g>
                        <g id="Group" transform="translate(30.000000, 68.927835)" stroke="#2A3B4E" stroke-linecap="round" stroke-linejoin="round" stroke-width="0.876617432">
                            <g id="Layer1_0_MEMBER_28_1_STROKES-link" transform="translate(0.798315, 0.453833)">
                                <path d="M0.00342906453,1.22837098 L7.80341945,1.22837098" id="Layer1_0_MEMBER_28_1_STROKES"></path>
                            </g>
                        </g>
                        <g id="Group" transform="translate(35.000000, 58.927835)" stroke="#2A3B4E" stroke-linecap="round" stroke-linejoin="round" stroke-width="0.876617432">
                            <g id="Layer1_0_MEMBER_29_1_STROKES-link" transform="translate(0.361304, 0.187109)">
                                <path d="M4.54042956,1.89510645 C4.54042956,2.42843913 4.3737631,2.86177193 4.04043018,3.19510485 C3.70709726,3.52843777 3.27376446,3.69510423 2.74043178,3.69510423 C2.27376569,3.69510423 1.84043289,3.52843777 1.44043338,3.19510485 C1.10710046,2.86177193 0.940434001,2.42843913 0.940434001,1.89510645 C0.940434001,1.42844036 1.10710046,0.995107563 1.44043338,0.595108056 C1.84043289,0.261775134 2.27376569,0.095108673 2.74043178,0.095108673 C3.27376446,0.095108673 3.70709726,0.261775134 4.04043018,0.595108056 C4.3737631,0.995107563 4.54042956,1.42844036 4.54042956,1.89510645 Z" id="Layer1_0_MEMBER_29_1_STROKES"></path>
                            </g>
                        </g>
                        <g id="Group" transform="translate(81.000000, 20.927835)" stroke="#2A3B4E" stroke-linecap="round" stroke-linejoin="round" stroke-width="0.25">
                            <g id="Layer1_0_MEMBER_30_1_STROKES-link">
                                <path d="M1.15,0.39695122 L1.15,93" id="Layer1_0_MEMBER_30_1_STROKES"></path>
                            </g>
                        </g>
                        <g id="Group" transform="translate(78.000000, 49.927835)" fill="#B6D5DA" fill-rule="nonzero">
                            <g id="Layer1_0_MEMBER_31_MEMBER_0_FILL-link">
                                <g id="Layer1_0_MEMBER_31_MEMBER_0_FILL">
                                    <polygon id="Path" points="7.83 8.16666667 7.83 0.333333333 0.06 0.333333333 0.06 8.16666667"></polygon>
                                </g>
                            </g>
                        </g>
                        <g id="Group" transform="translate(89.000000, 89.927835)">
                            <g id="Layer1_0_MEMBER_32_FILL-link" transform="translate(0.000000, 1.181818)" fill="#FFFFFF" fill-rule="nonzero">
                                <g id="Layer1_0_MEMBER_32_FILL">
                                    <polygon id="Path" points="0.965432099 3.42727273 0.965432099 7.38636364 0.965432099 10.6954545 6.58765432 10.6954545 9.88148148 10.6954545 24.1925926 10.6954545 26.1802469 10.6954545 35.3802469 10.6954545 47.7604938 10.6954545 61.3901235 10.6954545 65.6493827 10.6954545 71.7259259 10.6954545 80.5851852 10.6954545 85.2419753 10.6954545 89.5012346 10.6954545 91.9432099 10.6954545 91.9432099 0.354545455 81.891358 0.354545455 75.8148148 0.354545455 57.8691358 0.354545455 53.0987654 0.354545455 30.9506173 0.354545455 14.254321 0.354545455 0.965432099 0.354545455"></polygon>
                                </g>
                            </g>
                            <g id="Layer1_0_MEMBER_32_1_STROKES-link" stroke="#2A3B4E" stroke-linecap="round" stroke-linejoin="round" stroke-width="0.1">
                                <path d="M0.965432099,8.56818182 L0.965432099,11.8772727 L6.58765432,11.8772727 M9.88148148,11.8772727 L24.1925926,11.8772727 M26.1802469,11.8772727 L35.3802469,11.8772727 M47.7604938,11.8772727 L61.3901235,11.8772727 M65.6493827,11.8772727 L71.7259259,11.8772727 M80.5851852,11.8772727 L85.2419753,11.8772727 M89.5012346,11.8772727 L91.9432099,11.8772727 L91.9432099,1.53636364 L81.891358,1.53636364 M75.8148148,1.53636364 L57.8691358,1.53636364 M53.0987654,1.53636364 L30.9506173,1.53636364 M14.254321,1.53636364 L0.965432099,1.53636364 L0.965432099,4.60909091" id="Layer1_0_MEMBER_32_1_STROKES"></path>
                            </g>
                        </g>
                        <g id="Group" transform="translate(122.000000, 57.927835)" fill-rule="nonzero">
                            <g id="Layer1_0_MEMBER_33_MEMBER_0_MEMBER_0_MEMBER_0_FILL-link">
                                <g id="Layer1_0_MEMBER_33_MEMBER_0_MEMBER_0_MEMBER_0_FILL">
                                    <path d="M10.6192308,7.23666667 C10.5064103,6.60111111 10.3371795,5.99444444 10.1115385,5.41666667 L9.68846154,4.50666667 C9.66025641,4.44888889 9.63205128,4.39111111 9.60384615,4.33333333 C9.51923077,4.18888889 9.42051282,4.05888889 9.30769231,3.94333333 C9.16666667,3.82777778 9.01153846,3.74111111 8.84230769,3.68333333 C8.67307692,3.62555556 8.50384615,3.59666667 8.33461538,3.59666667 C8.16538462,3.62555556 8.01025641,3.66888889 7.86923077,3.72666667 L7.7,3.81333333 L7.36153846,2.99 C7.30512821,2.84555556 7.22051282,2.73 7.10769231,2.64333333 C6.99487179,2.52777778 6.86794872,2.44111111 6.72692308,2.38333333 C6.58589744,2.32555556 6.44487179,2.29666667 6.30384615,2.29666667 C6.13461538,2.29666667 5.97948718,2.34 5.83846154,2.42666667 L5.33076923,2.64333333 C5.24615385,2.49888889 5.13333333,2.39777778 4.99230769,2.34 C4.71025641,2.19555556 4.38589744,2.21 4.01923077,2.38333333 L3.63846154,2.51333333 L3.17307692,1.43 C3.08846154,1.19888889 2.96153846,1.01111111 2.79230769,0.866666667 C2.59487179,0.722222222 2.3974359,0.635555556 2.2,0.606666667 C2.0025641,0.548888889 1.80512821,0.548888889 1.60769231,0.606666667 C1.41025641,0.664444444 1.24102564,0.765555556 1.1,0.91 C0.874358974,1.11222222 0.733333333,1.35777778 0.676923077,1.64666667 C0.620512821,1.93555556 0.662820513,2.22444444 0.803846154,2.51333333 L2.58076923,6.67333333 C2.41153846,6.64444444 2.25641026,6.63 2.11538462,6.63 C1.88974359,6.63 1.69230769,6.67333333 1.52307692,6.76 C1.35384615,6.81777778 1.19871795,6.90444444 1.05769231,7.02 L1.01538462,7.06333333 C0.902564103,7.17888889 0.803846154,7.32333333 0.719230769,7.49666667 C0.662820513,7.64111111 0.648717949,7.8 0.676923077,7.97333333 C0.676923077,8.17555556 0.733333333,8.39222222 0.846153846,8.62333333 C0.958974359,8.82555556 1.12820513,9.01333333 1.35384615,9.18666667 L5.03461538,12.1333333 C5.06282051,12.1911111 5.11923077,12.22 5.20384615,12.22 C5.23205128,12.22 5.26025641,12.2055556 5.28846154,12.1766667 L10.5346154,9.83666667 C10.5910256,9.80777778 10.6333333,9.77888889 10.6615385,9.75 C10.6897436,9.69222222 10.7038462,9.63444444 10.7038462,9.57666667 L10.7461538,9.14333333 C10.774359,8.50777778 10.7320513,7.87222222 10.6192308,7.23666667 L10.6192308,7.23666667 Z M9.60384615,5.67666667 C9.82948718,6.19666667 9.99871795,6.74555556 10.1115385,7.32333333 C10.1961538,7.90111111 10.224359,8.49333333 10.1961538,9.1 L10.1961538,9.40333333 L5.20384615,11.6133333 L1.69230769,8.75333333 C1.52307692,8.63777778 1.39615385,8.50777778 1.31153846,8.36333333 C1.22692308,8.21888889 1.18461538,8.07444444 1.18461538,7.93 C1.18461538,7.75666667 1.24102564,7.59777778 1.35384615,7.45333333 L1.39615385,7.45333333 C1.53717949,7.28 1.77692308,7.19333333 2.11538462,7.19333333 C2.42564103,7.16444444 2.69358974,7.23666667 2.91923077,7.41 L3.80769231,8.27666667 C3.86410256,8.33444444 3.93461538,8.36333333 4.01923077,8.36333333 C4.07564103,8.36333333 4.13205128,8.33444444 4.18846154,8.27666667 C4.24487179,8.21888889 4.27307692,8.16111111 4.27307692,8.10333333 C4.27307692,8.01666667 4.24487179,7.94444444 4.18846154,7.88666667 L3.3,7.02 L1.26923077,2.29666667 C1.18461538,2.09444444 1.17051282,1.89222222 1.22692308,1.69 C1.25512821,1.54555556 1.33974359,1.41555556 1.48076923,1.3 C1.53717949,1.21333333 1.62179487,1.15555556 1.73461538,1.12666667 C1.8474359,1.09777778 1.96025641,1.09777778 2.07307692,1.12666667 C2.21410256,1.15555556 2.34102564,1.21333333 2.45384615,1.3 C2.53846154,1.38666667 2.60897436,1.50222222 2.66538462,1.64666667 L4.23076923,5.24333333 C4.25897436,5.27222222 4.28717949,5.30111111 4.31538462,5.33 C4.37179487,5.35888889 4.42820513,5.37333333 4.48461538,5.37333333 C4.51282051,5.37333333 4.54102564,5.37333333 4.56923077,5.37333333 C4.62564103,5.34444444 4.66794872,5.28666667 4.69615385,5.2 C4.72435897,5.14222222 4.72435897,5.08444444 4.69615385,5.02666667 L3.85,3.03333333 L4.23076923,2.86 C4.45641026,2.74444444 4.62564103,2.73 4.73846154,2.81666667 C4.85128205,2.84555556 4.93589744,2.93222222 4.99230769,3.07666667 L5.88076923,5.2 C5.90897436,5.25777778 5.95128205,5.30111111 6.00769231,5.33 C6.03589744,5.35888889 6.07820513,5.37333333 6.13461538,5.37333333 C6.16282051,5.37333333 6.19102564,5.35888889 6.21923077,5.33 C6.30384615,5.30111111 6.36025641,5.25777778 6.38846154,5.2 C6.41666667,5.11333333 6.41666667,5.04111111 6.38846154,4.98333333 L5.58461538,3.12 L6.05,2.90333333 C6.13461538,2.87444444 6.21923077,2.86 6.30384615,2.86 C6.38846154,2.86 6.45897436,2.87444444 6.51538462,2.90333333 C6.6,2.93222222 6.67051282,2.97555556 6.72692308,3.03333333 C6.78333333,3.09111111 6.82564103,3.14888889 6.85384615,3.20666667 L7.95384615,5.72 C7.98205128,5.77777778 8.01025641,5.82111111 8.03846154,5.85 C8.09487179,5.87888889 8.15128205,5.89333333 8.20769231,5.89333333 C8.23589744,5.89333333 8.26410256,5.89333333 8.29230769,5.89333333 C8.34871795,5.83555556 8.39102564,5.77777778 8.41923077,5.72 C8.4474359,5.66222222 8.4474359,5.59 8.41923077,5.50333333 L7.91153846,4.29 L8.08076923,4.24666667 C8.27820513,4.13111111 8.47564103,4.11666667 8.67307692,4.20333333 C8.89871795,4.26111111 9.05384615,4.39111111 9.13846154,4.59333333 C9.16666667,4.65111111 9.19487179,4.69444444 9.22307692,4.72333333 L9.60384615,5.67666667 Z" id="Shape" fill="#2A3A4E"></path>
                                    <path d="M10.1115385,7.32333333 C9.99871795,6.74555556 9.82948718,6.19666667 9.60384615,5.67666667 L9.22307692,4.72333333 C9.19487179,4.69444444 9.16666667,4.65111111 9.13846154,4.59333333 C9.05384615,4.39111111 8.89871795,4.26111111 8.67307692,4.20333333 C8.47564103,4.11666667 8.27820513,4.13111111 8.08076923,4.24666667 L7.91153846,4.29 L8.41923077,5.50333333 C8.4474359,5.59 8.4474359,5.66222222 8.41923077,5.72 C8.39102564,5.77777778 8.34871795,5.83555556 8.29230769,5.89333333 C8.26410256,5.89333333 8.23589744,5.89333333 8.20769231,5.89333333 C8.15128205,5.89333333 8.09487179,5.87888889 8.03846154,5.85 C8.01025641,5.82111111 7.98205128,5.77777778 7.95384615,5.72 L6.85384615,3.20666667 C6.82564103,3.14888889 6.78333333,3.09111111 6.72692308,3.03333333 C6.67051282,2.97555556 6.6,2.93222222 6.51538462,2.90333333 C6.45897436,2.87444444 6.38846154,2.86 6.30384615,2.86 C6.21923077,2.86 6.13461538,2.87444444 6.05,2.90333333 L5.58461538,3.12 L6.38846154,4.98333333 C6.41666667,5.04111111 6.41666667,5.11333333 6.38846154,5.2 C6.36025641,5.25777778 6.30384615,5.30111111 6.21923077,5.33 C6.19102564,5.35888889 6.16282051,5.37333333 6.13461538,5.37333333 C6.07820513,5.37333333 6.03589744,5.35888889 6.00769231,5.33 C5.95128205,5.30111111 5.90897436,5.25777778 5.88076923,5.2 L4.99230769,3.07666667 C4.93589744,2.93222222 4.85128205,2.84555556 4.73846154,2.81666667 C4.62564103,2.73 4.45641026,2.74444444 4.23076923,2.86 L3.85,3.03333333 L4.69615385,5.02666667 C4.72435897,5.08444444 4.72435897,5.14222222 4.69615385,5.2 C4.66794872,5.28666667 4.62564103,5.34444444 4.56923077,5.37333333 C4.54102564,5.37333333 4.51282051,5.37333333 4.48461538,5.37333333 C4.42820513,5.37333333 4.37179487,5.35888889 4.31538462,5.33 C4.28717949,5.30111111 4.25897436,5.27222222 4.23076923,5.24333333 L2.66538462,1.64666667 C2.60897436,1.50222222 2.53846154,1.38666667 2.45384615,1.3 C2.34102564,1.21333333 2.21410256,1.15555556 2.07307692,1.12666667 C1.96025641,1.09777778 1.8474359,1.09777778 1.73461538,1.12666667 C1.62179487,1.15555556 1.53717949,1.21333333 1.48076923,1.3 C1.33974359,1.41555556 1.25512821,1.54555556 1.22692308,1.69 C1.17051282,1.89222222 1.18461538,2.09444444 1.26923077,2.29666667 L3.3,7.02 L4.18846154,7.88666667 C4.24487179,7.94444444 4.27307692,8.01666667 4.27307692,8.10333333 C4.27307692,8.16111111 4.24487179,8.21888889 4.18846154,8.27666667 C4.13205128,8.33444444 4.07564103,8.36333333 4.01923077,8.36333333 C3.93461538,8.36333333 3.86410256,8.33444444 3.80769231,8.27666667 L2.91923077,7.41 C2.69358974,7.23666667 2.42564103,7.16444444 2.11538462,7.19333333 C1.77692308,7.19333333 1.53717949,7.28 1.39615385,7.45333333 L1.35384615,7.45333333 C1.24102564,7.59777778 1.18461538,7.75666667 1.18461538,7.93 C1.18461538,8.07444444 1.22692308,8.21888889 1.31153846,8.36333333 C1.39615385,8.50777778 1.52307692,8.63777778 1.69230769,8.75333333 L5.20384615,11.6133333 L10.1961538,9.40333333 L10.1961538,9.1 C10.224359,8.49333333 10.1961538,7.90111111 10.1115385,7.32333333 Z" id="Path" fill="#FFFFFF"></path>
                                </g>
                            </g>
                        </g>
                        <g id="Group" transform="translate(104.432964, 64.558944) rotate(4.759459) translate(-104.432964, -64.558944) translate(84.932964, 58.558944)" fill="#A1C1C7" fill-rule="nonzero">
                            <g id="Layer1_0_MEMBER_34_FILL-link" transform="translate(1.005972, 0.992475)">
                                <g id="Layer1_0_MEMBER_34_FILL">
                                    <path d="M37.2238403,6.31793811 C21.7814277,11.6813676 9.37348092,9.66629379 0,0.272716753 C9.50057897,11.0904813 21.9085257,13.1055551 37.2238403,6.31793811 Z" id="Path"></path>
                                </g>
                            </g>
                        </g>
                        <g id="Group" transform="translate(92.000000, 46.927835)" fill="#F88E8F" fill-rule="nonzero">
                            <g id="Layer1_0_MEMBER_35_FILL-link">
                                <g id="Layer1_0_MEMBER_35_FILL">
                                    <polygon id="Path" points="17.6175 10 17.6175 0.6 0.135 0.6 0.135 10"></polygon>
                                </g>
                            </g>
                        </g>
                        <g id="Group" transform="translate(93.000000, 72.927835)" fill="#B2E0E7" fill-rule="nonzero">
                            <g id="Layer1_0_MEMBER_36_FILL-link">
                                <g id="Layer1_0_MEMBER_36_FILL">
                                    <polygon id="Path" points="49.91625 10 49.91625 0.6 0.3825 0.6 0.3825 10"></polygon>
                                </g>
                            </g>
                        </g>
                        <g id="Group" transform="translate(100.000000, 93.927835)" fill="#B6D5DA" fill-rule="nonzero">
                            <g id="Layer1_0_MEMBER_37_MEMBER_0_FILL-link">
                                <g id="Layer1_0_MEMBER_37_MEMBER_0_FILL">
                                    <polygon id="Path" points="85.15125 11.8333333 85.15125 0.866666667 0.6525 0.866666667 0.6525 11.8333333"></polygon>
                                </g>
                            </g>
                        </g>
                        <g id="Group" transform="translate(186.000000, 96.927835)">
                            <g id="Layer1_0_MEMBER_38_MEMBER_0_FILL-link" transform="translate(0.363636, 0.000000)" fill="#D9C0BF" fill-rule="nonzero">
                                <g id="Layer1_0_MEMBER_38_MEMBER_0_FILL">
                                    <path d="M11.6590909,6.44 C11.5227273,4.01333333 11.1136364,2.05333333 10.4318182,0.56 L7.09090909,1.05 C4.77272727,1.42333333 3.22727273,1.70333333 2.45454545,1.89 C1.63636364,2.03 1.15909091,2.26333333 1.02272727,2.59 C0.977272727,2.68333333 0.931818182,3.22 0.886363636,4.2 C0.840909091,4.76 0.954545455,5.97333333 1.22727273,7.84 C1.59090909,10.3133333 2,11.76 2.45454545,12.18 C2.90909091,12.6466667 4.20454545,12.8566667 6.34090909,12.81 C8.65909091,12.7633333 10.1590909,12.3433333 10.8409091,11.55 C11.5681818,10.71 11.8409091,9.00666667 11.6590909,6.44 Z" id="Path"></path>
                                </g>
                            </g>
                            <g id="Layer1_0_MEMBER_38_MEMBER_0_1_STROKES-link" transform="translate(0.350157, 0.551720)" stroke="#2A3B4E" stroke-linecap="round" stroke-linejoin="round" stroke-width="0.749989863">
                                <path d="M10.4226524,0.00248584211 L7.0817885,0.49247922 C4.76363802,0.865807507 3.21820436,1.14580372 2.44548753,1.33246787 C1.62731677,1.47246597 1.15005049,1.70579615 1.0136887,2.03245841 C0.968234768,2.12579048 0.922780837,2.66244989 0.877326905,3.64243665 C0.831872974,4.20242908 0.945507802,5.41574601 1.21823139,7.28238745 C1.58186284,9.75568736 1.99094822,11.2023345 2.44548753,11.6223288 C2.90002684,12.0889892 4.19546388,12.2989863 6.33179864,12.2523203 C8.64994913,12.2056542 10.1499289,11.7856599 10.8317378,10.9923373 C11.5590007,10.1523487 11.8317243,8.44903835 11.6499086,5.88240637 C11.5135468,3.4557725 11.1044614,1.49579899 10.4226524,0.00248584211 Z" id="Layer1_0_MEMBER_38_MEMBER_0_1_STROKES"></path>
                            </g>
                        </g>
                        <g id="Group" transform="translate(192.500000, 104.927835) scale(-1, 1) translate(-192.500000, -104.927835) translate(190.000000, 101.927835)" fill="#B5A19F" fill-rule="nonzero">
                            <g id="Layer1_0_MEMBER_38_MEMBER_1_FILL-link">
                                <g id="Layer1_0_MEMBER_38_MEMBER_1_FILL">
                                    <path d="M0.0833333333,3.57 L1.77777778,5.58 L2.69444444,5.19 C3.41666667,4.93 4,4.76 4.44444444,4.68 C3.94444444,3.94 3.97222222,2.63 4.52777778,0.75 C4.0462963,0.93 3.34259259,0.94 2.41666667,0.78 L1.19444444,0.45 L0.0833333333,3.57 Z" id="Path"></path>
                                </g>
                            </g>
                        </g>
                        <g id="Group" transform="translate(174.000000, 85.927835)">
                            <g id="Layer1_0_MEMBER_38_MEMBER_2_FILL-link" fill-rule="nonzero">
                                <g id="Layer1_0_MEMBER_38_MEMBER_2_FILL">
                                    <polygon id="Path" fill="#FFFFFF" points="37.49 22.1382353 33.81 33.9529412 33.1775 36.0176471 40.1925 38.5985294 45.3675 21.2205882 38.3525 19.5"></polygon>
                                    <path d="M16.3875,6.07941176 L16.2725,6.13676471 C17.0775,7.70441176 17.9016667,8.81323529 18.745,9.46323529 C19.2816667,9.88382353 19.895,10.4 20.585,11.0117647 L21.4475,11.7573529 L21.5625,13.7647059 C21.7158333,15.1411765 21.7925,16.0588235 21.7925,16.5176471 C21.7925,17.0911765 21.3133333,17.9323529 20.355,19.0411765 C19.3966667,20.15 18.5341667,20.8764706 17.7675,21.2205882 C17.2691667,21.4882353 15.4866667,21.7176471 12.42,21.9088235 C11.6533333,21.9470588 10.9441667,21.9852941 10.2925,22.0235294 C8.75916667,21.1058824 7.705,20.475 7.13,20.1308824 C6.05666667,19.5573529 5.15583333,19.2323529 4.4275,19.1558824 C3.6225,19.0794118 2.8175,19.2323529 2.0125,19.6147059 C1.5525,19.8058824 1.11166667,20.2647059 0.69,20.9911765 C0.575,21.4117647 0.46,21.775 0.345,22.0808824 C2.83666667,23.1897059 4.90666667,24.375 6.555,25.6367647 C7.51333333,26.3632353 8.43333333,26.7838235 9.315,26.8985294 C11.6533333,26.9367647 13.0141667,26.9558824 13.3975,26.9558824 C14.8158333,27.0323529 15.9083333,27.3382353 16.675,27.8735294 C19.78,29.9764706 22.5975,31.1808824 25.1275,31.4867647 C26.3053516,31.5559168 29.1995182,32.3779756 33.81,33.9529412 L37.49,22.1382353 C37.1294271,22.0672909 36.8610937,21.9908203 36.685,21.9088235 C36.0716667,21.6794118 34.9983333,20.1691176 33.465,17.3779412 C32.4683333,15.5426471 31.4716667,13.5735294 30.475,11.4705882 C29.4016667,9.17647059 28.0216667,7.58970588 26.335,6.71029412 C25.3383333,6.175 24.0733333,5.31470588 22.54,4.12941176 C21.39,3.13529412 20.0291667,2.16029412 18.4575,1.20441176 C17.3075,0.898529412 16.6366667,0.745588235 16.445,0.745588235 C12.0366667,1.12794118 9.06583333,1.85441176 7.5325,2.925 C5.50083333,4.33970588 3.105,5.98382353 0.345,7.85735294 L1.4375,8.775 C2.31916667,9.425 3.12416667,9.65441176 3.8525,9.46323529 C4.73416667,9.19558824 5.38583333,8.94705882 5.8075,8.71764706 C6.7275,8.29705882 7.5325,7.76176471 8.2225,7.11176471 C9.4875,7.15 11.1358333,6.95882353 13.1675,6.53823529 L15.87,5.85 C16.0233333,5.96470588 16.1958333,6.04117647 16.3875,6.07941176 Z" id="Path" fill="#FCDFDD"></path>
                                </g>
                            </g>
                            <g id="Layer1_0_MEMBER_38_MEMBER_2_1_STROKES-link" stroke="#2A3B4E" stroke-linecap="round" stroke-linejoin="round" stroke-width="0.75">
                                <path d="M37.49,22.1669118 C37.1294271,22.0768497 36.8610937,21.9908203 36.685,21.9088235 C36.0716667,21.6794118 34.9983333,20.1691176 33.465,17.3779412 C32.4683333,15.5426471 31.4716667,13.5735294 30.475,11.4705882 C29.4016667,9.17647059 28.0216667,7.58970588 26.335,6.71029412 C25.3383333,6.175 24.0733333,5.31470588 22.54,4.12941176 C21.39,3.13529412 20.0291667,2.16029412 18.4575,1.20441176 C17.3075,0.898529412 16.6366667,0.745588235 16.445,0.745588235 C12.0366667,1.12794118 9.06583333,1.85441176 7.5325,2.925 C5.50083333,4.33970588 3.105,5.98382353 0.345,7.85735294 L1.4375,8.775 C2.31916667,9.425 3.12416667,9.65441176 3.8525,9.46323529 C4.73416667,9.19558824 5.38583333,8.94705882 5.8075,8.71764706 C6.7275,8.29705882 7.5325,7.76176471 8.2225,7.11176471 C9.4875,7.15 11.1358333,6.95882353 13.1675,6.53823529 L15.87,5.85 C16.0233333,5.96470588 16.1958333,6.04117647 16.3875,6.07941176 L16.2725,6.13676471 C17.0775,7.70441176 17.9016667,8.81323529 18.745,9.46323529 C19.2816667,9.88382353 19.895,10.4 20.585,11.0117647 L21.4475,11.7573529 L21.5625,13.7647059 C21.7158333,15.1411765 21.7925,16.0588235 21.7925,16.5176471 C21.7925,17.0911765 21.3133333,17.9323529 20.355,19.0411765 C19.3966667,20.15 18.5341667,20.8764706 17.7675,21.2205882 C17.2691667,21.4882353 15.4866667,21.7176471 12.42,21.9088235 C11.6533333,21.9470588 10.9441667,21.9852941 10.2925,22.0235294 C8.75916667,21.1058824 7.705,20.475 7.13,20.1308824 C6.05666667,19.5573529 5.15583333,19.2323529 4.4275,19.1558824 C3.6225,19.0794118 2.8175,19.2323529 2.0125,19.6147059 C1.5525,19.8058824 1.11166667,20.2647059 0.69,20.9911765 C0.575,21.4117647 0.46,21.775 0.345,22.0808824 C2.83666667,23.1897059 4.90666667,24.375 6.555,25.6367647 C7.51333333,26.3632353 8.43333333,26.7838235 9.315,26.8985294 C11.6533333,26.9367647 13.0141667,26.9558824 13.3975,26.9558824 C14.8158333,27.0323529 15.9083333,27.3382353 16.675,27.8735294 C19.78,29.9764706 22.5975,31.1808824 25.1275,31.4867647 C26.3053516,31.5559168 29.2091016,32.3779756 33.83875,33.9529412 L37.49,22.1669118 L38.3525,19.5 L45.3675,21.2205882 L40.1925,38.5985294 L33.1775,36.0176471 L33.83875,33.9529412" id="Layer1_0_MEMBER_38_MEMBER_2_1_STROKES"></path>
                            </g>
                        </g>
                        <g id="Group" transform="translate(177.831109, 107.458674) rotate(41.575850) translate(-177.831109, -107.458674) translate(174.831109, 104.958674)" fill="#FFFFFF" fill-rule="nonzero">
                            <g id="Layer1_0_MEMBER_38_MEMBER_3_FILL-link" transform="translate(1.005612, 0.992105)">
                                <g id="Layer1_0_MEMBER_38_MEMBER_3_FILL">
                                    <path d="M0.626114425,3.36853675 L4.38280098,2.61233462 C4.47555867,2.4290129 4.47555867,1.97070858 4.38280098,1.23742166 L4.24366444,0.137491296 L3.54798174,0.068745648 C2.99143559,0.068745648 2.43488943,0.183321728 1.87834328,0.412473888 C1.22903943,0.733286912 0.788440387,1.19159123 0.556546156,1.78738685 C0.324651924,2.38318246 0.347841347,2.91023243 0.626114425,3.36853675 Z" id="Path"></path>
                                </g>
                            </g>
                        </g>
                        <g id="Group" transform="translate(177.796170, 93.115306) scale(-1, 1) rotate(29.997780) translate(-177.796170, -93.115306) translate(174.796170, 91.615306)" fill="#FFFFFF" fill-rule="nonzero">
                            <g id="Layer1_0_MEMBER_38_MEMBER_4_FILL-link" transform="translate(1.007415, 0.993682)">
                                <g id="Layer1_0_MEMBER_38_MEMBER_4_FILL">
                                    <path d="M4.48228001,0.0928915452 L0.235909474,0.139337318 L0.235909474,1.8578309 L2.59500421,1.62560204 C3.20443702,1.56367434 3.70574465,1.28499971 4.09892711,0.789578134 C4.29551834,0.541867347 4.42330264,0.309638484 4.48228001,0.0928915452 Z" id="Path"></path>
                                </g>
                            </g>
                        </g>
                        <g id="Group" transform="translate(147.000000, 72.927835)" fill="#FFEDBF" fill-rule="nonzero">
                            <g id="Layer1_0_MEMBER_39_FILL-link">
                                <g id="Layer1_0_MEMBER_39_FILL">
                                    <polygon id="Path" points="36.21375 10 36.21375 0.6 0.2775 0.6 0.2775 10"></polygon>
                                </g>
                            </g>
                        </g>
                    </g>
                </g>
            </g>
        </g>
    </g>
</svg>